STARTFONT 2.3
FONT -FontForge-Pacifico-Book-R-Normal--9-90-72-72-P-52-ISO10646-1
SIZE 9 72 72  2
FONTBOUNDINGBOX 21 20 -6 -5
COMMENT "Generated by fontforge, http://fontforge.sourceforge.net"
COMMENT "Copyright 2018 The Pacifico Project Authors (https://github.com/googlefonts/Pacifico)"
STARTPROPERTIES 41
FOUNDRY "FontForge"
FAMILY_NAME "Pacifico"
WEIGHT_NAME "Book"
SLANT "R"
SETWIDTH_NAME "Normal"
ADD_STYLE_NAME ""
PIXEL_SIZE 9
POINT_SIZE 90
RESOLUTION_X 72
RESOLUTION_Y 72
SPACING "P"
AVERAGE_WIDTH 52
CHARSET_REGISTRY "ISO10646"
CHARSET_ENCODING "1"
FONTNAME_REGISTRY ""
CHARSET_COLLECTIONS "ISO8859-2 ISO8859-5 ISO8859-9 ISO8859-4 ISO10646-1"
BITS_PER_PIXEL 2
FONT_NAME "Pacifico-Regular"
FACE_NAME "Pacifico Regular"
COPYRIGHT "Copyright 2018 The Pacifico Project Authors (https://github.com/googlefonts/Pacifico)"
FONT_VERSION "3.001"
FONT_ASCENT 7
FONT_DESCENT 2
UNDERLINE_POSITION -1
UNDERLINE_THICKNESS 1
X_HEIGHT 4
CAP_HEIGHT 8
DEFAULT_CHAR 1
RAW_ASCENT 800
RAW_DESCENT 200
NORM_SPACE 2
RELATIVE_WEIGHT 40
RELATIVE_SETWIDTH 50
SUPERSCRIPT_X 0
SUPERSCRIPT_Y 3
SUPERSCRIPT_SIZE 5
SUBSCRIPT_X 0
SUBSCRIPT_Y 0
SUBSCRIPT_SIZE 5
AVG_LOWERCASE_WIDTH 42
AVG_UPPERCASE_WIDTH 72
ENDPROPERTIES
CHARS 1514
STARTCHAR NULL.dup1
ENCODING 0
SWIDTH 0 0
DWIDTH 0 0
BBX 1 1 0 0
BITMAP
00
ENDCHAR
STARTCHAR nonmarkingreturn
ENCODING 13
SWIDTH 265 0
DWIDTH 2 0
BBX 1 1 0 0
BITMAP
00
ENDCHAR
STARTCHAR space
ENCODING 32
SWIDTH 265 0
DWIDTH 2 0
BBX 1 1 0 0
BITMAP
00
ENDCHAR
STARTCHAR exclam
ENCODING 33
SWIDTH 340 0
DWIDTH 3 0
BBX 4 9 0 0
BITMAP
0D
1C
1C
28
24
30
10
60
A0
ENDCHAR
STARTCHAR quotedbl
ENCODING 34
SWIDTH 510 0
DWIDTH 5 0
BBX 4 4 1 5
BITMAP
99
9D
DD
CC
ENDCHAR
STARTCHAR numbersign
ENCODING 35
SWIDTH 700 0
DWIDTH 6 0
BBX 6 7 0 0
BITMAP
0440
0C90
7FF0
2980
BFE0
3740
2200
ENDCHAR
STARTCHAR dollar
ENCODING 36
SWIDTH 524 0
DWIDTH 5 0
BBX 5 9 0 -1
BITMAP
0500
2E00
7A40
7800
1E00
5B40
AB00
2800
1400
ENDCHAR
STARTCHAR percent
ENCODING 37
SWIDTH 896 0
DWIDTH 8 0
BBX 8 8 0 0
BITMAP
2824
6D70
ABE0
29C0
029D
0337
0A36
082D
ENDCHAR
STARTCHAR ampersand
ENCODING 38
SWIDTH 851 0
DWIDTH 8 0
BBX 8 10 0 -1
BITMAP
0B80
1D90
1890
1EC0
0F00
3B49
62E8
B5F0
2FB8
0004
ENDCHAR
STARTCHAR quotesingle
ENCODING 39
SWIDTH 290 0
DWIDTH 3 0
BBX 2 4 1 5
BITMAP
90
90
D0
C0
ENDCHAR
STARTCHAR parenleft
ENCODING 40
SWIDTH 613 0
DWIDTH 6 0
BBX 6 11 1 -1
BITMAP
07D0
1D50
3400
7000
A000
D000
C000
C000
C000
D600
7D00
ENDCHAR
STARTCHAR parenright
ENCODING 41
SWIDTH 613 0
DWIDTH 6 0
BBX 6 11 -1 -1
BITMAP
07D0
0DB0
0030
0030
0070
0070
00A0
00D0
01C0
4340
7E00
ENDCHAR
STARTCHAR asterisk
ENCODING 42
SWIDTH 520 0
DWIDTH 5 0
BBX 4 4 1 6
BITMAP
54
7A
B8
25
ENDCHAR
STARTCHAR plus
ENCODING 43
SWIDTH 700 0
DWIDTH 6 0
BBX 5 7 1 0
BITMAP
0400
0C00
1C00
FF80
6900
1800
1400
ENDCHAR
STARTCHAR comma
ENCODING 44
SWIDTH 257 0
DWIDTH 2 0
BBX 2 4 0 -2
BITMAP
10
A0
90
80
ENDCHAR
STARTCHAR hyphen
ENCODING 45
SWIDTH 403 0
DWIDTH 4 0
BBX 3 2 0 2
BITMAP
14
68
ENDCHAR
STARTCHAR period
ENCODING 46
SWIDTH 257 0
DWIDTH 2 0
BBX 2 2 0 0
BITMAP
A0
A0
ENDCHAR
STARTCHAR slash
ENCODING 47
SWIDTH 509 0
DWIDTH 5 0
BBX 5 10 0 0
BITMAP
0080
0180
0340
0600
0900
1C00
2400
7000
A000
8000
ENDCHAR
STARTCHAR zero
ENCODING 48
SWIDTH 543 0
DWIDTH 5 0
BBX 5 6 0 0
BITMAP
1E00
3640
6280
A240
6740
2D00
ENDCHAR
STARTCHAR one
ENCODING 49
SWIDTH 376 0
DWIDTH 3 0
BBX 3 7 0 0
BITMAP
14
7C
68
28
28
24
24
ENDCHAR
STARTCHAR two
ENCODING 50
SWIDTH 560 0
DWIDTH 5 0
BBX 5 6 0 0
BITMAP
2E00
3640
1240
0A00
2900
BF80
ENDCHAR
STARTCHAR three
ENCODING 51
SWIDTH 520 0
DWIDTH 5 0
BBX 5 6 0 0
BITMAP
2E00
6740
0600
0A00
9740
7E00
ENDCHAR
STARTCHAR four
ENCODING 52
SWIDTH 577 0
DWIDTH 5 0
BBX 5 7 0 0
BITMAP
0400
1800
3640
7340
BFC0
1700
0200
ENDCHAR
STARTCHAR five
ENCODING 53
SWIDTH 518 0
DWIDTH 5 0
BBX 5 6 0 0
BITMAP
7F40
3400
7E00
1740
A700
7E00
ENDCHAR
STARTCHAR six
ENCODING 54
SWIDTH 541 0
DWIDTH 5 0
BBX 5 6 0 0
BITMAP
1F40
3540
7E00
B740
7740
2E00
ENDCHAR
STARTCHAR seven
ENCODING 55
SWIDTH 497 0
DWIDTH 4 0
BBX 5 6 0 0
BITMAP
7F80
0700
0D00
2800
2400
2400
ENDCHAR
STARTCHAR eight
ENCODING 56
SWIDTH 512 0
DWIDTH 5 0
BBX 5 6 0 0
BITMAP
2E00
7640
3A00
6B00
A740
7E00
ENDCHAR
STARTCHAR nine
ENCODING 57
SWIDTH 541 0
DWIDTH 5 0
BBX 5 6 0 0
BITMAP
2E00
7740
3F80
4240
A700
7D00
ENDCHAR
STARTCHAR colon
ENCODING 58
SWIDTH 257 0
DWIDTH 2 0
BBX 2 5 0 0
BITMAP
70
70
00
A0
A0
ENDCHAR
STARTCHAR semicolon
ENCODING 59
SWIDTH 257 0
DWIDTH 2 0
BBX 2 7 0 -2
BITMAP
70
70
00
10
A0
90
80
ENDCHAR
STARTCHAR less
ENCODING 60
SWIDTH 700 0
DWIDTH 6 0
BBX 6 5 0 1
BITMAP
01A0
1B80
7800
1F40
0190
ENDCHAR
STARTCHAR equal
ENCODING 61
SWIDTH 700 0
DWIDTH 6 0
BBX 6 3 0 2
BITMAP
3FE0
0000
7FD0
ENDCHAR
STARTCHAR greater
ENCODING 62
SWIDTH 700 0
DWIDTH 6 0
BBX 6 5 0 1
BITMAP
3800
1B80
01E0
1B80
6400
ENDCHAR
STARTCHAR question
ENCODING 63
SWIDTH 476 0
DWIDTH 4 0
BBX 5 9 0 0
BITMAP
1F40
3680
2280
0700
1D00
2400
1000
7000
7000
ENDCHAR
STARTCHAR at
ENCODING 64
SWIDTH 1015 0
DWIDTH 9 0
BBX 9 11 0 -3
BITMAP
02F900
0A5740
280180
30A580
62A580
A33180
A77740
A2AD00
700000
290700
0BF900
ENDCHAR
STARTCHAR A
ENCODING 65
SWIDTH 786 0
DWIDTH 7 0
BBX 8 9 0 0
BITMAP
02FD
0B54
2828
3434
7034
7070
70B0
75F6
2E2D
ENDCHAR
STARTCHAR B
ENCODING 66
SWIDTH 827 0
DWIDTH 7 0
BBX 8 10 0 -1
BITMAP
1BF8
B51E
480A
1C1D
19F4
2868
2828
3974
3F90
1000
ENDCHAR
STARTCHAR C
ENCODING 67
SWIDTH 686 0
DWIDTH 6 0
BBX 8 9 0 0
BITMAP
07E0
1D74
3434
7010
7000
7000
7400
2959
0BE4
ENDCHAR
STARTCHAR D
ENCODING 68
SWIDTH 836 0
DWIDTH 8 0
BBX 8 9 0 0
BITMAP
1BE0
B578
081D
1C0D
280D
281C
3428
35B4
2F90
ENDCHAR
STARTCHAR E
ENCODING 69
SWIDTH 686 0
DWIDTH 6 0
BBX 8 9 0 0
BITMAP
0BE0
2D74
2824
2810
1F40
7500
A000
B459
2FE4
ENDCHAR
STARTCHAR F
ENCODING 70
SWIDTH 712 0
DWIDTH 6 0
BBX 9 9 0 0
BITMAP
0BFF40
35C000
718000
228000
0BF800
028000
034000
D70000
7D0000
ENDCHAR
STARTCHAR G
ENCODING 71
SWIDTH 811 0
DWIDTH 7 0
BBX 9 14 0 -5
BITMAP
06E000
1D7400
342400
701000
700000
70B800
742800
296B40
0BFD00
007400
00B000
026000
039000
028000
ENDCHAR
STARTCHAR H
ENCODING 72
SWIDTH 873 0
DWIDTH 8 0
BBX 9 10 0 0
BITMAP
000740
2D0E80
991940
492A40
0D2E00
3FF800
1D3400
1C3440
282980
241F40
ENDCHAR
STARTCHAR I
ENCODING 73
SWIDTH 495 0
DWIDTH 4 0
BBX 5 9 0 0
BITMAP
3FC0
0E00
0D00
0D00
1C00
1C00
1800
2800
FF00
ENDCHAR
STARTCHAR J
ENCODING 74
SWIDTH 743 0
DWIDTH 7 0
BBX 7 10 0 -1
BITMAP
1BF8
3538
6034
2030
00B0
07B0
0DA0
2890
29C0
1F40
ENDCHAR
STARTCHAR K
ENCODING 75
SWIDTH 937 0
DWIDTH 8 0
BBX 10 9 0 0
BITMAP
1FC280
75C340
628700
129D00
07F400
03B400
436C10
A70D90
7D0B80
ENDCHAR
STARTCHAR L
ENCODING 76
SWIDTH 673 0
DWIDTH 6 0
BBX 8 9 -1 0
BITMAP
00B8
039A
070A
0A04
0A00
0A00
0900
7F96
79BD
ENDCHAR
STARTCHAR M
ENCODING 77
SWIDTH 1232 0
DWIDTH 11 0
BBX 12 9 0 0
BITMAP
2C78B4
9E9E68
4E1E28
0E1D34
0D1C34
1C2870
1C2870
183476
18242D
ENDCHAR
STARTCHAR N
ENCODING 78
SWIDTH 884 0
DWIDTH 8 0
BBX 9 9 0 0
BITMAP
2C7C00
9D9D00
4E0D00
0E0D00
0D1C00
1C1C00
1C2800
182D80
180F40
ENDCHAR
STARTCHAR O
ENCODING 79
SWIDTH 816 0
DWIDTH 7 0
BBX 7 9 0 0
BITMAP
07E0
1D78
341C
701C
701C
701C
7028
39B0
1B90
ENDCHAR
STARTCHAR P
ENCODING 80
SWIDTH 805 0
DWIDTH 7 0
BBX 8 11 0 -2
BITMAP
06F4
0D6C
264D
334D
6368
9FE0
9700
9700
6A00
2D00
0400
ENDCHAR
STARTCHAR Q
ENCODING 81
SWIDTH 816 0
DWIDTH 7 0
BBX 8 12 0 -3
BITMAP
07E0
1D68
341C
701C
701C
701C
7028
29B0
0B80
01C0
00E2
007D
ENDCHAR
STARTCHAR R
ENCODING 82
SWIDTH 880 0
DWIDTH 8 0
BBX 9 9 0 0
BITMAP
06F400
1D6C00
364D00
636800
6BE000
57B000
663440
7A2980
2D0F40
ENDCHAR
STARTCHAR S
ENCODING 83
SWIDTH 693 0
DWIDTH 6 0
BBX 7 9 0 0
BITMAP
0BD0
2970
3434
3810
0B80
01E0
9070
A5A0
2F80
ENDCHAR
STARTCHAR T
ENCODING 84
SWIDTH 697 0
DWIDTH 6 0
BBX 8 9 0 0
BITMAP
1BFF
65C0
9280
5280
0340
0340
0340
0700
0700
ENDCHAR
STARTCHAR U
ENCODING 85
SWIDTH 890 0
DWIDTH 8 0
BBX 9 9 0 0
BITMAP
2D0900
9A0D00
490D00
0D1D00
0C1C00
1C2C00
186C00
1D9DC0
0F4F40
ENDCHAR
STARTCHAR V
ENCODING 86
SWIDTH 763 0
DWIDTH 7 0
BBX 7 9 1 0
BITMAP
A1E0
A270
9270
D2E0
D0FC
90C0
A280
7B00
3D00
ENDCHAR
STARTCHAR W
ENCODING 87
SWIDTH 1217 0
DWIDTH 11 0
BBX 12 9 1 0
BITMAP
A061E0
A0A274
90A270
D0E1F0
D1E0BD
D2A0D0
A36180
BA3B00
382D00
ENDCHAR
STARTCHAR X
ENCODING 88
SWIDTH 712 0
DWIDTH 6 0
BBX 8 9 0 0
BITMAP
7D18
9A74
07A0
0380
0740
0F80
29C0
B0D9
D0B8
ENDCHAR
STARTCHAR Y
ENCODING 89
SWIDTH 851 0
DWIDTH 8 0
BBX 9 12 0 -3
BITMAP
2D0900
9A0D00
490D00
0D1D00
0D1C00
1C2C00
1C6C00
0BAE80
01F800
062400
097000
0BD000
ENDCHAR
STARTCHAR Z
ENCODING 90
SWIDTH 721 0
DWIDTH 6 0
BBX 8 9 0 0
BITMAP
1BE8
7478
6070
10D0
02C0
0740
0A00
BF5A
B6F8
ENDCHAR
STARTCHAR bracketleft
ENCODING 91
SWIDTH 405 0
DWIDTH 4 0
BBX 5 11 0 -1
BITMAP
1F40
1800
2800
2800
2400
3400
3400
3000
7000
7000
7D00
ENDCHAR
STARTCHAR backslash
ENCODING 92
SWIDTH 509 0
DWIDTH 5 0
BBX 3 10 1 0
BITMAP
80
D0
A0
60
70
34
28
18
1C
0C
ENDCHAR
STARTCHAR bracketright
ENCODING 93
SWIDTH 405 0
DWIDTH 4 0
BBX 5 11 -1 -1
BITMAP
1F40
0340
0340
0300
0700
0700
0600
0A00
0A00
0900
7D00
ENDCHAR
STARTCHAR asciicircum
ENCODING 94
SWIDTH 700 0
DWIDTH 6 0
BBX 4 6 1 1
BITMAP
04
1C
29
66
93
82
ENDCHAR
STARTCHAR underscore
ENCODING 95
SWIDTH 354 0
DWIDTH 3 0
BBX 3 1 0 -1
BITMAP
FC
ENDCHAR
STARTCHAR grave
ENCODING 96
SWIDTH 600 0
DWIDTH 5 0
BBX 2 4 1 6
BITMAP
40
90
60
20
ENDCHAR
STARTCHAR a
ENCODING 97
SWIDTH 470 0
DWIDTH 4 0
BBX 6 5 0 0
BITMAP
1D00
7700
A600
AA90
7780
ENDCHAR
STARTCHAR b
ENCODING 98
SWIDTH 473 0
DWIDTH 4 0
BBX 6 10 0 0
BITMAP
0E00
2A00
3600
3500
7800
7D00
7B00
67D0
6700
2D00
ENDCHAR
STARTCHAR c
ENCODING 99
SWIDTH 368 0
DWIDTH 3 0
BBX 5 5 0 0
BITMAP
2C00
6900
9000
A640
3D00
ENDCHAR
STARTCHAR d
ENCODING 100
SWIDTH 515 0
DWIDTH 5 0
BBX 6 10 0 0
BITMAP
01D0
0290
0350
0390
0680
1F80
7B40
A600
AA60
7A80
ENDCHAR
STARTCHAR e
ENCODING 101
SWIDTH 393 0
DWIDTH 4 0
BBX 5 5 0 0
BITMAP
2D00
6900
A840
B680
2E00
ENDCHAR
STARTCHAR f
ENCODING 102
SWIDTH 371 0
DWIDTH 3 0
BBX 5 13 0 -3
BITMAP
0B00
1E40
2600
3600
3900
7800
7000
6F40
A800
A800
6800
6800
3400
ENDCHAR
STARTCHAR g
ENCODING 103
SWIDTH 479 0
DWIDTH 4 0
BBX 6 10 0 -5
BITMAP
1D00
7600
A600
AAD0
7F40
1D00
2C00
9800
E400
A000
ENDCHAR
STARTCHAR h
ENCODING 104
SWIDTH 502 0
DWIDTH 5 0
BBX 6 10 0 0
BITMAP
0A00
1B00
3600
3500
7800
7B00
6B00
7710
B760
6380
ENDCHAR
STARTCHAR i
ENCODING 105
SWIDTH 246 0
DWIDTH 2 0
BBX 4 7 0 0
BITMAP
34
00
20
60
A0
A9
74
ENDCHAR
STARTCHAR j
ENCODING 106
SWIDTH 254 0
DWIDTH 2 0
BBX 5 12 -2 -5
BITMAP
0700
0000
0600
0600
0600
0AC0
0B40
1D00
2C00
9800
E400
A000
ENDCHAR
STARTCHAR k
ENCODING 107
SWIDTH 525 0
DWIDTH 5 0
BBX 6 10 0 0
BITMAP
0A00
1B00
3600
3500
7800
7740
6A80
7750
7A60
6780
ENDCHAR
STARTCHAR l
ENCODING 108
SWIDTH 326 0
DWIDTH 3 0
BBX 4 10 0 0
BITMAP
0A
2A
36
36
69
68
78
70
66
2D
ENDCHAR
STARTCHAR m
ENCODING 109
SWIDTH 744 0
DWIDTH 7 0
BBX 8 5 0 0
BITMAP
2774
6FB4
B771
B776
6238
ENDCHAR
STARTCHAR n
ENCODING 110
SWIDTH 496 0
DWIDTH 4 0
BBX 6 5 0 0
BITMAP
2700
6F00
B710
B750
6380
ENDCHAR
STARTCHAR o
ENCODING 111
SWIDTH 451 0
DWIDTH 4 0
BBX 6 5 0 0
BITMAP
2D00
6A00
97D0
A600
3C00
ENDCHAR
STARTCHAR p
ENCODING 112
SWIDTH 481 0
DWIDTH 4 0
BBX 7 10 -1 -5
BITMAP
1B80
1DC0
19C0
2AA4
7EE0
A800
A400
A400
A000
A000
ENDCHAR
STARTCHAR q
ENCODING 113
SWIDTH 500 0
DWIDTH 5 0
BBX 6 10 0 -4
BITMAP
0100
1F40
7700
A600
AAE0
7E80
0D80
0D40
0E40
0B00
ENDCHAR
STARTCHAR r
ENCODING 114
SWIDTH 455 0
DWIDTH 4 0
BBX 5 5 0 0
BITMAP
2700
6B40
B7C0
B000
6000
ENDCHAR
STARTCHAR s
ENCODING 115
SWIDTH 427 0
DWIDTH 4 0
BBX 5 5 0 0
BITMAP
1800
2800
6D40
9EC0
6F40
ENDCHAR
STARTCHAR t
ENCODING 116
SWIDTH 393 0
DWIDTH 4 0
BBX 5 9 0 0
BITMAP
0A00
1B00
2600
3900
FF00
7000
3000
3580
1E00
ENDCHAR
STARTCHAR u
ENCODING 117
SWIDTH 462 0
DWIDTH 4 0
BBX 6 5 0 0
BITMAP
2200
6600
AA00
AE90
7740
ENDCHAR
STARTCHAR v
ENCODING 118
SWIDTH 449 0
DWIDTH 4 0
BBX 5 5 0 0
BITMAP
5600
AB00
ABC0
6C00
7400
ENDCHAR
STARTCHAR w
ENCODING 119
SWIDTH 700 0
DWIDTH 6 0
BBX 8 5 0 0
BITMAP
5630
AA70
AF7D
7BD0
7740
ENDCHAR
STARTCHAR x
ENCODING 120
SWIDTH 529 0
DWIDTH 5 0
BBX 6 5 0 0
BITMAP
3A80
2E80
4D10
9E60
BB80
ENDCHAR
STARTCHAR y
ENCODING 121
SWIDTH 479 0
DWIDTH 4 0
BBX 5 10 0 -5
BITMAP
2300
6600
AA00
AEC0
7B40
1D00
6C00
9800
E400
A000
ENDCHAR
STARTCHAR z
ENCODING 122
SWIDTH 445 0
DWIDTH 4 0
BBX 5 5 0 0
BITMAP
7F40
1E00
7440
75C0
2E40
ENDCHAR
STARTCHAR braceleft
ENCODING 123
SWIDTH 490 0
DWIDTH 4 0
BBX 5 11 0 -1
BITMAP
02C0
0A00
0900
0D00
0C00
7800
2C00
1C00
1800
1800
0F00
ENDCHAR
STARTCHAR bar
ENCODING 124
SWIDTH 326 0
DWIDTH 3 0
BBX 3 14 0 -4
BITMAP
18
18
18
28
24
34
30
30
70
60
60
A0
90
40
ENDCHAR
STARTCHAR braceright
ENCODING 125
SWIDTH 490 0
DWIDTH 4 0
BBX 6 11 -1 -1
BITMAP
1E00
0740
0340
0340
0340
02D0
0740
0600
0A00
0900
7C00
ENDCHAR
STARTCHAR asciitilde
ENCODING 126
SWIDTH 700 0
DWIDTH 6 0
BBX 6 3 0 2
BITMAP
1410
3EA0
62C0
ENDCHAR
STARTCHAR uni00A0
ENCODING 160
SWIDTH 265 0
DWIDTH 2 0
BBX 1 1 0 0
BITMAP
00
ENDCHAR
STARTCHAR exclamdown
ENCODING 161
SWIDTH 340 0
DWIDTH 3 0
BBX 3 9 0 -4
BITMAP
28
28
10
30
60
A0
90
D0
C0
ENDCHAR
STARTCHAR cent
ENCODING 162
SWIDTH 466 0
DWIDTH 4 0
BBX 4 8 0 -1
BITMAP
04
08
2E
6A
A5
7A
28
14
ENDCHAR
STARTCHAR sterling
ENCODING 163
SWIDTH 525 0
DWIDTH 5 0
BBX 5 6 0 0
BITMAP
1F40
2A80
3000
BE00
7500
BF40
ENDCHAR
STARTCHAR currency
ENCODING 164
SWIDTH 700 0
DWIDTH 6 0
BBX 5 5 1 1
BITMAP
AE40
6700
9200
5300
AE40
ENDCHAR
STARTCHAR yen
ENCODING 165
SWIDTH 497 0
DWIDTH 4 0
BBX 5 7 0 0
BITMAP
4040
A280
3700
2D00
7F00
BF00
2800
ENDCHAR
STARTCHAR brokenbar
ENCODING 166
SWIDTH 326 0
DWIDTH 3 0
BBX 3 14 0 -4
BITMAP
18
18
28
28
24
24
00
10
70
60
60
A0
90
40
ENDCHAR
STARTCHAR section
ENCODING 167
SWIDTH 607 0
DWIDTH 5 0
BBX 5 9 0 0
BITMAP
0B80
19C0
2840
2F40
3580
2E80
1740
6640
2E00
ENDCHAR
STARTCHAR dieresis
ENCODING 168
SWIDTH 600 0
DWIDTH 5 0
BBX 4 1 1 6
BITMAP
99
ENDCHAR
STARTCHAR copyright
ENCODING 169
SWIDTH 647 0
DWIDTH 6 0
BBX 6 6 0 4
BITMAP
0B80
2BA0
6960
6820
3BA0
1F80
ENDCHAR
STARTCHAR ordfeminine
ENCODING 170
SWIDTH 393 0
DWIDTH 4 0
BBX 4 4 0 4
BITMAP
1E
36
6A
29
ENDCHAR
STARTCHAR guillemotleft
ENCODING 171
SWIDTH 615 0
DWIDTH 6 0
BBX 5 4 0 0
BITMAP
29C0
A740
7740
29C0
ENDCHAR
STARTCHAR logicalnot
ENCODING 172
SWIDTH 700 0
DWIDTH 6 0
BBX 5 3 1 1
BITMAP
FF80
0280
0240
ENDCHAR
STARTCHAR uni00AD
ENCODING 173
SWIDTH 403 0
DWIDTH 4 0
BBX 3 2 0 2
BITMAP
14
68
ENDCHAR
STARTCHAR registered
ENCODING 174
SWIDTH 647 0
DWIDTH 6 0
BBX 6 6 0 4
BITMAP
0B80
2AA0
6560
6A20
39A0
1F80
ENDCHAR
STARTCHAR macron
ENCODING 175
SWIDTH 600 0
DWIDTH 5 0
BBX 3 1 1 6
BITMAP
BC
ENDCHAR
STARTCHAR degree
ENCODING 176
SWIDTH 385 0
DWIDTH 3 0
BBX 3 3 1 6
BITMAP
B4
D8
F4
ENDCHAR
STARTCHAR plusminus
ENCODING 177
SWIDTH 700 0
DWIDTH 6 0
BBX 5 6 1 0
BITMAP
0C00
BF40
1900
1800
5500
FF00
ENDCHAR
STARTCHAR uni00B2
ENCODING 178
SWIDTH 450 0
DWIDTH 4 0
BBX 4 5 0 3
BITMAP
2E
23
0A
28
7E
ENDCHAR
STARTCHAR uni00B3
ENCODING 179
SWIDTH 450 0
DWIDTH 4 0
BBX 4 5 0 3
BITMAP
2A
23
0D
57
2E
ENDCHAR
STARTCHAR acute
ENCODING 180
SWIDTH 600 0
DWIDTH 5 0
BBX 3 3 2 6
BITMAP
24
30
50
ENDCHAR
STARTCHAR uni00B5
ENCODING 181
SWIDTH 462 0
DWIDTH 4 0
BBX 6 8 0 -3
BITMAP
2200
6600
AA00
AE90
B740
9000
9000
9000
ENDCHAR
STARTCHAR paragraph
ENCODING 182
SWIDTH 739 0
DWIDTH 7 0
BBX 6 9 1 0
BITMAP
6F80
FDD0
FDC0
BDC0
19C0
2A80
2A80
2640
2640
ENDCHAR
STARTCHAR periodcentered
ENCODING 183
SWIDTH 257 0
DWIDTH 2 0
BBX 2 2 0 1
BITMAP
60
70
ENDCHAR
STARTCHAR cedilla
ENCODING 184
SWIDTH 600 0
DWIDTH 5 0
BBX 3 3 0 -3
BITMAP
38
0C
78
ENDCHAR
STARTCHAR uni00B9
ENCODING 185
SWIDTH 450 0
DWIDTH 4 0
BBX 3 5 1 3
BITMAP
B4
64
30
30
30
ENDCHAR
STARTCHAR ordmasculine
ENCODING 186
SWIDTH 408 0
DWIDTH 4 0
BBX 4 4 0 4
BITMAP
2D
26
66
28
ENDCHAR
STARTCHAR guillemotright
ENCODING 187
SWIDTH 615 0
DWIDTH 6 0
BBX 5 4 0 0
BITMAP
6340
29C0
29C0
6340
ENDCHAR
STARTCHAR onequarter
ENCODING 188
SWIDTH 955 0
DWIDTH 9 0
BBX 8 8 1 0
BITMAP
B440
64C0
3180
3370
3A68
0CD8
18FD
0018
ENDCHAR
STARTCHAR onehalf
ENCODING 189
SWIDTH 1024 0
DWIDTH 9 0
BBX 8 8 1 0
BITMAP
B440
64C0
3180
336D
3A56
0C09
1828
00BE
ENDCHAR
STARTCHAR threequarters
ENCODING 190
SWIDTH 1035 0
DWIDTH 9 0
BBX 9 8 0 0
BITMAP
2A0400
231C00
0D2400
577600
2E9A80
018D80
025FC0
000240
ENDCHAR
STARTCHAR questiondown
ENCODING 191
SWIDTH 476 0
DWIDTH 4 0
BBX 5 9 -1 -4
BITMAP
0280
0240
0100
0200
0900
2800
7140
7240
3F00
ENDCHAR
STARTCHAR Agrave
ENCODING 192
SWIDTH 786 0
DWIDTH 7 0
BBX 8 12 0 0
BITMAP
0100
0380
0090
02FD
0B54
2828
3434
7034
7070
70B0
75F6
2E2D
ENDCHAR
STARTCHAR Aacute
ENCODING 193
SWIDTH 786 0
DWIDTH 7 0
BBX 8 12 0 0
BITMAP
0001
000E
0024
02FD
0B54
2828
3434
7034
7070
70B0
75F6
2E2D
ENDCHAR
STARTCHAR Acircumflex
ENCODING 194
SWIDTH 786 0
DWIDTH 7 0
BBX 8 12 0 0
BITMAP
0034
00A8
00C8
02FD
0B54
2828
3434
7034
7070
70B0
75F6
2E2D
ENDCHAR
STARTCHAR Atilde
ENCODING 195
SWIDTH 786 0
DWIDTH 7 0
BBX 8 11 0 0
BITMAP
00E5
01AC
02FD
0B54
2828
3434
7034
7070
70B0
75F6
2E2D
ENDCHAR
STARTCHAR Adieresis
ENCODING 196
SWIDTH 786 0
DWIDTH 7 0
BBX 8 10 0 0
BITMAP
00DC
02FD
0B54
2828
3434
7034
7070
70B0
75F6
2E2D
ENDCHAR
STARTCHAR Aring
ENCODING 197
SWIDTH 786 0
DWIDTH 7 0
BBX 8 12 0 0
BITMAP
0074
0098
0074
02FD
0B54
2828
3434
7034
7070
70B0
75F6
2E2D
ENDCHAR
STARTCHAR AE
ENCODING 198
SWIDTH 1015 0
DWIDTH 9 0
BBX 11 9 0 0
BITMAP
02DFE0
0F5C00
282800
343400
703FC0
707400
70B000
75B964
1E5BD0
ENDCHAR
STARTCHAR Ccedilla
ENCODING 199
SWIDTH 686 0
DWIDTH 6 0
BBX 8 12 0 -3
BITMAP
07E0
1D74
3434
7010
7000
7000
7400
2959
0BE4
0640
0240
0F00
ENDCHAR
STARTCHAR Egrave
ENCODING 200
SWIDTH 686 0
DWIDTH 6 0
BBX 8 12 0 0
BITMAP
0400
0E00
0240
0BE0
2D74
2824
2810
1F40
7500
A000
B459
2FE4
ENDCHAR
STARTCHAR Eacute
ENCODING 201
SWIDTH 686 0
DWIDTH 6 0
BBX 8 12 0 0
BITMAP
0014
0074
0090
0BE0
2D74
2824
2810
1F40
7500
A000
B459
2FE4
ENDCHAR
STARTCHAR Ecircumflex
ENCODING 202
SWIDTH 686 0
DWIDTH 6 0
BBX 8 12 0 0
BITMAP
01D0
02A0
0660
0BE0
2D74
2824
2810
1F40
7500
A000
B459
2FE4
ENDCHAR
STARTCHAR Edieresis
ENCODING 203
SWIDTH 686 0
DWIDTH 6 0
BBX 8 10 0 0
BITMAP
0360
0BE0
2D74
2824
2810
1F40
7500
A000
B459
2FE4
ENDCHAR
STARTCHAR Igrave
ENCODING 204
SWIDTH 495 0
DWIDTH 4 0
BBX 5 12 0 0
BITMAP
1000
7400
1900
3FC0
0E00
0D00
0D00
1C00
1C00
1800
2800
FF00
ENDCHAR
STARTCHAR Iacute
ENCODING 205
SWIDTH 495 0
DWIDTH 4 0
BBX 6 12 0 0
BITMAP
0040
01D0
0240
3FC0
0E00
0D00
0D00
1C00
1C00
1800
2800
FF00
ENDCHAR
STARTCHAR Icircumflex
ENCODING 206
SWIDTH 495 0
DWIDTH 4 0
BBX 5 12 0 0
BITMAP
0700
0E40
1980
3FC0
0E00
0D00
0D00
1C00
1C00
1800
2800
FF00
ENDCHAR
STARTCHAR Idieresis
ENCODING 207
SWIDTH 495 0
DWIDTH 4 0
BBX 5 10 0 0
BITMAP
1980
3FC0
0E00
0D00
0D00
1C00
1C00
1800
2800
FF00
ENDCHAR
STARTCHAR Eth
ENCODING 208
SWIDTH 821 0
DWIDTH 7 0
BBX 8 9 0 0
BITMAP
0BE0
0D78
1C1C
180D
BF4C
381C
3428
35B0
3F80
ENDCHAR
STARTCHAR Ntilde
ENCODING 209
SWIDTH 884 0
DWIDTH 8 0
BBX 9 11 0 0
BITMAP
01D800
026800
2C7C00
9D9D00
4E0D00
0E0D00
0D1C00
1C1C00
1C2800
182D80
180F40
ENDCHAR
STARTCHAR Ograve
ENCODING 210
SWIDTH 816 0
DWIDTH 7 0
BBX 7 12 0 0
BITMAP
0400
0E00
0240
07E0
1D78
341C
701C
701C
701C
7028
39B0
1B90
ENDCHAR
STARTCHAR Oacute
ENCODING 211
SWIDTH 816 0
DWIDTH 7 0
BBX 7 12 0 0
BITMAP
0004
0038
0090
07E0
1D78
341C
701C
701C
701C
7028
39B0
1B90
ENDCHAR
STARTCHAR Ocircumflex
ENCODING 212
SWIDTH 816 0
DWIDTH 7 0
BBX 7 12 0 0
BITMAP
00D0
02A0
0320
07E0
1D78
341C
701C
701C
701C
7028
39B0
1B90
ENDCHAR
STARTCHAR Otilde
ENCODING 213
SWIDTH 816 0
DWIDTH 7 0
BBX 7 11 0 0
BITMAP
0394
06B0
07E0
1D78
341C
701C
701C
701C
7028
39B0
1B90
ENDCHAR
STARTCHAR Odieresis
ENCODING 214
SWIDTH 816 0
DWIDTH 7 0
BBX 7 10 0 0
BITMAP
0370
07E0
1D78
341C
701C
701C
701C
7028
39B0
1B90
ENDCHAR
STARTCHAR multiply
ENCODING 215
SWIDTH 700 0
DWIDTH 6 0
BBX 5 5 1 1
BITMAP
5240
7A00
2C00
7A00
9300
ENDCHAR
STARTCHAR Oslash
ENCODING 216
SWIDTH 816 0
DWIDTH 7 0
BBX 7 11 0 -1
BITMAP
0050
07E0
1DF8
349C
718C
725C
721C
7328
3A70
1F90
0900
ENDCHAR
STARTCHAR Ugrave
ENCODING 217
SWIDTH 890 0
DWIDTH 8 0
BBX 9 12 0 0
BITMAP
050000
074000
018000
2D0900
9A0D00
490D00
0D1D00
0C1C00
1C2C00
186C00
1D9DC0
0F4F40
ENDCHAR
STARTCHAR Uacute
ENCODING 218
SWIDTH 890 0
DWIDTH 8 0
BBX 9 12 0 0
BITMAP
000400
002C00
006000
2D0900
9A0D00
490D00
0D1D00
0C1C00
1C2C00
186C00
1D9DC0
0F4F40
ENDCHAR
STARTCHAR Ucircumflex
ENCODING 219
SWIDTH 890 0
DWIDTH 8 0
BBX 9 12 0 0
BITMAP
00A000
01F400
026400
2D0900
9A0D00
490D00
0D1D00
0C1C00
1C2C00
186C00
1D9DC0
0F4F40
ENDCHAR
STARTCHAR Udieresis
ENCODING 220
SWIDTH 890 0
DWIDTH 8 0
BBX 9 10 0 0
BITMAP
01A400
2D0900
9A0D00
490D00
0D1D00
0C1C00
1C2C00
186C00
1D9DC0
0F4F40
ENDCHAR
STARTCHAR Yacute
ENCODING 221
SWIDTH 851 0
DWIDTH 8 0
BBX 9 15 0 -3
BITMAP
000400
001D00
006000
2D0900
9A0D00
490D00
0D1D00
0D1C00
1C2C00
1C6C00
0BAE80
01F800
062400
097000
0BD000
ENDCHAR
STARTCHAR Thorn
ENCODING 222
SWIDTH 776 0
DWIDTH 7 0
BBX 7 11 0 -1
BITMAP
0280
0240
07E0
1F68
371C
672C
9BB4
9F90
9A00
6D00
3C00
ENDCHAR
STARTCHAR germandbls
ENCODING 223
SWIDTH 596 0
DWIDTH 5 0
BBX 7 11 0 -2
BITMAP
0B80
29C0
30C0
6340
6A00
6750
AAE4
ADC0
AB80
A000
9000
ENDCHAR
STARTCHAR agrave
ENCODING 224
SWIDTH 470 0
DWIDTH 4 0
BBX 6 10 0 0
BITMAP
1000
2400
1800
0800
0000
1D00
7700
A600
AA90
7780
ENDCHAR
STARTCHAR aacute
ENCODING 225
SWIDTH 470 0
DWIDTH 4 0
BBX 6 9 0 0
BITMAP
0240
0300
0500
0000
1D00
7700
A600
AA90
7780
ENDCHAR
STARTCHAR acircumflex
ENCODING 226
SWIDTH 470 0
DWIDTH 4 0
BBX 6 10 0 0
BITMAP
0100
0B00
1A00
2640
0000
1D00
7700
A600
AA90
7780
ENDCHAR
STARTCHAR atilde
ENCODING 227
SWIDTH 470 0
DWIDTH 4 0
BBX 6 8 0 0
BITMAP
2980
2740
0000
1D00
7700
A600
AA90
7780
ENDCHAR
STARTCHAR adieresis
ENCODING 228
SWIDTH 470 0
DWIDTH 4 0
BBX 6 7 0 0
BITMAP
2640
0000
1D00
7700
A600
AA90
7780
ENDCHAR
STARTCHAR aring
ENCODING 229
SWIDTH 470 0
DWIDTH 4 0
BBX 6 9 0 0
BITMAP
0A00
1A00
0E00
0000
1D00
7700
A600
AA90
7780
ENDCHAR
STARTCHAR ae
ENCODING 230
SWIDTH 653 0
DWIDTH 6 0
BBX 7 5 0 0
BITMAP
1EE0
7760
A794
AB5C
7AE4
ENDCHAR
STARTCHAR ccedilla
ENCODING 231
SWIDTH 368 0
DWIDTH 3 0
BBX 5 8 0 -3
BITMAP
2C00
6900
9400
A240
3D00
1C00
0C00
7800
ENDCHAR
STARTCHAR egrave
ENCODING 232
SWIDTH 393 0
DWIDTH 4 0
BBX 5 10 0 0
BITMAP
1000
3000
2400
0800
0000
2D00
6900
A840
B680
2E00
ENDCHAR
STARTCHAR eacute
ENCODING 233
SWIDTH 393 0
DWIDTH 4 0
BBX 5 9 0 0
BITMAP
0300
0600
0800
0000
2D00
6900
A840
B680
2E00
ENDCHAR
STARTCHAR ecircumflex
ENCODING 234
SWIDTH 393 0
DWIDTH 4 0
BBX 5 10 0 0
BITMAP
0400
1E00
2600
2200
0000
2D00
6900
A840
B680
2E00
ENDCHAR
STARTCHAR edieresis
ENCODING 235
SWIDTH 393 0
DWIDTH 4 0
BBX 5 7 0 0
BITMAP
3700
0000
2D00
6900
A840
B680
2E00
ENDCHAR
STARTCHAR igrave
ENCODING 236
SWIDTH 246 0
DWIDTH 2 0
BBX 4 10 0 0
BITMAP
40
C0
90
20
00
20
60
A0
A9
74
ENDCHAR
STARTCHAR iacute
ENCODING 237
SWIDTH 246 0
DWIDTH 2 0
BBX 4 9 0 0
BITMAP
0C
18
20
00
20
60
A0
A9
74
ENDCHAR
STARTCHAR icircumflex
ENCODING 238
SWIDTH 246 0
DWIDTH 2 0
BBX 4 10 0 0
BITMAP
10
38
9C
8C
00
20
60
A0
A9
74
ENDCHAR
STARTCHAR idieresis
ENCODING 239
SWIDTH 246 0
DWIDTH 2 0
BBX 4 7 0 0
BITMAP
9C
00
20
60
A0
A9
74
ENDCHAR
STARTCHAR eth
ENCODING 240
SWIDTH 451 0
DWIDTH 4 0
BBX 5 10 0 0
BITMAP
2400
1E80
1E00
2A00
0300
2F00
6700
9700
AA00
3C00
ENDCHAR
STARTCHAR ntilde
ENCODING 241
SWIDTH 496 0
DWIDTH 4 0
BBX 6 8 0 0
BITMAP
1D80
2740
0000
2700
6F00
B710
B750
6380
ENDCHAR
STARTCHAR ograve
ENCODING 242
SWIDTH 451 0
DWIDTH 4 0
BBX 6 10 0 0
BITMAP
1000
3000
2400
0800
0000
2D00
6A00
97D0
A600
3C00
ENDCHAR
STARTCHAR oacute
ENCODING 243
SWIDTH 451 0
DWIDTH 4 0
BBX 6 9 0 0
BITMAP
0300
0A00
0800
0000
2D00
6A00
97D0
A600
3C00
ENDCHAR
STARTCHAR ocircumflex
ENCODING 244
SWIDTH 451 0
DWIDTH 4 0
BBX 6 10 0 0
BITMAP
0400
1D00
2600
2200
0000
2D00
6A00
97D0
A600
3C00
ENDCHAR
STARTCHAR otilde
ENCODING 245
SWIDTH 451 0
DWIDTH 4 0
BBX 6 8 0 0
BITMAP
3940
5B00
0000
2D00
6A00
97D0
A600
3C00
ENDCHAR
STARTCHAR odieresis
ENCODING 246
SWIDTH 451 0
DWIDTH 4 0
BBX 6 7 0 0
BITMAP
3700
0000
2D00
6A00
97D0
A600
3C00
ENDCHAR
STARTCHAR divide
ENCODING 247
SWIDTH 700 0
DWIDTH 6 0
BBX 5 6 1 0
BITMAP
1C00
0000
FF80
0000
0000
2400
ENDCHAR
STARTCHAR oslash
ENCODING 248
SWIDTH 459 0
DWIDTH 4 0
BBX 6 9 0 -2
BITMAP
0400
0800
2D00
6F40
ABD0
BA00
7D00
2000
1000
ENDCHAR
STARTCHAR ugrave
ENCODING 249
SWIDTH 462 0
DWIDTH 4 0
BBX 6 10 0 0
BITMAP
1000
3400
1800
0800
0000
2200
6600
AA00
AE90
7740
ENDCHAR
STARTCHAR uacute
ENCODING 250
SWIDTH 462 0
DWIDTH 4 0
BBX 6 9 0 0
BITMAP
0240
0700
0900
0000
2200
6600
AA00
AE90
7740
ENDCHAR
STARTCHAR ucircumflex
ENCODING 251
SWIDTH 462 0
DWIDTH 4 0
BBX 6 10 0 0
BITMAP
0500
0E00
1B00
2200
0000
2200
6600
AA00
AE90
7740
ENDCHAR
STARTCHAR udieresis
ENCODING 252
SWIDTH 462 0
DWIDTH 4 0
BBX 6 7 0 0
BITMAP
2640
0000
2200
6600
AA00
AE90
7740
ENDCHAR
STARTCHAR yacute
ENCODING 253
SWIDTH 479 0
DWIDTH 4 0
BBX 5 14 0 -5
BITMAP
0240
0700
0900
0000
2300
6600
AA00
AEC0
7B40
1D00
6C00
9800
E400
A000
ENDCHAR
STARTCHAR thorn
ENCODING 254
SWIDTH 508 0
DWIDTH 5 0
BBX 6 13 0 -4
BITMAP
1000
3400
3000
7000
6B00
7740
B310
AB60
BB80
9000
9000
9000
4000
ENDCHAR
STARTCHAR ydieresis
ENCODING 255
SWIDTH 479 0
DWIDTH 4 0
BBX 5 12 0 -5
BITMAP
2640
0000
2300
6600
AA00
AEC0
7B40
1D00
6C00
9800
E400
A000
ENDCHAR
STARTCHAR Amacron
ENCODING 256
SWIDTH 786 0
DWIDTH 7 0
BBX 8 10 0 0
BITMAP
00F8
02FD
0B54
2828
3434
7034
7070
70B0
75F6
2E2D
ENDCHAR
STARTCHAR amacron
ENCODING 257
SWIDTH 470 0
DWIDTH 4 0
BBX 6 7 0 0
BITMAP
2F00
0000
1D00
7700
A600
AA90
7780
ENDCHAR
STARTCHAR Abreve
ENCODING 258
SWIDTH 786 0
DWIDTH 7 0
BBX 8 11 0 0
BITMAP
0189
00F8
02FD
0B54
2828
3434
7034
7070
70B0
75F6
2E2D
ENDCHAR
STARTCHAR abreve
ENCODING 259
SWIDTH 470 0
DWIDTH 4 0
BBX 6 9 0 0
BITMAP
1040
3580
1F40
0000
1D00
7700
A600
AA90
7780
ENDCHAR
STARTCHAR Aogonek
ENCODING 260
SWIDTH 786 0
DWIDTH 7 0
BBX 9 12 0 -3
BITMAP
02FD00
0A5400
282800
343400
703400
707000
70B000
75F640
2E2D00
002400
003000
002D00
ENDCHAR
STARTCHAR aogonek
ENCODING 261
SWIDTH 470 0
DWIDTH 4 0
BBX 6 8 0 -3
BITMAP
1D00
7700
A600
AA90
7B80
0A00
0900
0740
ENDCHAR
STARTCHAR Cacute
ENCODING 262
SWIDTH 686 0
DWIDTH 6 0
BBX 8 12 0 0
BITMAP
0004
0038
0090
07E0
1D74
3434
7010
7000
7000
7400
2959
0BE4
ENDCHAR
STARTCHAR cacute
ENCODING 263
SWIDTH 368 0
DWIDTH 3 0
BBX 5 9 0 0
BITMAP
0300
0A00
0800
0000
2C00
6900
9000
A640
3D00
ENDCHAR
STARTCHAR Ccircumflex
ENCODING 264
SWIDTH 686 0
DWIDTH 6 0
BBX 8 12 0 0
BITMAP
00D0
02A0
0320
07E0
1D74
3434
7010
7000
7000
7400
2959
0BE4
ENDCHAR
STARTCHAR ccircumflex
ENCODING 265
SWIDTH 368 0
DWIDTH 3 0
BBX 5 10 0 0
BITMAP
0400
1D00
2600
2200
0000
2C00
6900
9000
A640
3D00
ENDCHAR
STARTCHAR Cdotaccent
ENCODING 266
SWIDTH 686 0
DWIDTH 6 0
BBX 8 10 0 0
BITMAP
01C0
07E0
1D74
3434
7010
7000
7000
7400
2959
0BE4
ENDCHAR
STARTCHAR cdotaccent
ENCODING 267
SWIDTH 368 0
DWIDTH 3 0
BBX 5 7 0 0
BITMAP
1C00
0000
2C00
6900
9000
A640
3D00
ENDCHAR
STARTCHAR Ccaron
ENCODING 268
SWIDTH 686 0
DWIDTH 6 0
BBX 8 12 0 0
BITMAP
0110
0260
01D0
07E0
1D74
3434
7010
7000
7000
7400
2959
0BE4
ENDCHAR
STARTCHAR ccaron
ENCODING 269
SWIDTH 368 0
DWIDTH 3 0
BBX 5 10 0 0
BITMAP
1100
2700
1A00
1C00
0000
2C00
6900
9000
A640
3D00
ENDCHAR
STARTCHAR Dcaron
ENCODING 270
SWIDTH 836 0
DWIDTH 8 0
BBX 8 12 0 0
BITMAP
0110
03A0
0280
1BE0
B578
081D
1C0D
280D
281C
3428
35B4
2F90
ENDCHAR
STARTCHAR dcaron
ENCODING 271
SWIDTH 470 0
DWIDTH 4 0
BBX 6 9 0 0
BITMAP
0180
02B0
0260
0300
1F00
7600
A600
AA90
7780
ENDCHAR
STARTCHAR Dcroat
ENCODING 272
SWIDTH 821 0
DWIDTH 7 0
BBX 8 9 0 0
BITMAP
0BE0
0D78
1C1C
180D
BF4C
381C
3428
35B0
3F80
ENDCHAR
STARTCHAR dcroat
ENCODING 273
SWIDTH 470 0
DWIDTH 4 0
BBX 6 9 0 0
BITMAP
0180
0280
1F80
0340
1F00
7700
A600
AA90
7780
ENDCHAR
STARTCHAR Emacron
ENCODING 274
SWIDTH 686 0
DWIDTH 6 0
BBX 8 10 0 0
BITMAP
03E0
0BE0
2D74
2824
2810
1F40
7500
A000
B459
2FE4
ENDCHAR
STARTCHAR emacron
ENCODING 275
SWIDTH 393 0
DWIDTH 4 0
BBX 5 7 0 0
BITMAP
3E00
0000
2D00
6900
A840
B680
2E00
ENDCHAR
STARTCHAR Ebreve
ENCODING 276
SWIDTH 686 0
DWIDTH 6 0
BBX 8 11 0 0
BITMAP
0620
03E0
0BE0
2D74
2824
2810
1F40
7500
A000
B459
2FE4
ENDCHAR
STARTCHAR ebreve
ENCODING 277
SWIDTH 393 0
DWIDTH 4 0
BBX 5 8 0 0
BITMAP
7240
2E00
0000
2D00
6900
A840
B680
2E00
ENDCHAR
STARTCHAR Edotaccent
ENCODING 278
SWIDTH 686 0
DWIDTH 6 0
BBX 8 10 0 0
BITMAP
01C0
0BE0
2D74
2824
2810
1F40
7500
A000
B459
2FE4
ENDCHAR
STARTCHAR edotaccent
ENCODING 279
SWIDTH 393 0
DWIDTH 4 0
BBX 5 7 0 0
BITMAP
1C00
0000
2D00
6900
A840
B680
2E00
ENDCHAR
STARTCHAR Eogonek
ENCODING 280
SWIDTH 686 0
DWIDTH 6 0
BBX 8 12 0 -3
BITMAP
0BE0
2D74
2824
2810
1F40
7500
A000
B459
2FF8
0240
0300
02D0
ENDCHAR
STARTCHAR eogonek
ENCODING 281
SWIDTH 393 0
DWIDTH 4 0
BBX 5 8 0 -3
BITMAP
2D00
6900
AD00
B580
7F00
1800
2400
1E00
ENDCHAR
STARTCHAR Ecaron
ENCODING 282
SWIDTH 686 0
DWIDTH 6 0
BBX 8 12 0 0
BITMAP
0110
0260
01C0
0BE0
2D74
2824
2810
1F40
7500
A000
B459
2FE4
ENDCHAR
STARTCHAR ecaron
ENCODING 283
SWIDTH 393 0
DWIDTH 4 0
BBX 5 10 0 0
BITMAP
1100
2700
1A00
1C00
0000
2D00
6900
A840
B680
2E00
ENDCHAR
STARTCHAR Gcircumflex
ENCODING 284
SWIDTH 811 0
DWIDTH 7 0
BBX 9 17 0 -5
BITMAP
00D000
02A000
033000
06E000
1D7400
342400
701000
700000
70B800
742800
296B40
0BFD00
007400
00B000
026000
039000
028000
ENDCHAR
STARTCHAR gcircumflex
ENCODING 285
SWIDTH 479 0
DWIDTH 4 0
BBX 6 15 0 -5
BITMAP
0100
0B00
1A00
2640
0000
1D00
7600
A600
AAD0
7F40
1D00
2C00
9800
E400
A000
ENDCHAR
STARTCHAR Gbreve
ENCODING 286
SWIDTH 811 0
DWIDTH 7 0
BBX 9 16 0 -5
BITMAP
021400
02F000
06E000
1D7400
342400
701000
700000
70B800
742800
296B40
0BFD00
007400
00B000
026000
039000
028000
ENDCHAR
STARTCHAR gbreve
ENCODING 287
SWIDTH 479 0
DWIDTH 4 0
BBX 6 14 0 -5
BITMAP
1040
3580
1F40
0000
1D00
7600
A600
AAD0
7F40
1D00
2C00
9800
E400
A000
ENDCHAR
STARTCHAR Gdotaccent
ENCODING 288
SWIDTH 811 0
DWIDTH 7 0
BBX 9 15 0 -5
BITMAP
00D000
06E000
1D7400
342400
701000
700000
70B800
742800
296B40
0BFD00
007400
00B000
026000
039000
028000
ENDCHAR
STARTCHAR gdotaccent
ENCODING 289
SWIDTH 479 0
DWIDTH 4 0
BBX 6 12 0 -5
BITMAP
0900
0000
1D00
7600
A600
AAD0
7F40
1D00
2C00
9800
E400
A000
ENDCHAR
STARTCHAR uni0122
ENCODING 290
SWIDTH 811 0
DWIDTH 7 0
BBX 9 14 0 -5
BITMAP
06E000
1D7400
342400
701000
700000
70B800
742800
296B40
0BFD00
007400
0CB000
0A6000
039000
028000
ENDCHAR
STARTCHAR uni0123
ENCODING 291
SWIDTH 479 0
DWIDTH 4 0
BBX 6 14 0 -5
BITMAP
0500
0900
0500
0000
1D00
7600
A600
AAD0
7F40
1D00
2C00
9800
E400
A000
ENDCHAR
STARTCHAR Hcircumflex
ENCODING 292
SWIDTH 873 0
DWIDTH 8 0
BBX 9 12 0 0
BITMAP
00A000
01F000
026B40
2D0E80
991940
492A40
0D2E00
3FF800
1D3400
1C3440
282980
241F40
ENDCHAR
STARTCHAR hcircumflex
ENCODING 293
SWIDTH 502 0
DWIDTH 5 0
BBX 6 13 0 0
BITMAP
0700
0F40
1940
0A00
1B00
3600
3500
7800
7B00
6B00
7710
B760
6380
ENDCHAR
STARTCHAR Hbar
ENCODING 294
SWIDTH 856 0
DWIDTH 8 0
BBX 8 9 0 0
BITMAP
0C0C
3FFE
1C1C
281C
7FFE
2828
3424
3434
3034
ENDCHAR
STARTCHAR hbar
ENCODING 295
SWIDTH 502 0
DWIDTH 5 0
BBX 6 9 0 0
BITMAP
1800
2800
7F00
3400
7700
6B00
7710
7760
6380
ENDCHAR
STARTCHAR Itilde
ENCODING 296
SWIDTH 495 0
DWIDTH 4 0
BBX 5 11 0 0
BITMAP
1D80
2680
3FC0
0E00
0D00
0D00
1C00
1C00
1800
2800
FF00
ENDCHAR
STARTCHAR itilde
ENCODING 297
SWIDTH 246 0
DWIDTH 2 0
BBX 5 8 -1 0
BITMAP
2940
6B00
0000
0800
1800
2800
2A40
1D00
ENDCHAR
STARTCHAR Imacron
ENCODING 298
SWIDTH 495 0
DWIDTH 4 0
BBX 5 10 0 0
BITMAP
1F40
3FC0
0E00
0D00
0D00
1C00
1C00
1800
2800
FF00
ENDCHAR
STARTCHAR imacron
ENCODING 299
SWIDTH 246 0
DWIDTH 2 0
BBX 4 7 0 0
BITMAP
BC
00
20
60
A0
A9
74
ENDCHAR
STARTCHAR Ibreve
ENCODING 300
SWIDTH 495 0
DWIDTH 4 0
BBX 5 11 0 0
BITMAP
1480
1F80
3FC0
0E00
0D00
0D00
1C00
1C00
1800
2800
FF00
ENDCHAR
STARTCHAR ibreve
ENCODING 301
SWIDTH 246 0
DWIDTH 2 0
BBX 4 9 0 0
BITMAP
40
C9
B8
00
20
60
A0
A9
74
ENDCHAR
STARTCHAR Iogonek
ENCODING 302
SWIDTH 495 0
DWIDTH 4 0
BBX 5 12 0 -3
BITMAP
3FC0
0E00
0D00
0D00
1C00
1C00
1800
2800
FF00
3000
3000
2D00
ENDCHAR
STARTCHAR iogonek
ENCODING 303
SWIDTH 246 0
DWIDTH 2 0
BBX 4 10 0 -3
BITMAP
34
00
20
60
A0
A9
78
60
90
74
ENDCHAR
STARTCHAR Idotaccent
ENCODING 304
SWIDTH 495 0
DWIDTH 4 0
BBX 5 10 0 0
BITMAP
0600
3FC0
0E00
0D00
0D00
1C00
1C00
1800
2800
FF00
ENDCHAR
STARTCHAR dotlessi
ENCODING 305
SWIDTH 246 0
DWIDTH 2 0
BBX 4 5 0 0
BITMAP
20
60
A0
A9
74
ENDCHAR
STARTCHAR Jcircumflex
ENCODING 308
SWIDTH 743 0
DWIDTH 7 0
BBX 7 13 0 -1
BITMAP
01C0
03D0
0650
1BF8
3538
6034
2030
00B0
07B0
0DA0
2890
29C0
1F40
ENDCHAR
STARTCHAR jcircumflex
ENCODING 309
SWIDTH 254 0
DWIDTH 2 0
BBX 5 15 -2 -5
BITMAP
0100
0380
0980
0880
0000
0600
0600
0600
0AC0
0B40
1D00
2C00
9800
E400
A000
ENDCHAR
STARTCHAR uni0136
ENCODING 310
SWIDTH 937 0
DWIDTH 8 0
BBX 10 12 0 -3
BITMAP
1FC280
75C340
628700
129D00
07F400
03B400
436C10
A70D90
7D0B80
000000
00C000
008000
ENDCHAR
STARTCHAR uni0137
ENCODING 311
SWIDTH 525 0
DWIDTH 5 0
BBX 6 13 0 -3
BITMAP
0A00
1B00
3600
3500
7800
7740
6A80
7750
7A60
6780
1400
2400
1400
ENDCHAR
STARTCHAR kgreenlandic
ENCODING 312
SWIDTH 465 0
DWIDTH 4 0
BBX 6 5 0 0
BITMAP
2740
6E40
B800
BD90
6B40
ENDCHAR
STARTCHAR Lacute
ENCODING 313
SWIDTH 673 0
DWIDTH 6 0
BBX 8 12 -1 0
BITMAP
0001
000A
0028
00B8
039A
070A
0A04
0A00
0A00
0900
7F96
79BD
ENDCHAR
STARTCHAR lacute
ENCODING 314
SWIDTH 326 0
DWIDTH 3 0
BBX 6 13 0 0
BITMAP
0040
01D0
0640
0A00
2A00
3600
3600
6900
6800
7800
7000
6600
2D00
ENDCHAR
STARTCHAR uni013B
ENCODING 315
SWIDTH 673 0
DWIDTH 6 0
BBX 8 12 -1 -3
BITMAP
00B8
039A
070A
0A04
0A00
0A00
0900
7F96
79BD
0000
0240
0200
ENDCHAR
STARTCHAR uni013C
ENCODING 316
SWIDTH 326 0
DWIDTH 3 0
BBX 4 13 0 -3
BITMAP
0A
2A
36
36
69
68
78
70
66
2D
20
30
20
ENDCHAR
STARTCHAR Lcaron
ENCODING 317
SWIDTH 673 0
DWIDTH 6 0
BBX 9 9 -1 0
BITMAP
00B800
039A00
070AC0
0A0580
0A0000
0A0000
090000
7F9600
79BD00
ENDCHAR
STARTCHAR lcaron
ENCODING 318
SWIDTH 237 0
DWIDTH 2 0
BBX 4 9 0 0
BITMAP
24
2B
36
30
70
60
A0
A8
74
ENDCHAR
STARTCHAR Ldot
ENCODING 319
SWIDTH 673 0
DWIDTH 6 0
BBX 8 9 -1 0
BITMAP
00B8
039A
070A
0A04
0A70
0A00
0900
7F96
79BD
ENDCHAR
STARTCHAR ldot
ENCODING 320
SWIDTH 363 0
DWIDTH 3 0
BBX 5 10 0 0
BITMAP
1800
2800
2400
3400
3500
7900
6000
A000
6640
2D00
ENDCHAR
STARTCHAR Lslash
ENCODING 321
SWIDTH 673 0
DWIDTH 6 0
BBX 8 11 -1 0
BITMAP
01BE
0250
00B8
0399
070A
0A05
0A00
0A00
0900
7F96
79BD
ENDCHAR
STARTCHAR lslash
ENCODING 322
SWIDTH 326 0
DWIDTH 3 0
BBX 6 11 0 0
BITMAP
0BD0
2900
0E00
2A00
3200
6600
6800
7800
7000
6600
2D00
ENDCHAR
STARTCHAR Nacute
ENCODING 323
SWIDTH 884 0
DWIDTH 8 0
BBX 9 12 0 0
BITMAP
000400
001D00
006400
2C7C00
9D9D00
4E0D00
0E0D00
0D1C00
1C1C00
1C2800
182D80
180F40
ENDCHAR
STARTCHAR nacute
ENCODING 324
SWIDTH 496 0
DWIDTH 4 0
BBX 6 9 0 0
BITMAP
0240
0300
0500
0000
2700
6F00
B710
B750
6380
ENDCHAR
STARTCHAR uni0145
ENCODING 325
SWIDTH 884 0
DWIDTH 8 0
BBX 9 12 0 -3
BITMAP
2C7C00
9D9D00
4E0D00
0E0D00
0D1C00
1C1C00
1C2800
182D80
180F40
000000
024000
020000
ENDCHAR
STARTCHAR uni0146
ENCODING 326
SWIDTH 496 0
DWIDTH 4 0
BBX 6 8 0 -3
BITMAP
2700
6F00
B710
B750
6380
1400
2400
1400
ENDCHAR
STARTCHAR Ncaron
ENCODING 327
SWIDTH 884 0
DWIDTH 8 0
BBX 9 12 0 0
BITMAP
004400
00E400
00A000
2C7C00
9D9D00
4E0D00
0E0D00
0D1C00
1C1C00
1C2800
182D80
180F40
ENDCHAR
STARTCHAR ncaron
ENCODING 328
SWIDTH 496 0
DWIDTH 4 0
BBX 6 10 0 0
BITMAP
0440
1980
0F00
0900
0000
2700
6F00
B710
B750
6380
ENDCHAR
STARTCHAR napostrophe
ENCODING 329
SWIDTH 496 0
DWIDTH 4 0
BBX 6 9 0 0
BITMAP
8000
C000
8000
0000
2700
6F00
B710
B750
6380
ENDCHAR
STARTCHAR Eng
ENCODING 330
SWIDTH 884 0
DWIDTH 8 0
BBX 9 13 0 -4
BITMAP
2C7C00
9D9D00
4E0D00
0E0D00
0D1C00
1C1C00
1C2800
182980
183F40
003000
006000
189000
0B8000
ENDCHAR
STARTCHAR eng
ENCODING 331
SWIDTH 495 0
DWIDTH 4 0
BBX 6 8 0 -3
BITMAP
2700
6F00
B710
B690
6B80
0900
9C00
7400
ENDCHAR
STARTCHAR Omacron
ENCODING 332
SWIDTH 816 0
DWIDTH 7 0
BBX 7 10 0 0
BITMAP
03E0
07E0
1D78
341C
701C
701C
701C
7028
39B0
1B90
ENDCHAR
STARTCHAR omacron
ENCODING 333
SWIDTH 451 0
DWIDTH 4 0
BBX 6 7 0 0
BITMAP
3E00
0000
2D00
6A00
97D0
A600
3C00
ENDCHAR
STARTCHAR Obreve
ENCODING 334
SWIDTH 816 0
DWIDTH 7 0
BBX 7 11 0 0
BITMAP
0624
03E0
07E0
1D78
341C
701C
701C
701C
7028
39B0
1B90
ENDCHAR
STARTCHAR obreve
ENCODING 335
SWIDTH 451 0
DWIDTH 4 0
BBX 6 8 0 0
BITMAP
6240
2E00
0000
2D00
6A00
97D0
A600
3C00
ENDCHAR
STARTCHAR Ohungarumlaut
ENCODING 336
SWIDTH 816 0
DWIDTH 7 0
BBX 7 12 0 0
BITMAP
0050
01B4
0260
07E0
1D78
341C
701C
701C
701C
7028
39B0
1B90
ENDCHAR
STARTCHAR ohungarumlaut
ENCODING 337
SWIDTH 451 0
DWIDTH 4 0
BBX 6 10 0 0
BITMAP
0500
1E40
2700
2200
0000
2D00
6A00
97D0
A600
3C00
ENDCHAR
STARTCHAR OE
ENCODING 338
SWIDTH 1124 0
DWIDTH 10 0
BBX 11 9 0 0
BITMAP
07E7F8
1D7F00
341E00
701D00
701FF0
701D00
702C00
39BE58
1B96F4
ENDCHAR
STARTCHAR oe
ENCODING 339
SWIDTH 668 0
DWIDTH 6 0
BBX 7 5 0 0
BITMAP
2DE0
6770
9790
AB5C
39F4
ENDCHAR
STARTCHAR Racute
ENCODING 340
SWIDTH 880 0
DWIDTH 8 0
BBX 9 12 0 0
BITMAP
000400
002C00
00A000
06F400
1D6C00
364D00
636800
6BE000
57B000
663440
7A2980
2D0F40
ENDCHAR
STARTCHAR racute
ENCODING 341
SWIDTH 455 0
DWIDTH 4 0
BBX 5 9 0 0
BITMAP
0240
0700
0900
0000
2700
6B40
B7C0
B000
6000
ENDCHAR
STARTCHAR uni0156
ENCODING 342
SWIDTH 880 0
DWIDTH 8 0
BBX 9 12 0 -3
BITMAP
06F400
1D6C00
364D00
636800
6BE000
57B000
663440
7A2980
2D0F40
000000
00C000
008000
ENDCHAR
STARTCHAR uni0157
ENCODING 343
SWIDTH 455 0
DWIDTH 4 0
BBX 5 8 0 -3
BITMAP
2700
6B40
B7C0
B000
6000
5000
9000
8000
ENDCHAR
STARTCHAR Rcaron
ENCODING 344
SWIDTH 880 0
DWIDTH 8 0
BBX 9 12 0 0
BITMAP
011400
01B000
00D000
06F400
1D6C00
364D00
636800
6BE000
57B000
663440
7A2980
2D0F40
ENDCHAR
STARTCHAR rcaron
ENCODING 345
SWIDTH 455 0
DWIDTH 4 0
BBX 5 10 0 0
BITMAP
1440
1A40
1A00
0D00
0000
2700
6B40
B7C0
B000
6000
ENDCHAR
STARTCHAR Sacute
ENCODING 346
SWIDTH 693 0
DWIDTH 6 0
BBX 7 12 0 0
BITMAP
0010
00B0
0180
0BD0
2970
3434
3810
0B80
01E0
9070
A5A0
2F80
ENDCHAR
STARTCHAR sacute
ENCODING 347
SWIDTH 427 0
DWIDTH 4 0
BBX 5 9 0 0
BITMAP
0300
0600
0800
0000
1800
2800
6D40
9EC0
6F40
ENDCHAR
STARTCHAR Scircumflex
ENCODING 348
SWIDTH 693 0
DWIDTH 6 0
BBX 7 12 0 0
BITMAP
0280
07D0
0990
0BD0
2970
3434
3810
0B80
01E0
9070
A5A0
2F80
ENDCHAR
STARTCHAR scircumflex
ENCODING 349
SWIDTH 427 0
DWIDTH 4 0
BBX 5 10 0 0
BITMAP
0400
1E00
2600
2200
0000
1800
2800
6D40
9EC0
6F40
ENDCHAR
STARTCHAR Scedilla
ENCODING 350
SWIDTH 693 0
DWIDTH 6 0
BBX 7 12 0 -3
BITMAP
0BD0
2970
3434
3910
1F80
01E0
9070
A0A0
2F80
0700
0300
2D00
ENDCHAR
STARTCHAR scedilla
ENCODING 351
SWIDTH 427 0
DWIDTH 4 0
BBX 5 8 0 -3
BITMAP
1800
2800
7C00
9980
6F40
1C00
0C00
7800
ENDCHAR
STARTCHAR Scaron
ENCODING 352
SWIDTH 693 0
DWIDTH 6 0
BBX 7 12 0 0
BITMAP
0110
0690
0280
0BD0
2970
3434
3810
0B80
01E0
9070
A5A0
2F80
ENDCHAR
STARTCHAR scaron
ENCODING 353
SWIDTH 427 0
DWIDTH 4 0
BBX 5 10 0 0
BITMAP
1100
2700
1A00
1C00
0000
1800
2800
6D40
9EC0
6F40
ENDCHAR
STARTCHAR uni0162
ENCODING 354
SWIDTH 697 0
DWIDTH 6 0
BBX 8 11 0 -2
BITMAP
1BFF
65C0
9280
5280
0340
0340
0300
0700
0B00
0240
1F00
ENDCHAR
STARTCHAR uni0163
ENCODING 355
SWIDTH 393 0
DWIDTH 4 0
BBX 5 12 0 -3
BITMAP
0A00
1B00
2600
3900
FF00
7000
7000
3180
2F40
2C00
0800
7800
ENDCHAR
STARTCHAR Tcaron
ENCODING 356
SWIDTH 697 0
DWIDTH 6 0
BBX 8 12 0 0
BITMAP
0110
01B0
00D0
1BFF
65C0
9280
5280
0340
0340
0340
0700
0700
ENDCHAR
STARTCHAR tcaron
ENCODING 357
SWIDTH 343 0
DWIDTH 3 0
BBX 4 8 0 0
BITMAP
1B
26
34
BD
70
60
76
2D
ENDCHAR
STARTCHAR Tbar
ENCODING 358
SWIDTH 697 0
DWIDTH 6 0
BBX 8 9 0 0
BITMAP
1BFF
65C0
9280
5280
1FF0
0340
0340
0700
0700
ENDCHAR
STARTCHAR tbar
ENCODING 359
SWIDTH 343 0
DWIDTH 3 0
BBX 4 8 0 0
BITMAP
18
24
34
BD
FC
61
76
2D
ENDCHAR
STARTCHAR Utilde
ENCODING 360
SWIDTH 890 0
DWIDTH 8 0
BBX 9 11 0 0
BITMAP
01D800
027400
2D0900
9A0D00
490D00
0D1D00
0C1C00
1C2C00
186C00
1D9DC0
0F4F40
ENDCHAR
STARTCHAR utilde
ENCODING 361
SWIDTH 462 0
DWIDTH 4 0
BBX 6 8 0 0
BITMAP
2980
2740
0000
2200
6600
AA00
AE90
7740
ENDCHAR
STARTCHAR Umacron
ENCODING 362
SWIDTH 890 0
DWIDTH 8 0
BBX 9 10 0 0
BITMAP
01F400
2D0900
9A0D00
490D00
0D1D00
0C1C00
1C2C00
186C00
1D9DC0
0F4F40
ENDCHAR
STARTCHAR umacron
ENCODING 363
SWIDTH 462 0
DWIDTH 4 0
BBX 6 7 0 0
BITMAP
2F00
0000
2200
6600
AA00
AE90
7740
ENDCHAR
STARTCHAR Ubreve
ENCODING 364
SWIDTH 890 0
DWIDTH 8 0
BBX 9 11 0 0
BITMAP
025800
01F400
2D0900
9A0D00
490D00
0D1D00
0C1C00
1C2C00
186C00
1D9DC0
0F4F40
ENDCHAR
STARTCHAR ubreve
ENCODING 365
SWIDTH 462 0
DWIDTH 4 0
BBX 6 9 0 0
BITMAP
1000
3680
2F00
0000
2200
6600
AA00
AE90
7740
ENDCHAR
STARTCHAR Uring
ENCODING 366
SWIDTH 890 0
DWIDTH 8 0
BBX 9 12 0 0
BITMAP
00A000
00A400
00F000
2D0900
9A0D00
490D00
0D1D00
0C1C00
1C2C00
186C00
1D9DC0
0F4F40
ENDCHAR
STARTCHAR uring
ENCODING 367
SWIDTH 462 0
DWIDTH 4 0
BBX 6 9 0 0
BITMAP
0E00
1B00
1E00
0000
2200
6600
AA00
AE90
7740
ENDCHAR
STARTCHAR Uhungarumlaut
ENCODING 368
SWIDTH 890 0
DWIDTH 8 0
BBX 9 12 0 0
BITMAP
004400
00D800
01A400
2D0900
9A0D00
490D00
0D1D00
0C1C00
1C2C00
186C00
1D9DC0
0F4F40
ENDCHAR
STARTCHAR uhungarumlaut
ENCODING 369
SWIDTH 462 0
DWIDTH 4 0
BBX 6 10 0 0
BITMAP
0440
0E80
1A40
1600
0000
2200
6600
AA00
AE90
7740
ENDCHAR
STARTCHAR Uogonek
ENCODING 370
SWIDTH 890 0
DWIDTH 8 0
BBX 9 12 0 -3
BITMAP
2D0900
9A0D00
490D00
0D0D00
0C1C00
1C2C00
182C00
1D9D80
0F4F80
000A00
000900
000780
ENDCHAR
STARTCHAR uogonek
ENCODING 371
SWIDTH 462 0
DWIDTH 4 0
BBX 6 8 0 -3
BITMAP
2200
6600
AA00
AE90
7780
0A00
0900
0740
ENDCHAR
STARTCHAR Wcircumflex
ENCODING 372
SWIDTH 1217 0
DWIDTH 11 0
BBX 12 12 1 0
BITMAP
007400
00A800
00C800
A061E0
A0A274
90A270
D0E1F0
D1E0BD
D2A0D0
A36180
BA3B00
382D00
ENDCHAR
STARTCHAR wcircumflex
ENCODING 373
SWIDTH 700 0
DWIDTH 6 0
BBX 8 10 0 0
BITMAP
0100
0780
0980
0880
0000
5630
AA70
AF7D
7BD0
7740
ENDCHAR
STARTCHAR Ycircumflex
ENCODING 374
SWIDTH 851 0
DWIDTH 8 0
BBX 9 15 0 -3
BITMAP
007000
00F400
019400
2D0900
9A0D00
490D00
0D1D00
0D1C00
1C2C00
1C6C00
0BAE80
01F800
062400
097000
0BD000
ENDCHAR
STARTCHAR ycircumflex
ENCODING 375
SWIDTH 479 0
DWIDTH 4 0
BBX 5 15 0 -5
BITMAP
0500
0E00
1B00
2200
0000
2300
6600
AA00
AEC0
7B40
1D00
6C00
9800
E400
A000
ENDCHAR
STARTCHAR Ydieresis
ENCODING 376
SWIDTH 851 0
DWIDTH 8 0
BBX 9 13 0 -3
BITMAP
019800
2D0900
9A0D00
490D00
0D1D00
0D1C00
1C2C00
1C6C00
0BAE80
01F800
062400
097000
0BD000
ENDCHAR
STARTCHAR Zacute
ENCODING 377
SWIDTH 721 0
DWIDTH 6 0
BBX 8 12 0 0
BITMAP
0010
0074
0090
1BE8
7478
6070
10D0
02C0
0740
0A00
BF5A
B6F8
ENDCHAR
STARTCHAR zacute
ENCODING 378
SWIDTH 445 0
DWIDTH 4 0
BBX 5 9 0 0
BITMAP
0200
0600
0800
0000
7F40
1E00
7440
75C0
2E40
ENDCHAR
STARTCHAR Zdotaccent
ENCODING 379
SWIDTH 721 0
DWIDTH 6 0
BBX 8 10 0 0
BITMAP
0180
1BE8
7478
6070
10D0
02C0
0740
0A00
BF5A
B6F8
ENDCHAR
STARTCHAR zdotaccent
ENCODING 380
SWIDTH 445 0
DWIDTH 4 0
BBX 5 7 0 0
BITMAP
0D00
0000
7F40
1E00
7440
75C0
2E40
ENDCHAR
STARTCHAR Zcaron
ENCODING 381
SWIDTH 721 0
DWIDTH 6 0
BBX 8 12 0 0
BITMAP
0110
0360
0180
1BE8
7478
6070
10D0
02C0
0740
0A00
BF5A
B6F8
ENDCHAR
STARTCHAR zcaron
ENCODING 382
SWIDTH 445 0
DWIDTH 4 0
BBX 5 10 0 0
BITMAP
1040
1A40
1A00
0D00
0000
7F40
1E00
7440
75C0
2E40
ENDCHAR
STARTCHAR uni018F
ENCODING 399
SWIDTH 792 0
DWIDTH 7 0
BBX 7 9 0 0
BITMAP
0BE0
2974
0028
001C
7FFC
7028
7034
39B0
1B80
ENDCHAR
STARTCHAR florin
ENCODING 402
SWIDTH 478 0
DWIDTH 4 0
BBX 6 11 -1 -3
BITMAP
01E0
0340
0700
2FD0
0600
0600
0A00
0900
0900
0D00
7800
ENDCHAR
STARTCHAR Ohorn
ENCODING 416
SWIDTH 816 0
DWIDTH 7 0
BBX 8 11 0 0
BITMAP
0001
000A
07FD
1D78
341C
701C
701C
701C
7028
39B0
1B90
ENDCHAR
STARTCHAR ohorn
ENCODING 417
SWIDTH 451 0
DWIDTH 4 0
BBX 6 7 0 0
BITMAP
0040
0240
2F00
6A00
97D0
A600
3C00
ENDCHAR
STARTCHAR Uhorn
ENCODING 431
SWIDTH 890 0
DWIDTH 8 0
BBX 9 11 0 0
BITMAP
000040
0001C0
2D0B40
9A0E00
490D00
0D1D00
0C1C00
1C2C00
186C00
1D9DC0
0F4F40
ENDCHAR
STARTCHAR uhorn
ENCODING 432
SWIDTH 512 0
DWIDTH 5 0
BBX 6 7 0 0
BITMAP
0040
00C0
2380
6600
AA10
AE60
7780
ENDCHAR
STARTCHAR uni01C4
ENCODING 452
SWIDTH 1531 0
DWIDTH 14 0
BBX 15 12 0 0
BITMAP
00000440
00000980
00000740
1BD06FE0
1578D5B0
181CC0D0
281C8280
241C0740
341C0E00
34382C00
75B1FE58
3F81E6E0
ENDCHAR
STARTCHAR uni01C5
ENCODING 453
SWIDTH 1191 0
DWIDTH 11 0
BBX 11 10 0 0
BITMAP
000044
1BD09C
157868
181C30
281C00
241EF8
341C74
3439D0
75B280
3F83FC
ENDCHAR
STARTCHAR uni01C6
ENCODING 454
SWIDTH 895 0
DWIDTH 8 0
BBX 9 9 0 0
BITMAP
019540
025B00
024E00
030400
1F7F40
761E00
A63400
AAB5C0
776E40
ENDCHAR
STARTCHAR uni01C7
ENCODING 455
SWIDTH 1276 0
DWIDTH 11 0
BBX 13 10 -1 -1
BITMAP
01B86F40
039DD740
070D8300
0A048700
0A000B00
0A007A00
0901C900
7F964C00
79BF6800
0002F000
ENDCHAR
STARTCHAR uni01C8
ENCODING 456
SWIDTH 927 0
DWIDTH 8 0
BBX 11 14 -1 -5
BITMAP
00B800
039A00
070AC0
0A0400
0A00C0
0A01C0
090180
7F96A4
79BFD0
000740
000B00
002700
003A00
002C00
ENDCHAR
STARTCHAR uni01C9
ENCODING 457
SWIDTH 610 0
DWIDTH 5 0
BBX 7 15 0 -5
BITMAP
0A00
2A00
3600
36D0
6900
68C0
78C0
71C0
67A4
2ED0
0340
0B40
2700
2A00
2C00
ENDCHAR
STARTCHAR uni01CA
ENCODING 458
SWIDTH 1497 0
DWIDTH 13 0
BBX 14 10 0 -1
BITMAP
2C7C2FD0
9D9DA5D0
4E0DD1C0
0E0D91C0
0D1C0680
1C1C1E80
1C287240
182DD300
180FDA00
0000BC00
ENDCHAR
STARTCHAR uni01CB
ENCODING 459
SWIDTH 1138 0
DWIDTH 10 0
BBX 11 14 0 -5
BITMAP
2C7C00
9D9D00
4E0D70
0E0D00
0D1C60
1C1C60
1C2860
182DEC
180FF4
0001D0
0006C0
000980
000E40
000A00
ENDCHAR
STARTCHAR uni01CC
ENCODING 460
SWIDTH 750 0
DWIDTH 7 0
BBX 8 12 0 -5
BITMAP
0028
0000
2724
6F34
B731
B7BA
63B8
00A0
02A0
0690
0AC0
0740
ENDCHAR
STARTCHAR Gcaron
ENCODING 486
SWIDTH 811 0
DWIDTH 7 0
BBX 9 17 0 -5
BITMAP
011000
027000
00D000
06E000
1D7400
342400
701000
700000
70B800
742800
296B40
0BFD00
007400
00B000
026000
039000
028000
ENDCHAR
STARTCHAR gcaron
ENCODING 487
SWIDTH 479 0
DWIDTH 4 0
BBX 6 15 0 -5
BITMAP
0440
1A40
0F00
0900
0000
1D00
7600
A600
AAD0
7F40
1D00
2C00
9800
E400
A000
ENDCHAR
STARTCHAR uni01EA
ENCODING 490
SWIDTH 816 0
DWIDTH 7 0
BBX 7 12 0 -3
BITMAP
06E0
1D78
241C
301C
701C
701C
7028
3874
1FD0
0300
0300
02C0
ENDCHAR
STARTCHAR uni01EB
ENCODING 491
SWIDTH 451 0
DWIDTH 4 0
BBX 6 8 0 -3
BITMAP
2D00
6A00
97D0
A600
7D00
2400
3000
2D00
ENDCHAR
STARTCHAR Aringacute
ENCODING 506
SWIDTH 786 0
DWIDTH 7 0
BBX 9 14 0 0
BITMAP
000180
007600
009800
007400
000000
02FD00
0B5400
282800
343400
703400
707000
70B000
75F600
2E2D00
ENDCHAR
STARTCHAR aringacute
ENCODING 507
SWIDTH 470 0
DWIDTH 4 0
BBX 6 10 0 0
BITMAP
0010
0A50
1A00
0E00
0000
1D00
7700
A600
AA90
7780
ENDCHAR
STARTCHAR AEacute
ENCODING 508
SWIDTH 1015 0
DWIDTH 9 0
BBX 11 12 0 0
BITMAP
000040
000380
000900
02DFE0
0F5C00
282800
343400
703FC0
707400
70B000
75B964
1E5BD0
ENDCHAR
STARTCHAR aeacute
ENCODING 509
SWIDTH 653 0
DWIDTH 6 0
BBX 7 9 0 0
BITMAP
0090
00D0
0140
0000
1EE0
7760
A794
AB5C
7AE4
ENDCHAR
STARTCHAR Oslashacute
ENCODING 510
SWIDTH 816 0
DWIDTH 7 0
BBX 7 13 0 -1
BITMAP
0010
00A0
02D0
07E0
1DF8
349C
718C
725C
721C
7328
3A70
1F90
0900
ENDCHAR
STARTCHAR oslashacute
ENCODING 511
SWIDTH 459 0
DWIDTH 4 0
BBX 6 11 0 -2
BITMAP
0C00
1800
2400
0800
2D00
6F40
ABD0
BA00
7D00
2000
1000
ENDCHAR
STARTCHAR uni0200
ENCODING 512
SWIDTH 786 0
DWIDTH 7 0
BBX 8 12 0 0
BITMAP
0050
01A4
0094
02FD
0B54
2828
3434
7034
7070
70B0
75F6
2E2D
ENDCHAR
STARTCHAR uni0201
ENCODING 513
SWIDTH 470 0
DWIDTH 4 0
BBX 6 10 0 0
BITMAP
1400
7900
3600
1600
0000
1D00
7700
A600
AA90
7780
ENDCHAR
STARTCHAR uni0202
ENCODING 514
SWIDTH 786 0
DWIDTH 7 0
BBX 8 11 0 0
BITMAP
00B8
0199
02FD
0B54
2828
3434
7034
7070
70B0
75F6
2E2D
ENDCHAR
STARTCHAR uni0203
ENCODING 515
SWIDTH 470 0
DWIDTH 4 0
BBX 6 8 0 0
BITMAP
1F00
2680
1040
1D00
7700
A600
AA90
7780
ENDCHAR
STARTCHAR uni0204
ENCODING 516
SWIDTH 686 0
DWIDTH 6 0
BBX 8 12 0 0
BITMAP
0440
06D0
0250
0BE0
2D74
2824
2810
1F40
7500
A000
B459
2FE4
ENDCHAR
STARTCHAR uni0205
ENCODING 517
SWIDTH 393 0
DWIDTH 4 0
BBX 5 10 0 0
BITMAP
4400
AC00
6900
2500
0000
2D00
6900
A840
B680
2E00
ENDCHAR
STARTCHAR uni0206
ENCODING 518
SWIDTH 686 0
DWIDTH 6 0
BBX 8 11 0 0
BITMAP
02E0
0674
0BE0
2D74
2824
2810
1F40
7500
A000
B459
2FE4
ENDCHAR
STARTCHAR uni0207
ENCODING 519
SWIDTH 393 0
DWIDTH 4 0
BBX 5 8 0 0
BITMAP
2E00
7740
1100
2D00
6900
A840
B680
2E00
ENDCHAR
STARTCHAR uni0208
ENCODING 520
SWIDTH 495 0
DWIDTH 4 0
BBX 5 12 0 0
BITMAP
1100
2700
1A40
3FC0
0E00
0D00
0D00
1C00
1C00
1800
2800
FF00
ENDCHAR
STARTCHAR uni0209
ENCODING 521
SWIDTH 246 0
DWIDTH 2 0
BBX 5 10 -1 0
BITMAP
4400
AD00
6900
2200
0000
0800
1800
2800
2A40
1D00
ENDCHAR
STARTCHAR uni020A
ENCODING 522
SWIDTH 495 0
DWIDTH 4 0
BBX 5 11 0 0
BITMAP
0B80
29C0
3FC0
0E00
0D00
0D00
1C00
1C00
1800
2800
FF00
ENDCHAR
STARTCHAR uni020B
ENCODING 523
SWIDTH 246 0
DWIDTH 2 0
BBX 4 8 0 0
BITMAP
78
D9
45
20
60
A0
A9
74
ENDCHAR
STARTCHAR uni020C
ENCODING 524
SWIDTH 816 0
DWIDTH 7 0
BBX 7 12 0 0
BITMAP
0140
0690
0260
07E0
1D78
341C
701C
701C
701C
7028
39B0
1B90
ENDCHAR
STARTCHAR uni020D
ENCODING 525
SWIDTH 451 0
DWIDTH 4 0
BBX 6 10 0 0
BITMAP
4400
AC00
6900
2500
0000
2D00
6A00
97D0
A600
3C00
ENDCHAR
STARTCHAR uni020E
ENCODING 526
SWIDTH 816 0
DWIDTH 7 0
BBX 7 11 0 0
BITMAP
02E0
0664
07E0
1D78
341C
701C
701C
701C
7028
39B0
1B90
ENDCHAR
STARTCHAR uni020F
ENCODING 527
SWIDTH 451 0
DWIDTH 4 0
BBX 6 8 0 0
BITMAP
2E00
7740
5100
2D00
6A00
97D0
A600
3C00
ENDCHAR
STARTCHAR uni0210
ENCODING 528
SWIDTH 880 0
DWIDTH 8 0
BBX 9 12 0 0
BITMAP
015000
036000
026000
06F400
1D6C00
364D00
636800
6BE000
57B000
663440
7A2980
2D0F40
ENDCHAR
STARTCHAR uni0211
ENCODING 529
SWIDTH 455 0
DWIDTH 4 0
BBX 5 10 0 0
BITMAP
1400
6900
3600
2200
0000
2700
6B40
B7C0
B000
6000
ENDCHAR
STARTCHAR uni0212
ENCODING 530
SWIDTH 880 0
DWIDTH 8 0
BBX 9 11 0 0
BITMAP
01E400
036800
06F400
1D6C00
364D00
636800
6BE000
57B000
663440
7A2980
2D0F40
ENDCHAR
STARTCHAR uni0213
ENCODING 531
SWIDTH 455 0
DWIDTH 4 0
BBX 5 8 0 0
BITMAP
1E00
3640
1140
2700
6B40
B7C0
B000
6000
ENDCHAR
STARTCHAR uni0214
ENCODING 532
SWIDTH 890 0
DWIDTH 8 0
BBX 9 12 0 0
BITMAP
011000
036000
016000
2D0900
9A0D00
490D00
0D1D00
0C1C00
1C2C00
186C00
1D9DC0
0F4F40
ENDCHAR
STARTCHAR uni0215
ENCODING 533
SWIDTH 462 0
DWIDTH 4 0
BBX 6 10 0 0
BITMAP
1400
6900
3600
2200
0000
2200
6600
AA00
AE90
7740
ENDCHAR
STARTCHAR uni0216
ENCODING 534
SWIDTH 890 0
DWIDTH 8 0
BBX 9 11 0 0
BITMAP
01F400
025800
2D0900
9A0D00
490D00
0D1D00
0C1C00
1C2C00
186C00
1D9DC0
0F4F40
ENDCHAR
STARTCHAR uni0217
ENCODING 535
SWIDTH 462 0
DWIDTH 4 0
BBX 6 8 0 0
BITMAP
1E00
3680
1040
2200
6600
AA00
AE90
7740
ENDCHAR
STARTCHAR uni0218
ENCODING 536
SWIDTH 693 0
DWIDTH 6 0
BBX 7 12 0 -3
BITMAP
0BD0
2970
3434
3810
0B80
01E0
9070
A5A0
2F80
0000
0900
0800
ENDCHAR
STARTCHAR uni0219
ENCODING 537
SWIDTH 427 0
DWIDTH 4 0
BBX 5 8 0 -3
BITMAP
1800
2800
6D40
9EC0
6F40
1400
2400
2000
ENDCHAR
STARTCHAR uni021A
ENCODING 538
SWIDTH 697 0
DWIDTH 6 0
BBX 8 12 0 -3
BITMAP
1BFF
65C0
9280
5280
0340
0340
0340
0700
0700
0000
0600
0500
ENDCHAR
STARTCHAR uni021B
ENCODING 539
SWIDTH 393 0
DWIDTH 4 0
BBX 5 12 0 -3
BITMAP
0A00
1B00
2600
3900
FF00
7000
3000
3580
1E00
1400
1800
1400
ENDCHAR
STARTCHAR uni022A
ENCODING 554
SWIDTH 816 0
DWIDTH 7 0
BBX 7 12 0 0
BITMAP
02F0
0000
0370
07E0
1D78
341C
701C
701C
701C
7028
39B0
1B90
ENDCHAR
STARTCHAR uni022B
ENCODING 555
SWIDTH 451 0
DWIDTH 4 0
BBX 6 9 0 0
BITMAP
2F00
0000
3700
0000
2D00
6A00
97D0
A600
3C00
ENDCHAR
STARTCHAR uni022C
ENCODING 556
SWIDTH 816 0
DWIDTH 7 0
BBX 7 13 0 0
BITMAP
02F0
0000
0394
06B0
07E0
1D78
341C
701C
701C
701C
7028
39B0
1B90
ENDCHAR
STARTCHAR uni022D
ENCODING 557
SWIDTH 451 0
DWIDTH 4 0
BBX 6 9 0 0
BITMAP
2F00
3A40
5B00
0000
2D00
6A00
97D0
A600
3C00
ENDCHAR
STARTCHAR uni0230
ENCODING 560
SWIDTH 816 0
DWIDTH 7 0
BBX 7 12 0 0
BITMAP
02F0
0000
01C0
07E0
1D78
341C
701C
701C
701C
7028
39B0
1B90
ENDCHAR
STARTCHAR uni0231
ENCODING 561
SWIDTH 451 0
DWIDTH 4 0
BBX 6 9 0 0
BITMAP
2F00
0000
1C00
0000
2D00
6A00
97D0
A600
3C00
ENDCHAR
STARTCHAR uni0232
ENCODING 562
SWIDTH 851 0
DWIDTH 8 0
BBX 9 13 0 -3
BITMAP
01F400
2D0900
9A0D00
490D00
0D1D00
0D1C00
1C2C00
1C6C00
0BAE80
01F800
062400
097000
0BD000
ENDCHAR
STARTCHAR uni0233
ENCODING 563
SWIDTH 479 0
DWIDTH 4 0
BBX 5 12 0 -5
BITMAP
2F00
0000
2300
6600
AA00
AEC0
7B40
1D00
6C00
9800
E400
A000
ENDCHAR
STARTCHAR uni0237
ENCODING 567
SWIDTH 254 0
DWIDTH 2 0
BBX 5 10 -2 -5
BITMAP
0600
0600
0600
0AC0
0B40
1D00
2C00
9800
E400
A000
ENDCHAR
STARTCHAR uni0259
ENCODING 601
SWIDTH 458 0
DWIDTH 4 0
BBX 4 5 0 0
BITMAP
7D
1A
7F
AA
7D
ENDCHAR
STARTCHAR uni02BC
ENCODING 700
SWIDTH 600 0
DWIDTH 5 0
BBX 2 3 2 6
BITMAP
50
90
80
ENDCHAR
STARTCHAR circumflex
ENCODING 710
SWIDTH 600 0
DWIDTH 5 0
BBX 3 4 1 6
BITMAP
04
28
6C
98
ENDCHAR
STARTCHAR caron
ENCODING 711
SWIDTH 600 0
DWIDTH 5 0
BBX 4 4 1 6
BITMAP
11
69
2C
24
ENDCHAR
STARTCHAR uni02C9
ENCODING 713
SWIDTH 600 0
DWIDTH 5 0
BBX 3 1 1 6
BITMAP
BC
ENDCHAR
STARTCHAR breve
ENCODING 728
SWIDTH 600 0
DWIDTH 5 0
BBX 4 3 1 6
BITMAP
41
D6
7C
ENDCHAR
STARTCHAR dotaccent
ENCODING 729
SWIDTH 600 0
DWIDTH 5 0
BBX 2 1 2 6
BITMAP
90
ENDCHAR
STARTCHAR ring
ENCODING 730
SWIDTH 600 0
DWIDTH 5 0
BBX 3 3 1 6
BITMAP
28
6C
38
ENDCHAR
STARTCHAR ogonek
ENCODING 731
SWIDTH 600 0
DWIDTH 5 0
BBX 3 3 1 -3
BITMAP
50
90
B4
ENDCHAR
STARTCHAR tilde
ENCODING 732
SWIDTH 600 0
DWIDTH 5 0
BBX 4 2 1 6
BITMAP
A6
9D
ENDCHAR
STARTCHAR hungarumlaut
ENCODING 733
SWIDTH 600 0
DWIDTH 5 0
BBX 4 4 1 6
BITMAP
11
3B
29
58
ENDCHAR
STARTCHAR gravecomb
ENCODING 768
SWIDTH 0 0
DWIDTH 0 0
BBX 3 4 -5 6
BITMAP
10
70
24
08
ENDCHAR
STARTCHAR acutecomb
ENCODING 769
SWIDTH 0 0
DWIDTH 0 0
BBX 2 3 -3 6
BITMAP
20
A0
80
ENDCHAR
STARTCHAR uni0302
ENCODING 770
SWIDTH 0 0
DWIDTH 0 0
BBX 3 4 -4 6
BITMAP
10
74
98
88
ENDCHAR
STARTCHAR tildecomb
ENCODING 771
SWIDTH 0 0
DWIDTH 0 0
BBX 5 2 -5 6
BITMAP
3540
5A00
ENDCHAR
STARTCHAR uni0304
ENCODING 772
SWIDTH 0 0
DWIDTH 0 0
BBX 3 1 -4 6
BITMAP
F8
ENDCHAR
STARTCHAR uni0306
ENCODING 774
SWIDTH 0 0
DWIDTH 0 0
BBX 5 2 -5 6
BITMAP
6240
3E00
ENDCHAR
STARTCHAR uni0307
ENCODING 775
SWIDTH 0 0
DWIDTH 0 0
BBX 2 1 -4 6
BITMAP
70
ENDCHAR
STARTCHAR uni0308
ENCODING 776
SWIDTH 0 0
DWIDTH 0 0
BBX 3 1 -4 6
BITMAP
DC
ENDCHAR
STARTCHAR hookabovecomb
ENCODING 777
SWIDTH 0 0
DWIDTH 0 0
BBX 3 3 -4 6
BITMAP
74
18
34
ENDCHAR
STARTCHAR uni030A
ENCODING 778
SWIDTH 0 0
DWIDTH 0 0
BBX 3 3 -4 6
BITMAP
74
98
B4
ENDCHAR
STARTCHAR uni030B
ENCODING 779
SWIDTH 0 0
DWIDTH 0 0
BBX 4 4 -4 6
BITMAP
14
69
9C
88
ENDCHAR
STARTCHAR uni030C
ENCODING 780
SWIDTH 0 0
DWIDTH 0 0
BBX 3 4 -4 6
BITMAP
44
9C
A8
70
ENDCHAR
STARTCHAR uni030F
ENCODING 783
SWIDTH 0 0
DWIDTH 0 0
BBX 4 4 -5 6
BITMAP
44
AC
69
25
ENDCHAR
STARTCHAR uni0311
ENCODING 785
SWIDTH 0 0
DWIDTH 0 0
BBX 5 3 -5 5
BITMAP
2E00
7740
5100
ENDCHAR
STARTCHAR uni0312
ENCODING 786
SWIDTH 0 0
DWIDTH 0 0
BBX 1 3 -3 6
BITMAP
80
C0
80
ENDCHAR
STARTCHAR uni031B
ENCODING 795
SWIDTH 0 0
DWIDTH 0 0
BBX 2 3 -3 4
BITMAP
10
60
90
ENDCHAR
STARTCHAR dotbelowcomb
ENCODING 803
SWIDTH 0 0
DWIDTH 0 0
BBX 2 1 -4 -2
BITMAP
D0
ENDCHAR
STARTCHAR uni0324
ENCODING 804
SWIDTH 0 0
DWIDTH 0 0
BBX 3 1 -5 -2
BITMAP
DC
ENDCHAR
STARTCHAR uni0326
ENCODING 806
SWIDTH 0 0
DWIDTH 0 0
BBX 1 3 -4 -3
BITMAP
80
C0
80
ENDCHAR
STARTCHAR uni0327
ENCODING 807
SWIDTH 0 0
DWIDTH 0 0
BBX 3 3 -5 -3
BITMAP
74
18
B4
ENDCHAR
STARTCHAR uni0328
ENCODING 808
SWIDTH 0 0
DWIDTH 0 0
BBX 2 3 -4 -3
BITMAP
80
80
F0
ENDCHAR
STARTCHAR uni032E
ENCODING 814
SWIDTH 0 0
DWIDTH 0 0
BBX 5 2 -6 -3
BITMAP
7240
2E00
ENDCHAR
STARTCHAR uni0331
ENCODING 817
SWIDTH 0 0
DWIDTH 0 0
BBX 3 1 -5 -2
BITMAP
BC
ENDCHAR
STARTCHAR uni0394
ENCODING 916
SWIDTH 700 0
DWIDTH 6 0
BBX 6 9 0 0
BITMAP
0240
0340
0A80
0D80
18C0
24C0
3090
6090
BFE0
ENDCHAR
STARTCHAR uni03A9
ENCODING 937
SWIDTH 816 0
DWIDTH 7 0
BBX 7 9 0 0
BITMAP
07E0
1D78
381C
701C
701C
701C
7028
7874
FCFC
ENDCHAR
STARTCHAR uni03BC
ENCODING 956
SWIDTH 462 0
DWIDTH 4 0
BBX 6 8 0 -3
BITMAP
1100
6600
6A00
AE90
B780
9000
9000
9000
ENDCHAR
STARTCHAR pi
ENCODING 960
SWIDTH 496 0
DWIDTH 4 0
BBX 6 5 0 0
BITMAP
BF80
7300
6700
A660
9380
ENDCHAR
STARTCHAR uni0400
ENCODING 1024
SWIDTH 686 0
DWIDTH 6 0
BBX 8 12 0 0
BITMAP
0400
0E00
0240
0BE0
2D74
2824
2810
1F40
7500
A000
B459
2FE4
ENDCHAR
STARTCHAR uni0401
ENCODING 1025
SWIDTH 686 0
DWIDTH 6 0
BBX 8 10 0 0
BITMAP
0360
0BE0
2D74
2824
2810
1F40
7500
A000
B459
2FE4
ENDCHAR
STARTCHAR uni0402
ENCODING 1026
SWIDTH 974 0
DWIDTH 9 0
BBX 10 14 0 -5
BITMAP
1BFF00
65C000
928000
528000
03AE00
03D700
034350
0707E0
070740
001E00
003E00
00AD00
00AC00
00B400
ENDCHAR
STARTCHAR uni0403
ENCODING 1027
SWIDTH 635 0
DWIDTH 6 0
BBX 8 12 0 0
BITMAP
0010
00B0
0180
1BFE
6740
9700
5A00
0A00
0A00
0D00
0D00
0C00
ENDCHAR
STARTCHAR uni0404
ENCODING 1028
SWIDTH 687 0
DWIDTH 6 0
BBX 8 9 0 0
BITMAP
07E0
1D74
3834
7010
7F80
7000
7000
2919
0BE4
ENDCHAR
STARTCHAR uni0405
ENCODING 1029
SWIDTH 693 0
DWIDTH 6 0
BBX 7 9 0 0
BITMAP
0BD0
2970
3434
3810
0B80
01E0
9070
A5A0
2F80
ENDCHAR
STARTCHAR uni0406
ENCODING 1030
SWIDTH 495 0
DWIDTH 4 0
BBX 5 9 0 0
BITMAP
3FC0
0E00
0D00
0D00
1C00
1C00
1800
2800
FF00
ENDCHAR
STARTCHAR uni0407
ENCODING 1031
SWIDTH 495 0
DWIDTH 4 0
BBX 5 10 0 0
BITMAP
1980
3FC0
0E00
0D00
0D00
1C00
1C00
1800
2800
FF00
ENDCHAR
STARTCHAR uni0408
ENCODING 1032
SWIDTH 743 0
DWIDTH 7 0
BBX 7 10 0 -1
BITMAP
1BF8
3538
6034
2030
00B0
07B0
0DA0
2890
29C0
1F40
ENDCHAR
STARTCHAR uni0409
ENCODING 1033
SWIDTH 1158 0
DWIDTH 10 0
BBX 11 9 0 0
BITMAP
003400
007400
00B400
00FBD0
01B970
02B434
432434
DA29A0
780B80
ENDCHAR
STARTCHAR uni040A
ENCODING 1034
SWIDTH 1182 0
DWIDTH 11 0
BBX 11 9 0 0
BITMAP
2D0C00
991C00
491800
0D2FE0
3FF874
1D3428
1C2434
2828B0
240B90
ENDCHAR
STARTCHAR uni040B
ENCODING 1035
SWIDTH 979 0
DWIDTH 9 0
BBX 10 9 0 0
BITMAP
1BFF00
65C000
928000
528000
03AE00
03D700
034300
070760
070380
ENDCHAR
STARTCHAR uni040C
ENCODING 1036
SWIDTH 937 0
DWIDTH 8 0
BBX 10 12 0 0
BITMAP
000100
000B00
001800
1FC280
75C340
628700
129D00
07F400
03B400
436C10
A70D90
7D0B80
ENDCHAR
STARTCHAR uni040D
ENCODING 1037
SWIDTH 890 0
DWIDTH 8 0
BBX 9 12 0 0
BITMAP
050000
074000
018000
2D0900
9A0D00
490D00
0D1D00
0C1C00
1C2C00
186C00
1D9DC0
0F4F40
ENDCHAR
STARTCHAR uni040E
ENCODING 1038
SWIDTH 824 0
DWIDTH 7 0
BBX 9 12 0 -2
BITMAP
011800
2EF900
9D0D00
0D1D00
0D2C00
0D7C00
0B9C00
006F40
02F800
0A2400
097000
0BD000
ENDCHAR
STARTCHAR uni040F
ENCODING 1039
SWIDTH 890 0
DWIDTH 8 0
BBX 9 11 0 -2
BITMAP
2D0900
9A0D00
490D00
0D1D00
0C1C00
1C2C00
186C00
1DDDC0
0F4F40
0A0000
090000
ENDCHAR
STARTCHAR uni0410
ENCODING 1040
SWIDTH 786 0
DWIDTH 7 0
BBX 8 9 0 0
BITMAP
02FD
0B54
2828
3434
7034
7070
70B0
75F6
2E2D
ENDCHAR
STARTCHAR uni0411
ENCODING 1041
SWIDTH 917 0
DWIDTH 8 0
BBX 8 10 0 -1
BITMAP
1BFE
6740
9340
5700
0BFD
0F4B
0A07
0A0B
0A6D
0550
ENDCHAR
STARTCHAR uni0412
ENCODING 1042
SWIDTH 827 0
DWIDTH 7 0
BBX 8 10 0 -1
BITMAP
1BF8
B51E
480A
1C1D
19F4
2868
2828
3974
3F90
1000
ENDCHAR
STARTCHAR uni0413
ENCODING 1043
SWIDTH 635 0
DWIDTH 6 0
BBX 8 9 0 0
BITMAP
1BFE
6740
9700
5A00
0A00
0A00
0D00
0D00
0C00
ENDCHAR
STARTCHAR uni0414
ENCODING 1044
SWIDTH 964 0
DWIDTH 9 0
BBX 9 9 0 0
BITMAP
06F800
195A00
024340
030340
060340
0A0340
7D0700
9F5E00
B9B800
ENDCHAR
STARTCHAR uni0415
ENCODING 1045
SWIDTH 686 0
DWIDTH 6 0
BBX 8 9 0 0
BITMAP
0BE0
2D74
2824
2810
1F40
7500
A000
B459
2FE4
ENDCHAR
STARTCHAR uni0416
ENCODING 1046
SWIDTH 1234 0
DWIDTH 11 0
BBX 12 9 0 0
BITMAP
1E092D
164D75
018CA0
00DDC0
00BF00
02AA80
0729C0
9A24E6
78247D
ENDCHAR
STARTCHAR uni0417
ENCODING 1047
SWIDTH 725 0
DWIDTH 7 0
BBX 6 9 0 0
BITMAP
0BD0
29A0
2460
0090
0BE0
0070
6070
75E0
2F80
ENDCHAR
STARTCHAR uni0418
ENCODING 1048
SWIDTH 890 0
DWIDTH 8 0
BBX 9 9 0 0
BITMAP
2D0900
9A0D00
490D00
0D1D00
0C1C00
1C2C00
186C00
1D9DC0
0F4F40
ENDCHAR
STARTCHAR uni0419
ENCODING 1049
SWIDTH 890 0
DWIDTH 8 0
BBX 9 10 0 0
BITMAP
015800
2EF900
9A0D00
490D00
0D1D00
0C1C00
1C2C00
186C00
1D9DC0
0F4F40
ENDCHAR
STARTCHAR uni041A
ENCODING 1050
SWIDTH 937 0
DWIDTH 8 0
BBX 10 9 0 0
BITMAP
1FC280
75C340
628700
129D00
07F400
03B400
436C10
A70D90
7D0B80
ENDCHAR
STARTCHAR uni041B
ENCODING 1051
SWIDTH 861 0
DWIDTH 8 0
BBX 9 9 0 0
BITMAP
003400
007400
00B400
00F400
01F400
02B400
436440
DA2980
780F00
ENDCHAR
STARTCHAR uni041C
ENCODING 1052
SWIDTH 1133 0
DWIDTH 10 0
BBX 12 9 0 0
BITMAP
00D1C0
01D2C0
01D3C0
02D6C0
02AAC0
036DC0
4679C0
D974D9
7830B4
ENDCHAR
STARTCHAR uni041D
ENCODING 1053
SWIDTH 873 0
DWIDTH 8 0
BBX 9 10 0 0
BITMAP
000740
2D0E80
991940
492A40
0D2E00
3FF800
1D3400
1C3440
282980
241F40
ENDCHAR
STARTCHAR uni041E
ENCODING 1054
SWIDTH 816 0
DWIDTH 7 0
BBX 7 9 0 0
BITMAP
07E0
1D78
341C
701C
701C
701C
7028
39B0
1B90
ENDCHAR
STARTCHAR uni041F
ENCODING 1055
SWIDTH 892 0
DWIDTH 8 0
BBX 9 9 0 0
BITMAP
1BFF80
674A40
970900
570D00
0A0C00
0A1C00
091800
0D1D80
0D0B40
ENDCHAR
STARTCHAR uni0420
ENCODING 1056
SWIDTH 805 0
DWIDTH 7 0
BBX 8 11 0 -2
BITMAP
06F4
0D6C
264D
334D
6368
9FE0
9700
9700
6A00
2D00
0400
ENDCHAR
STARTCHAR uni0421
ENCODING 1057
SWIDTH 686 0
DWIDTH 6 0
BBX 8 9 0 0
BITMAP
07E0
1D74
3434
7010
7000
7000
7400
2959
0BE4
ENDCHAR
STARTCHAR uni0422
ENCODING 1058
SWIDTH 697 0
DWIDTH 6 0
BBX 8 9 0 0
BITMAP
1BFF
65C0
9280
5280
0340
0340
0340
0700
0700
ENDCHAR
STARTCHAR uni0423
ENCODING 1059
SWIDTH 824 0
DWIDTH 7 0
BBX 9 11 0 -2
BITMAP
2D0900
9D0D00
0D1D00
0D2C00
0D7C00
0B9C00
006F40
02F800
0A2400
097000
0BD000
ENDCHAR
STARTCHAR uni0424
ENCODING 1060
SWIDTH 977 0
DWIDTH 9 0
BBX 9 13 0 -3
BITMAP
140000
1FF400
00A000
0BAB00
29F680
70E280
70C280
61C340
63D700
3EFD00
028000
374000
2E0000
ENDCHAR
STARTCHAR uni0425
ENCODING 1061
SWIDTH 712 0
DWIDTH 6 0
BBX 8 9 0 0
BITMAP
7D18
9A74
07A0
0380
0740
0F80
29C0
B0D9
D0B8
ENDCHAR
STARTCHAR uni0426
ENCODING 1062
SWIDTH 890 0
DWIDTH 8 0
BBX 9 12 0 -3
BITMAP
2D0900
9A0D00
490D00
0D0D00
0D1C00
1C2C00
183C00
1D9D80
0F4B80
003E00
00A900
007800
ENDCHAR
STARTCHAR uni0427
ENCODING 1063
SWIDTH 773 0
DWIDTH 7 0
BBX 6 9 1 0
BITMAP
6060
A0A0
A0D0
D1D0
E6D0
BDC0
10C0
01C0
0180
ENDCHAR
STARTCHAR uni0428
ENCODING 1064
SWIDTH 1272 0
DWIDTH 11 0
BBX 13 9 0 0
BITMAP
2D091800
9A0D1C00
491C2800
0D1C2800
0C283800
1C387400
1874B440
2DAA7A40
1F5E2E00
ENDCHAR
STARTCHAR uni0429
ENCODING 1065
SWIDTH 1272 0
DWIDTH 11 0
BBX 13 12 0 -3
BITMAP
2D091800
9A0D1C00
491C2800
0D1C2800
0C283400
1C387400
1874B400
2DAA6A40
1F5E1E00
0000BC00
0000D800
0000F400
ENDCHAR
STARTCHAR uni042A
ENCODING 1066
SWIDTH 863 0
DWIDTH 8 0
BBX 7 9 1 0
BITMAP
FE00
0D00
1C00
2FE0
7978
2428
2424
1870
0B90
ENDCHAR
STARTCHAR uni042B
ENCODING 1067
SWIDTH 1078 0
DWIDTH 10 0
BBX 10 9 0 0
BITMAP
1C0090
1800D0
2800D0
2FE1C0
B975C0
343580
343680
29A280
1F8240
ENDCHAR
STARTCHAR uni042C
ENCODING 1068
SWIDTH 721 0
DWIDTH 6 0
BBX 7 9 0 0
BITMAP
1C00
1800
2800
2FE0
B974
3434
3434
29A0
1F80
ENDCHAR
STARTCHAR uni042D
ENCODING 1069
SWIDTH 755 0
DWIDTH 7 0
BBX 7 9 0 0
BITMAP
1BD0
34B0
1034
0028
0FF8
0034
6070
A1E0
2F80
ENDCHAR
STARTCHAR uni042E
ENCODING 1070
SWIDTH 1246 0
DWIDTH 11 0
BBX 11 9 0 0
BITMAP
2D09E0
9E2978
493D1C
0EB81C
3FE01C
1C6018
1C7034
2839B0
241F80
ENDCHAR
STARTCHAR uni042F
ENCODING 1071
SWIDTH 850 0
DWIDTH 8 0
BBX 9 9 0 0
BITMAP
07EC00
0D1C00
1C1C00
1D2800
0BF800
00E800
41A440
D72980
791E00
ENDCHAR
STARTCHAR uni0430
ENCODING 1072
SWIDTH 470 0
DWIDTH 4 0
BBX 6 5 0 0
BITMAP
1D00
7700
A600
AA90
7780
ENDCHAR
STARTCHAR uni0431
ENCODING 1073
SWIDTH 473 0
DWIDTH 4 0
BBX 6 10 0 0
BITMAP
0640
2900
3400
1800
0900
2E00
6B00
A7D0
AA00
7C00
ENDCHAR
STARTCHAR uni0432
ENCODING 1074
SWIDTH 473 0
DWIDTH 4 0
BBX 6 10 0 0
BITMAP
0E00
2A00
3600
3500
7800
7D00
7B00
67D0
6700
2D00
ENDCHAR
STARTCHAR uni0433
ENCODING 1075
SWIDTH 380 0
DWIDTH 3 0
BBX 5 5 0 0
BITMAP
7C00
5D00
2400
A640
7E00
ENDCHAR
STARTCHAR uni0434
ENCODING 1076
SWIDTH 479 0
DWIDTH 4 0
BBX 6 10 0 -5
BITMAP
1D00
7600
A600
AAD0
7F40
1D00
2C00
9800
E400
A000
ENDCHAR
STARTCHAR uni0435
ENCODING 1077
SWIDTH 393 0
DWIDTH 4 0
BBX 5 5 0 0
BITMAP
2D00
6900
A840
B680
2E00
ENDCHAR
STARTCHAR uni0436
ENCODING 1078
SWIDTH 717 0
DWIDTH 6 0
BBX 8 5 0 0
BITMAP
3A78
1F98
4FC1
9BD9
B678
ENDCHAR
STARTCHAR uni0437
ENCODING 1079
SWIDTH 435 0
DWIDTH 4 0
BBX 6 10 -1 -5
BITMAP
0B40
0580
0240
1D60
0E80
0B00
2B00
2600
6900
7800
ENDCHAR
STARTCHAR uni0438
ENCODING 1080
SWIDTH 462 0
DWIDTH 4 0
BBX 6 5 0 0
BITMAP
2200
6600
AA00
AE90
7740
ENDCHAR
STARTCHAR uni0439
ENCODING 1081
SWIDTH 462 0
DWIDTH 4 0
BBX 6 8 0 0
BITMAP
2240
2E00
0000
2200
6600
AA00
AE90
7740
ENDCHAR
STARTCHAR uni043A
ENCODING 1082
SWIDTH 465 0
DWIDTH 4 0
BBX 6 5 0 0
BITMAP
2740
6E40
B800
BD90
6B40
ENDCHAR
STARTCHAR uni043B
ENCODING 1083
SWIDTH 549 0
DWIDTH 5 0
BBX 6 5 0 0
BITMAP
0700
0B00
4F10
EB60
A2D0
ENDCHAR
STARTCHAR uni043C
ENCODING 1084
SWIDTH 734 0
DWIDTH 7 0
BBX 8 5 0 0
BITMAP
0670
0EB0
5BB0
E776
A228
ENDCHAR
STARTCHAR uni043D
ENCODING 1085
SWIDTH 475 0
DWIDTH 4 0
BBX 6 5 0 0
BITMAP
2300
6300
BE00
A690
5780
ENDCHAR
STARTCHAR uni043E
ENCODING 1086
SWIDTH 451 0
DWIDTH 4 0
BBX 6 5 0 0
BITMAP
2D00
6A00
97D0
A600
3C00
ENDCHAR
STARTCHAR uni043F
ENCODING 1087
SWIDTH 496 0
DWIDTH 4 0
BBX 6 5 0 0
BITMAP
2700
6F00
B710
B750
6380
ENDCHAR
STARTCHAR uni0440
ENCODING 1088
SWIDTH 481 0
DWIDTH 4 0
BBX 7 10 -1 -5
BITMAP
1B80
1DC0
19C0
2AA4
7EE0
A800
A400
A400
A000
A000
ENDCHAR
STARTCHAR uni0441
ENCODING 1089
SWIDTH 368 0
DWIDTH 3 0
BBX 5 5 0 0
BITMAP
2C00
6900
9000
A640
3D00
ENDCHAR
STARTCHAR uni0442
ENCODING 1090
SWIDTH 744 0
DWIDTH 7 0
BBX 8 5 0 0
BITMAP
2774
6FB4
B771
B776
6238
ENDCHAR
STARTCHAR uni0443
ENCODING 1091
SWIDTH 479 0
DWIDTH 4 0
BBX 5 10 0 -5
BITMAP
2300
6600
AA00
AEC0
7B40
1D00
6C00
9800
E400
A000
ENDCHAR
STARTCHAR uni0444
ENCODING 1092
SWIDTH 721 0
DWIDTH 6 0
BBX 8 13 0 -4
BITMAP
0140
0240
0240
0300
1FA0
7770
A730
AAAA
7BB8
0600
0900
0900
0400
ENDCHAR
STARTCHAR uni0445
ENCODING 1093
SWIDTH 529 0
DWIDTH 5 0
BBX 6 5 0 0
BITMAP
3A80
2E80
4D10
9E60
BB80
ENDCHAR
STARTCHAR uni0446
ENCODING 1094
SWIDTH 501 0
DWIDTH 5 0
BBX 6 8 0 -3
BITMAP
2200
6600
AA00
AE50
7780
0A00
2A00
2C00
ENDCHAR
STARTCHAR uni0447
ENCODING 1095
SWIDTH 555 0
DWIDTH 5 0
BBX 6 6 0 0
BITMAP
1C00
2BC0
3740
6A10
CD70
0B90
ENDCHAR
STARTCHAR uni0448
ENCODING 1096
SWIDTH 693 0
DWIDTH 6 0
BBX 8 5 0 0
BITMAP
2230
6670
AAA0
AFE9
7774
ENDCHAR
STARTCHAR uni0449
ENCODING 1097
SWIDTH 732 0
DWIDTH 7 0
BBX 8 8 0 -3
BITMAP
2230
6660
AAA0
AFE5
7778
00B0
02A0
02D0
ENDCHAR
STARTCHAR uni044A
ENCODING 1098
SWIDTH 542 0
DWIDTH 5 0
BBX 6 5 0 0
BITMAP
7800
3B00
7750
7760
2FD0
ENDCHAR
STARTCHAR uni044B
ENCODING 1099
SWIDTH 702 0
DWIDTH 6 0
BBX 8 5 0 0
BITMAP
3030
7EB0
B7E1
67A9
2D38
ENDCHAR
STARTCHAR uni044C
ENCODING 1100
SWIDTH 517 0
DWIDTH 5 0
BBX 6 5 0 0
BITMAP
3000
7E00
B710
6760
2F80
ENDCHAR
STARTCHAR uni044D
ENCODING 1101
SWIDTH 466 0
DWIDTH 4 0
BBX 6 5 0 0
BITMAP
3D00
1700
1FD0
9B00
7D00
ENDCHAR
STARTCHAR uni044E
ENCODING 1102
SWIDTH 676 0
DWIDTH 6 0
BBX 8 5 0 0
BITMAP
22D0
66A0
BD7D
AA60
53D0
ENDCHAR
STARTCHAR uni044F
ENCODING 1103
SWIDTH 543 0
DWIDTH 5 0
BBX 6 5 0 0
BITMAP
1F80
2A40
9F60
DA60
B5C0
ENDCHAR
STARTCHAR uni0450
ENCODING 1104
SWIDTH 393 0
DWIDTH 4 0
BBX 5 10 0 0
BITMAP
1000
3000
2400
0800
0000
2D00
6900
A840
B680
2E00
ENDCHAR
STARTCHAR uni0451
ENCODING 1105
SWIDTH 393 0
DWIDTH 4 0
BBX 5 7 0 0
BITMAP
3700
0000
2D00
6900
A840
B680
2E00
ENDCHAR
STARTCHAR uni0452
ENCODING 1106
SWIDTH 514 0
DWIDTH 5 0
BBX 6 14 0 -5
BITMAP
1800
2800
7F00
3400
7700
6B00
7710
7790
6740
0A00
2900
5800
9800
7400
ENDCHAR
STARTCHAR uni0453
ENCODING 1107
SWIDTH 380 0
DWIDTH 3 0
BBX 5 9 0 0
BITMAP
0500
0D00
1400
0000
7C00
5D00
2400
A640
7E00
ENDCHAR
STARTCHAR uni0454
ENCODING 1108
SWIDTH 379 0
DWIDTH 3 0
BBX 5 5 0 0
BITMAP
2D00
6500
B800
A640
2E00
ENDCHAR
STARTCHAR uni0455
ENCODING 1109
SWIDTH 427 0
DWIDTH 4 0
BBX 5 5 0 0
BITMAP
1800
2800
6D40
9EC0
6F40
ENDCHAR
STARTCHAR uni0456
ENCODING 1110
SWIDTH 246 0
DWIDTH 2 0
BBX 4 7 0 0
BITMAP
34
00
20
60
A0
A9
74
ENDCHAR
STARTCHAR uni0457
ENCODING 1111
SWIDTH 246 0
DWIDTH 2 0
BBX 4 7 0 0
BITMAP
9C
00
20
60
A0
A9
74
ENDCHAR
STARTCHAR uni0458
ENCODING 1112
SWIDTH 254 0
DWIDTH 2 0
BBX 5 12 -2 -5
BITMAP
0700
0000
0600
0600
0600
0AC0
0B40
1D00
2C00
9800
E400
A000
ENDCHAR
STARTCHAR uni0459
ENCODING 1113
SWIDTH 794 0
DWIDTH 7 0
BBX 9 5 0 0
BITMAP
070000
0BB400
8FA940
EB6A00
A1FD00
ENDCHAR
STARTCHAR uni045A
ENCODING 1114
SWIDTH 751 0
DWIDTH 7 0
BBX 8 5 0 0
BITMAP
2300
63A0
BF75
A776
52F8
ENDCHAR
STARTCHAR uni045B
ENCODING 1115
SWIDTH 502 0
DWIDTH 5 0
BBX 6 9 0 0
BITMAP
1800
2800
7F00
3400
7700
6B00
7710
7760
6380
ENDCHAR
STARTCHAR uni045C
ENCODING 1116
SWIDTH 465 0
DWIDTH 4 0
BBX 6 9 0 0
BITMAP
0200
0600
0900
0000
2740
6E40
B800
BD90
6B40
ENDCHAR
STARTCHAR uni045D
ENCODING 1117
SWIDTH 462 0
DWIDTH 4 0
BBX 6 10 0 0
BITMAP
1000
3400
1800
0800
0000
2200
6600
AA00
AE90
7740
ENDCHAR
STARTCHAR uni045E
ENCODING 1118
SWIDTH 479 0
DWIDTH 4 0
BBX 5 13 0 -5
BITMAP
2240
2E00
0000
2300
6600
AA00
AEC0
7B40
1D00
6C00
9800
E400
A000
ENDCHAR
STARTCHAR uni045F
ENCODING 1119
SWIDTH 600 0
DWIDTH 5 0
BBX 6 6 0 -1
BITMAP
2200
6600
AA00
AE90
7740
2000
ENDCHAR
STARTCHAR uni0462
ENCODING 1122
SWIDTH 721 0
DWIDTH 6 0
BBX 7 9 0 0
BITMAP
1C00
7F00
2800
2FE0
B974
3434
3434
29A0
1F80
ENDCHAR
STARTCHAR uni0463
ENCODING 1123
SWIDTH 517 0
DWIDTH 5 0
BBX 6 7 0 0
BITMAP
2400
3000
BC00
7E00
B710
6760
2F80
ENDCHAR
STARTCHAR uni046A
ENCODING 1130
SWIDTH 1234 0
DWIDTH 11 0
BBX 12 9 0 0
BITMAP
0FFFFD
028070
0180A0
00C2C0
00BF00
02AA80
0729C0
9A24E6
78247D
ENDCHAR
STARTCHAR uni046B
ENCODING 1131
SWIDTH 788 0
DWIDTH 7 0
BBX 8 9 0 0
BITMAP
0060
00A0
00E0
01A0
0FBC
0774
47A0
9FB6
B66D
ENDCHAR
STARTCHAR uni0472
ENCODING 1138
SWIDTH 816 0
DWIDTH 7 0
BBX 7 9 0 0
BITMAP
07E0
1D78
381C
741C
7FFC
701C
7028
39B0
1B90
ENDCHAR
STARTCHAR uni0473
ENCODING 1139
SWIDTH 451 0
DWIDTH 4 0
BBX 6 5 0 0
BITMAP
2D00
6640
BFD0
AA00
3C00
ENDCHAR
STARTCHAR uni0474
ENCODING 1140
SWIDTH 797 0
DWIDTH 7 0
BBX 8 9 1 0
BITMAP
A03E
A075
9070
D0A0
D0D0
91C0
A280
7B00
2D00
ENDCHAR
STARTCHAR uni0475
ENCODING 1141
SWIDTH 420 0
DWIDTH 4 0
BBX 5 5 0 0
BITMAP
5380
A600
A900
7C00
7400
ENDCHAR
STARTCHAR uni048A
ENCODING 1162
SWIDTH 890 0
DWIDTH 8 0
BBX 9 15 0 -2
BITMAP
000400
025800
01F000
000000
2D0900
9A0D00
490D00
0D1D00
0C1C00
1C2C00
186C00
1D9DC0
0F4F40
000A00
000C00
ENDCHAR
STARTCHAR uni048B
ENCODING 1163
SWIDTH 462 0
DWIDTH 4 0
BBX 6 10 0 -2
BITMAP
3240
2E00
0000
2200
6600
AA00
AE90
7780
0700
0900
ENDCHAR
STARTCHAR uni048C
ENCODING 1164
SWIDTH 721 0
DWIDTH 6 0
BBX 7 9 0 0
BITMAP
1C00
7F00
2800
2FE0
B974
3434
3434
29A0
1F80
ENDCHAR
STARTCHAR uni048D
ENCODING 1165
SWIDTH 517 0
DWIDTH 5 0
BBX 6 7 0 0
BITMAP
2400
3000
BC00
7E00
B710
6760
2F80
ENDCHAR
STARTCHAR uni048E
ENCODING 1166
SWIDTH 805 0
DWIDTH 7 0
BBX 8 11 0 -2
BITMAP
06F4
0D1D
264D
336D
636E
9FE0
9700
9700
6A00
2D00
0400
ENDCHAR
STARTCHAR uni048F
ENCODING 1167
SWIDTH 481 0
DWIDTH 4 0
BBX 7 10 -1 -5
BITMAP
1B80
1DC0
19C0
2BA4
3EE0
6800
A400
A400
A000
A000
ENDCHAR
STARTCHAR uni0490
ENCODING 1168
SWIDTH 645 0
DWIDTH 6 0
BBX 8 12 0 0
BITMAP
0001
0003
0007
1BFE
6740
9700
5A00
0A00
0A00
0D00
0D00
0C00
ENDCHAR
STARTCHAR uni0491
ENCODING 1169
SWIDTH 394 0
DWIDTH 4 0
BBX 4 7 0 0
BITMAP
01
06
3E
60
A0
A0
50
ENDCHAR
STARTCHAR uni0492
ENCODING 1170
SWIDTH 635 0
DWIDTH 6 0
BBX 8 9 0 0
BITMAP
1BFE
6740
9700
5A00
2F80
0A00
0D00
0D00
0C00
ENDCHAR
STARTCHAR uni0493
ENCODING 1171
SWIDTH 380 0
DWIDTH 3 0
BBX 5 5 0 0
BITMAP
7C00
5D00
B800
A640
7E00
ENDCHAR
STARTCHAR uni0494
ENCODING 1172
SWIDTH 884 0
DWIDTH 8 0
BBX 9 14 0 -5
BITMAP
1BFE00
674000
970000
5A0000
0AB800
0B5D00
0E0D40
0D0F80
0C1E00
003C00
00F800
01A400
02B000
01D000
ENDCHAR
STARTCHAR uni0495
ENCODING 1173
SWIDTH 441 0
DWIDTH 4 0
BBX 5 8 0 -3
BITMAP
7C00
5D00
2400
A580
7F40
2D00
6C00
7400
ENDCHAR
STARTCHAR uni0496
ENCODING 1174
SWIDTH 1234 0
DWIDTH 11 0
BBX 12 12 0 -3
BITMAP
1E092D
164D75
018CA0
00DDC0
00BF00
02AA80
0729C0
9A24E6
78247D
0000B8
0001A4
0001E0
ENDCHAR
STARTCHAR uni0497
ENCODING 1175
SWIDTH 803 0
DWIDTH 7 0
BBX 8 8 0 -3
BITMAP
3A78
1F98
4FC0
9BD6
B67D
0078
00A4
00E0
ENDCHAR
STARTCHAR uni0498
ENCODING 1176
SWIDTH 725 0
DWIDTH 7 0
BBX 7 12 0 -3
BITMAP
0BD0
29A0
2460
0090
0BE0
0074
6070
75E0
2F80
0A80
1A40
1E00
ENDCHAR
STARTCHAR uni0499
ENCODING 1177
SWIDTH 445 0
DWIDTH 4 0
BBX 5 8 0 -3
BITMAP
2D00
5A00
1D00
9A80
7F40
1D00
6800
7800
ENDCHAR
STARTCHAR uni049A
ENCODING 1178
SWIDTH 937 0
DWIDTH 8 0
BBX 10 12 0 -3
BITMAP
1FD280
75C340
628700
129D00
07F400
03B400
436C00
A70E90
7D0B80
001F00
003600
003D00
ENDCHAR
STARTCHAR uni049B
ENCODING 1179
SWIDTH 531 0
DWIDTH 5 0
BBX 6 8 0 -3
BITMAP
2740
6E40
B800
BC60
6B80
0B00
1A00
1D00
ENDCHAR
STARTCHAR uni049C
ENCODING 1180
SWIDTH 937 0
DWIDTH 8 0
BBX 10 9 0 0
BITMAP
1FD280
75C340
629700
12BD00
07F400
03B400
43BC10
A75D90
7D0B80
ENDCHAR
STARTCHAR uni049D
ENCODING 1181
SWIDTH 485 0
DWIDTH 4 0
BBX 6 5 0 0
BITMAP
2740
7980
BC10
BD90
5780
ENDCHAR
STARTCHAR uni049E
ENCODING 1182
SWIDTH 937 0
DWIDTH 8 0
BBX 10 9 0 0
BITMAP
1FD280
75C340
6BE700
229D00
07F400
03B400
436C10
A70D90
7D0B80
ENDCHAR
STARTCHAR uni049F
ENCODING 1183
SWIDTH 473 0
DWIDTH 4 0
BBX 6 9 0 0
BITMAP
1800
2800
7F00
3400
7740
6D80
7800
7D90
6B80
ENDCHAR
STARTCHAR uni04A0
ENCODING 1184
SWIDTH 937 0
DWIDTH 8 0
BBX 10 9 0 0
BITMAP
3FD280
06C340
028600
029C00
07F000
03B400
436C10
A70D90
7D0B80
ENDCHAR
STARTCHAR uni04A1
ENCODING 1185
SWIDTH 555 0
DWIDTH 5 0
BBX 6 5 0 0
BITMAP
BAC0
2A90
2E40
2E60
26D0
ENDCHAR
STARTCHAR uni04A2
ENCODING 1186
SWIDTH 907 0
DWIDTH 8 0
BBX 10 13 0 -3
BITMAP
000740
2D0E80
991940
492A40
0D2E00
3FF400
1C3400
1C3400
282D90
241F40
002E00
006900
007C00
ENDCHAR
STARTCHAR uni04A3
ENCODING 1187
SWIDTH 515 0
DWIDTH 5 0
BBX 6 8 0 -3
BITMAP
2300
6300
BE00
A650
5380
0B00
2A00
2D00
ENDCHAR
STARTCHAR uni04A4
ENCODING 1188
SWIDTH 873 0
DWIDTH 8 0
BBX 10 9 0 0
BITMAP
2D07E0
990D00
491C00
0D2800
3FF400
1C3400
1C3440
282980
241F40
ENDCHAR
STARTCHAR uni04A5
ENCODING 1189
SWIDTH 475 0
DWIDTH 4 0
BBX 6 6 0 0
BITMAP
0040
2340
6300
BE00
A690
5780
ENDCHAR
STARTCHAR uni04A8
ENCODING 1192
SWIDTH 997 0
DWIDTH 9 0
BBX 10 9 0 0
BITMAP
074000
1D2E00
34A680
70D1C0
71C1C0
71C180
70D340
29BE60
0BEF90
ENDCHAR
STARTCHAR uni04A9
ENCODING 1193
SWIDTH 574 0
DWIDTH 5 0
BBX 7 5 0 0
BITMAP
2A80
69C0
99D4
ABB0
3FD0
ENDCHAR
STARTCHAR uni04AA
ENCODING 1194
SWIDTH 781 0
DWIDTH 7 0
BBX 8 14 0 -5
BITMAP
06E0
1D74
3434
7010
7000
7000
7001
397A
1BF8
00B0
01A0
0260
0690
0380
ENDCHAR
STARTCHAR uni04AB
ENCODING 1195
SWIDTH 431 0
DWIDTH 4 0
BBX 5 8 0 -3
BITMAP
2C00
6900
9000
A580
7F40
2D00
6C00
7400
ENDCHAR
STARTCHAR uni04AC
ENCODING 1196
SWIDTH 697 0
DWIDTH 6 0
BBX 8 12 0 -3
BITMAP
1BFF
65C0
9280
5280
0340
0340
0340
0740
0780
0A80
1A40
1F00
ENDCHAR
STARTCHAR uni04AD
ENCODING 1197
SWIDTH 784 0
DWIDTH 7 0
BBX 8 8 0 -3
BITMAP
2774
6FB4
B770
B736
622D
0074
01A0
01E0
ENDCHAR
STARTCHAR uni04AE
ENCODING 1198
SWIDTH 677 0
DWIDTH 6 0
BBX 6 9 1 0
BITMAP
90A0
71D0
3680
2B00
1E00
0C00
0C00
1C00
0C00
ENDCHAR
STARTCHAR uni04AF
ENCODING 1199
SWIDTH 472 0
DWIDTH 4 0
BBX 6 9 0 -4
BITMAP
5300
6700
67D0
7D00
3800
3000
3000
3000
1000
ENDCHAR
STARTCHAR uni04B0
ENCODING 1200
SWIDTH 677 0
DWIDTH 6 0
BBX 6 9 1 0
BITMAP
90A0
71C0
3680
2F00
1D00
7F00
1C00
1C00
0C00
ENDCHAR
STARTCHAR uni04B1
ENCODING 1201
SWIDTH 472 0
DWIDTH 4 0
BBX 6 9 0 -4
BITMAP
5300
6700
67D0
6900
7800
BC00
3400
3000
1000
ENDCHAR
STARTCHAR uni04B2
ENCODING 1202
SWIDTH 716 0
DWIDTH 6 0
BBX 8 12 0 -3
BITMAP
7D18
9A74
07E0
0380
0740
0F80
29C0
B0E5
D0B8
01F0
0360
03D0
ENDCHAR
STARTCHAR uni04B3
ENCODING 1203
SWIDTH 601 0
DWIDTH 5 0
BBX 7 8 0 -3
BITMAP
3A80
2E80
4D00
9E54
BBE0
0280
0A40
0F00
ENDCHAR
STARTCHAR uni04B4
ENCODING 1204
SWIDTH 1040 0
DWIDTH 9 0
BBX 11 12 0 -3
BITMAP
1BF980
65C180
91C280
528280
024340
034740
030B40
036794
02E1F4
000BC0
001D80
000F40
ENDCHAR
STARTCHAR uni04B5
ENCODING 1205
SWIDTH 501 0
DWIDTH 5 0
BBX 6 10 0 -3
BITMAP
1F00
0000
2200
6600
AA00
AE50
7780
0A00
2A00
2C00
ENDCHAR
STARTCHAR uni04B6
ENCODING 1206
SWIDTH 804 0
DWIDTH 7 0
BBX 8 12 1 -3
BITMAP
6060
A0A0
A0D0
D1D0
E6D0
BEC0
10C0
00F9
00B4
02A0
0690
07C0
ENDCHAR
STARTCHAR uni04B7
ENCODING 1207
SWIDTH 631 0
DWIDTH 6 0
BBX 7 9 0 -3
BITMAP
0400
1BC0
2740
6A00
8D54
4BE0
02C0
0A80
0B40
ENDCHAR
STARTCHAR uni04B8
ENCODING 1208
SWIDTH 773 0
DWIDTH 7 0
BBX 6 9 1 0
BITMAP
6060
A0A0
A4D0
D9D0
EFD0
7DC0
18C0
05C0
0180
ENDCHAR
STARTCHAR uni04B9
ENCODING 1209
SWIDTH 575 0
DWIDTH 5 0
BBX 7 6 0 0
BITMAP
1A00
2FD0
3680
6A14
CA70
07D0
ENDCHAR
STARTCHAR uni04BA
ENCODING 1210
SWIDTH 755 0
DWIDTH 7 0
BBX 8 9 0 0
BITMAP
1800
1C00
2800
2800
2AE0
3D70
3430
7076
7038
ENDCHAR
STARTCHAR uni04BB
ENCODING 1211
SWIDTH 502 0
DWIDTH 5 0
BBX 6 10 0 0
BITMAP
0A00
1B00
3600
3500
7800
7B00
6B00
7710
B760
6380
ENDCHAR
STARTCHAR uni04BC
ENCODING 1212
SWIDTH 808 0
DWIDTH 7 0
BBX 9 9 0 0
BITMAP
01F800
075D00
0A0900
5D0D00
7FFC00
1C0000
0D0000
0B4640
02FA00
ENDCHAR
STARTCHAR uni04BD
ENCODING 1213
SWIDTH 483 0
DWIDTH 4 0
BBX 6 5 0 0
BITMAP
0B00
2A40
BA00
7990
1F40
ENDCHAR
STARTCHAR uni04BE
ENCODING 1214
SWIDTH 808 0
DWIDTH 7 0
BBX 9 12 0 -3
BITMAP
01F800
075D00
0A0900
5D0D00
7FFC00
1C0000
0D0000
0B4640
02FA00
030000
030000
02D000
ENDCHAR
STARTCHAR uni04BF
ENCODING 1215
SWIDTH 483 0
DWIDTH 4 0
BBX 6 8 0 -3
BITMAP
0B00
2A40
BB00
7890
1F80
0900
0900
0740
ENDCHAR
STARTCHAR uni04C0
ENCODING 1216
SWIDTH 495 0
DWIDTH 4 0
BBX 5 9 0 0
BITMAP
3FC0
0E00
0D00
0D00
1C00
1C00
1800
2800
FF00
ENDCHAR
STARTCHAR uni04C1
ENCODING 1217
SWIDTH 1234 0
DWIDTH 11 0
BBX 12 10 0 0
BITMAP
001180
1E1F6D
164D75
018CA0
00DDC0
00BF00
02AA80
0729C0
9A24E6
78247D
ENDCHAR
STARTCHAR uni04C2
ENCODING 1218
SWIDTH 717 0
DWIDTH 6 0
BBX 8 8 0 0
BITMAP
0950
0B80
0000
3A78
1F98
4FC1
9BD9
B678
ENDCHAR
STARTCHAR uni04C3
ENCODING 1219
SWIDTH 937 0
DWIDTH 8 0
BBX 10 12 0 -3
BITMAP
1FD280
75C340
628700
129D00
07F400
03B400
436C00
A70E90
7D0B80
001F00
003600
003D00
ENDCHAR
STARTCHAR uni04C4
ENCODING 1220
SWIDTH 531 0
DWIDTH 5 0
BBX 6 8 0 -3
BITMAP
2740
6E40
B800
BC60
6B80
0B00
1A00
1D00
ENDCHAR
STARTCHAR uni04C5
ENCODING 1221
SWIDTH 861 0
DWIDTH 8 0
BBX 9 11 0 -2
BITMAP
003400
007400
00B400
00F400
01F400
02B400
436440
DA2980
780F00
000D00
001800
ENDCHAR
STARTCHAR uni04C6
ENCODING 1222
SWIDTH 549 0
DWIDTH 5 0
BBX 6 7 0 -2
BITMAP
0700
0B00
4F10
EB60
A2D0
0280
0200
ENDCHAR
STARTCHAR uni04C7
ENCODING 1223
SWIDTH 907 0
DWIDTH 8 0
BBX 10 13 0 -3
BITMAP
000740
2D0E80
991940
492A40
0D2E00
3FF400
1C3400
1C3400
282D90
241F40
002E00
006900
007C00
ENDCHAR
STARTCHAR uni04C8
ENCODING 1224
SWIDTH 515 0
DWIDTH 5 0
BBX 6 8 0 -3
BITMAP
2300
6300
BE00
A650
5380
0B00
2A00
2D00
ENDCHAR
STARTCHAR uni04C9
ENCODING 1225
SWIDTH 873 0
DWIDTH 8 0
BBX 9 13 0 -3
BITMAP
000740
2D0E80
991940
492A40
0D2E00
3FF800
1C3400
1C3440
282980
241F40
000A00
000C00
000400
ENDCHAR
STARTCHAR uni04CA
ENCODING 1226
SWIDTH 475 0
DWIDTH 4 0
BBX 6 7 0 -2
BITMAP
2300
6300
BE00
A690
5780
0700
0900
ENDCHAR
STARTCHAR uni04CB
ENCODING 1227
SWIDTH 773 0
DWIDTH 7 0
BBX 6 12 1 -3
BITMAP
6060
A0A0
A0D0
D1D0
E6D0
BDC0
10C0
01C0
0780
1B00
7600
7C00
ENDCHAR
STARTCHAR uni04CC
ENCODING 1228
SWIDTH 555 0
DWIDTH 5 0
BBX 6 7 0 -1
BITMAP
1C00
2BC0
3740
6A10
CD70
0BC0
0080
ENDCHAR
STARTCHAR uni04CD
ENCODING 1229
SWIDTH 1133 0
DWIDTH 10 0
BBX 12 11 0 -2
BITMAP
00D1C0
01D2C0
01D3C0
02D6C0
02AAC0
036DC0
4679C0
D974D9
7830B8
000060
000090
ENDCHAR
STARTCHAR uni04CE
ENCODING 1230
SWIDTH 734 0
DWIDTH 7 0
BBX 8 7 0 -2
BITMAP
0670
0EB0
5BB0
E776
A22C
0024
0020
ENDCHAR
STARTCHAR uni04CF
ENCODING 1231
SWIDTH 222 0
DWIDTH 2 0
BBX 3 9 0 0
BITMAP
14
24
34
30
70
60
60
A0
90
ENDCHAR
STARTCHAR uni04D0
ENCODING 1232
SWIDTH 786 0
DWIDTH 7 0
BBX 8 10 0 0
BITMAP
0049
02FD
0B54
2828
3434
7034
7070
70B0
75F6
2E2D
ENDCHAR
STARTCHAR uni04D1
ENCODING 1233
SWIDTH 470 0
DWIDTH 4 0
BBX 6 8 0 0
BITMAP
2240
2E00
0000
1D00
7700
A600
AA90
7780
ENDCHAR
STARTCHAR uni04D2
ENCODING 1234
SWIDTH 786 0
DWIDTH 7 0
BBX 8 10 0 0
BITMAP
00DC
02FD
0B54
2828
3434
7034
7070
70B0
75F6
2E2D
ENDCHAR
STARTCHAR uni04D3
ENCODING 1235
SWIDTH 470 0
DWIDTH 4 0
BBX 6 7 0 0
BITMAP
2640
0000
1D00
7700
A600
AA90
7780
ENDCHAR
STARTCHAR uni04D4
ENCODING 1236
SWIDTH 1015 0
DWIDTH 9 0
BBX 11 9 0 0
BITMAP
02DFE0
0F5C00
282800
343400
703FC0
707400
70B000
75B964
1E5BD0
ENDCHAR
STARTCHAR uni04D5
ENCODING 1237
SWIDTH 653 0
DWIDTH 6 0
BBX 7 5 0 0
BITMAP
1EE0
7760
A794
AB5C
7AE4
ENDCHAR
STARTCHAR uni04D6
ENCODING 1238
SWIDTH 686 0
DWIDTH 6 0
BBX 8 10 0 0
BITMAP
0120
0BF0
2D74
2824
2810
1F40
7500
A000
B459
2FE4
ENDCHAR
STARTCHAR uni04D7
ENCODING 1239
SWIDTH 393 0
DWIDTH 4 0
BBX 5 8 0 0
BITMAP
6200
3D00
0000
2D00
6900
A840
B680
2E00
ENDCHAR
STARTCHAR uni04D8
ENCODING 1240
SWIDTH 792 0
DWIDTH 7 0
BBX 7 9 0 0
BITMAP
0BE0
2974
0028
001C
7FFC
7028
7034
39B0
1B80
ENDCHAR
STARTCHAR uni04D9
ENCODING 1241
SWIDTH 455 0
DWIDTH 4 0
BBX 6 5 0 0
BITMAP
7D00
1700
BFD0
9B00
7D00
ENDCHAR
STARTCHAR uni04DA
ENCODING 1242
SWIDTH 792 0
DWIDTH 7 0
BBX 7 10 0 0
BITMAP
0660
0BE0
2974
0028
001C
7FFC
7028
7034
39B0
1B80
ENDCHAR
STARTCHAR uni04DB
ENCODING 1243
SWIDTH 455 0
DWIDTH 4 0
BBX 6 7 0 0
BITMAP
3700
0000
7D00
1700
BFD0
9B00
7D00
ENDCHAR
STARTCHAR uni04DC
ENCODING 1244
SWIDTH 1234 0
DWIDTH 11 0
BBX 12 10 0 0
BITMAP
002640
1E0D2D
164D75
018CA0
00DDC0
00BF00
02AA80
0729C0
9A24E6
78247D
ENDCHAR
STARTCHAR uni04DD
ENCODING 1245
SWIDTH 717 0
DWIDTH 6 0
BBX 8 7 0 0
BITMAP
0690
0000
3A78
1F98
4FC1
9BD9
B678
ENDCHAR
STARTCHAR uni04DE
ENCODING 1246
SWIDTH 725 0
DWIDTH 7 0
BBX 6 10 0 0
BITMAP
0660
0BD0
29A0
2460
0090
0BE0
0070
6070
75E0
2F80
ENDCHAR
STARTCHAR uni04DF
ENCODING 1247
SWIDTH 435 0
DWIDTH 4 0
BBX 6 12 -1 -5
BITMAP
1980
0000
0B40
0580
0240
1D60
0E80
0B00
2B00
2600
6900
7800
ENDCHAR
STARTCHAR uni04E0
ENCODING 1248
SWIDTH 744 0
DWIDTH 7 0
BBX 7 9 0 0
BITMAP
0BE4
2878
2470
00D0
0BE0
0070
6070
75E0
2F80
ENDCHAR
STARTCHAR uni04E1
ENCODING 1249
SWIDTH 435 0
DWIDTH 4 0
BBX 6 10 -1 -5
BITMAP
1FC0
0780
0D10
18A0
0B80
0B00
2B00
2600
6D00
7800
ENDCHAR
STARTCHAR uni04E2
ENCODING 1250
SWIDTH 890 0
DWIDTH 8 0
BBX 9 10 0 0
BITMAP
02F400
2D0900
9A0D00
490D00
0D1D00
0C1C00
1C2C00
186C00
1D9DC0
0F4F40
ENDCHAR
STARTCHAR uni04E3
ENCODING 1251
SWIDTH 462 0
DWIDTH 4 0
BBX 6 7 0 0
BITMAP
2F00
0000
2200
6600
AA00
AE90
7740
ENDCHAR
STARTCHAR uni04E4
ENCODING 1252
SWIDTH 890 0
DWIDTH 8 0
BBX 9 10 0 0
BITMAP
02A400
2D0900
9A0D00
490D00
0D1D00
0C1C00
1C2C00
186C00
1D9DC0
0F4F40
ENDCHAR
STARTCHAR uni04E5
ENCODING 1253
SWIDTH 462 0
DWIDTH 4 0
BBX 6 7 0 0
BITMAP
2640
0000
2200
6600
AA00
AE90
7740
ENDCHAR
STARTCHAR uni04E6
ENCODING 1254
SWIDTH 816 0
DWIDTH 7 0
BBX 7 10 0 0
BITMAP
0370
07E0
1D78
341C
701C
701C
701C
7028
39B0
1B90
ENDCHAR
STARTCHAR uni04E7
ENCODING 1255
SWIDTH 451 0
DWIDTH 4 0
BBX 6 7 0 0
BITMAP
3700
0000
2D00
6A00
97D0
A600
3C00
ENDCHAR
STARTCHAR uni04E8
ENCODING 1256
SWIDTH 816 0
DWIDTH 7 0
BBX 7 9 0 0
BITMAP
07E0
1D78
341C
701C
7FFC
701C
7028
3970
1B90
ENDCHAR
STARTCHAR uni04E9
ENCODING 1257
SWIDTH 451 0
DWIDTH 4 0
BBX 6 5 0 0
BITMAP
2D00
6600
BFD0
AA00
3C00
ENDCHAR
STARTCHAR uni04EA
ENCODING 1258
SWIDTH 816 0
DWIDTH 7 0
BBX 7 10 0 0
BITMAP
0370
07E0
1D78
341C
701C
7FFC
701C
7028
3970
1B90
ENDCHAR
STARTCHAR uni04EB
ENCODING 1259
SWIDTH 451 0
DWIDTH 4 0
BBX 6 7 0 0
BITMAP
3700
0000
2D00
6600
BFD0
AA00
3C00
ENDCHAR
STARTCHAR uni04EC
ENCODING 1260
SWIDTH 755 0
DWIDTH 7 0
BBX 7 10 0 0
BITMAP
0660
1BD0
34B0
1034
0028
0FF8
0034
6070
A1E0
2F80
ENDCHAR
STARTCHAR uni04ED
ENCODING 1261
SWIDTH 466 0
DWIDTH 4 0
BBX 6 7 0 0
BITMAP
2700
0000
3D00
1700
1FD0
9B00
7D00
ENDCHAR
STARTCHAR uni04EE
ENCODING 1262
SWIDTH 824 0
DWIDTH 7 0
BBX 9 12 0 -2
BITMAP
02F000
2D0900
9D0D00
0D1D00
0D2C00
0D7C00
0B9C00
006F40
02F800
0A2400
097000
0BD000
ENDCHAR
STARTCHAR uni04EF
ENCODING 1263
SWIDTH 479 0
DWIDTH 4 0
BBX 5 12 0 -5
BITMAP
2F00
0000
2300
6600
AA00
AEC0
7B40
1D00
6C00
9800
E400
A000
ENDCHAR
STARTCHAR uni04F0
ENCODING 1264
SWIDTH 824 0
DWIDTH 7 0
BBX 9 12 0 -2
BITMAP
026400
2D0900
9D0D00
0D1D00
0D2C00
0D7C00
0B9C00
006F40
02F800
0A2400
097000
0BD000
ENDCHAR
STARTCHAR uni04F1
ENCODING 1265
SWIDTH 479 0
DWIDTH 4 0
BBX 5 12 0 -5
BITMAP
2640
0000
2300
6600
AA00
AEC0
7B40
1D00
6C00
9800
E400
A000
ENDCHAR
STARTCHAR uni04F2
ENCODING 1266
SWIDTH 824 0
DWIDTH 7 0
BBX 9 14 0 -2
BITMAP
004400
01E800
016000
2D0900
9D0D00
0D1D00
0D2C00
0D7C00
0B9C00
006F40
02F800
0A2400
097000
0BD000
ENDCHAR
STARTCHAR uni04F3
ENCODING 1267
SWIDTH 479 0
DWIDTH 4 0
BBX 5 15 0 -5
BITMAP
0440
0E80
1A40
1600
0000
2300
6600
AA00
AEC0
7B40
1D00
6C00
9800
E400
A000
ENDCHAR
STARTCHAR uni04F4
ENCODING 1268
SWIDTH 773 0
DWIDTH 7 0
BBX 6 10 1 0
BITMAP
1980
6060
A0A0
A0D0
D1D0
E6D0
BDC0
10C0
01C0
0180
ENDCHAR
STARTCHAR uni04F5
ENCODING 1269
SWIDTH 555 0
DWIDTH 5 0
BBX 6 7 0 0
BITMAP
0690
1C00
2BC0
3740
6A10
CD70
0B90
ENDCHAR
STARTCHAR uni04F6
ENCODING 1270
SWIDTH 600 0
DWIDTH 5 0
BBX 8 12 0 -3
BITMAP
2FFE
6740
9700
5A00
0A00
0900
0D00
0E00
0F00
2B00
7600
3C00
ENDCHAR
STARTCHAR uni04F7
ENCODING 1271
SWIDTH 441 0
DWIDTH 4 0
BBX 5 8 0 -3
BITMAP
7C00
5D00
2400
A580
7F40
2D00
6C00
7400
ENDCHAR
STARTCHAR uni04F8
ENCODING 1272
SWIDTH 1078 0
DWIDTH 10 0
BBX 10 10 0 0
BITMAP
009900
1C0090
1800D0
2800D0
2FE1C0
B975C0
343580
343680
29A280
1F8240
ENDCHAR
STARTCHAR uni04F9
ENCODING 1273
SWIDTH 702 0
DWIDTH 6 0
BBX 8 7 0 0
BITMAP
0990
0000
3030
7EB0
B7E1
67A9
2D38
ENDCHAR
STARTCHAR uni04FA
ENCODING 1274
SWIDTH 635 0
DWIDTH 6 0
BBX 9 13 -1 -4
BITMAP
06FF80
19D000
25C000
168000
0BE000
028000
034000
034000
034000
070000
060000
590000
7C0000
ENDCHAR
STARTCHAR uni04FB
ENCODING 1275
SWIDTH 441 0
DWIDTH 4 0
BBX 5 8 0 -3
BITMAP
7C00
5D00
B800
A580
7F40
2D00
6C00
7400
ENDCHAR
STARTCHAR uni04FC
ENCODING 1276
SWIDTH 716 0
DWIDTH 6 0
BBX 8 12 0 -3
BITMAP
7D18
9A74
07E0
0380
0740
0F80
29C0
B0E5
D0B8
01F0
0360
03D0
ENDCHAR
STARTCHAR uni04FD
ENCODING 1277
SWIDTH 601 0
DWIDTH 5 0
BBX 7 8 0 -3
BITMAP
3A80
2E80
4D00
9E54
BBE0
0280
0A40
0F00
ENDCHAR
STARTCHAR uni04FE
ENCODING 1278
SWIDTH 712 0
DWIDTH 6 0
BBX 8 9 0 0
BITMAP
7D18
9A34
07A0
03C0
2FE0
0B80
2EC0
74D5
D0B8
ENDCHAR
STARTCHAR uni04FF
ENCODING 1279
SWIDTH 529 0
DWIDTH 5 0
BBX 6 5 0 0
BITMAP
3A80
2E80
1F00
9E60
BB80
ENDCHAR
STARTCHAR uni0510
ENCODING 1296
SWIDTH 706 0
DWIDTH 6 0
BBX 6 9 0 0
BITMAP
0BD0
1870
2830
1C00
2F40
7010
B030
74B0
1F80
ENDCHAR
STARTCHAR uni0511
ENCODING 1297
SWIDTH 392 0
DWIDTH 4 0
BBX 5 5 0 0
BITMAP
2C00
6400
7400
A640
7E00
ENDCHAR
STARTCHAR uni0512
ENCODING 1298
SWIDTH 884 0
DWIDTH 8 0
BBX 9 12 0 -3
BITMAP
003400
007400
00B400
00F400
01F400
02B400
436400
DA2980
780F40
002E00
006900
007800
ENDCHAR
STARTCHAR uni0513
ENCODING 1299
SWIDTH 631 0
DWIDTH 6 0
BBX 7 8 0 -3
BITMAP
0700
0B00
4F00
EB54
A2E0
02C0
0A80
0B40
ENDCHAR
STARTCHAR uni051A
ENCODING 1306
SWIDTH 816 0
DWIDTH 7 0
BBX 8 12 0 -3
BITMAP
07E0
1D68
341C
701C
701C
701C
7028
29B0
0B80
01C0
00E2
007D
ENDCHAR
STARTCHAR uni051B
ENCODING 1307
SWIDTH 500 0
DWIDTH 5 0
BBX 6 10 0 -4
BITMAP
0100
1F40
7700
A600
AAE0
7E80
0D80
0D40
0E40
0B00
ENDCHAR
STARTCHAR uni051C
ENCODING 1308
SWIDTH 1217 0
DWIDTH 11 0
BBX 12 9 1 0
BITMAP
A061E0
A0A274
90A270
D0E1F0
D1E0BD
D2A0D0
A36180
BA3B00
382D00
ENDCHAR
STARTCHAR uni051D
ENCODING 1309
SWIDTH 700 0
DWIDTH 6 0
BBX 8 5 0 0
BITMAP
5630
AA70
AF7D
7BD0
7740
ENDCHAR
STARTCHAR uni0524
ENCODING 1316
SWIDTH 892 0
DWIDTH 8 0
BBX 9 12 0 -3
BITMAP
1BFF80
674A40
970900
570D00
0A0C00
0A1C00
091800
0D1E80
0D0B80
002E00
006900
007800
ENDCHAR
STARTCHAR uni0525
ENCODING 1317
SWIDTH 536 0
DWIDTH 5 0
BBX 6 8 0 -3
BITMAP
2700
6F00
B700
B760
63D0
0B00
1B00
1D00
ENDCHAR
STARTCHAR uni0526
ENCODING 1318
SWIDTH 818 0
DWIDTH 7 0
BBX 9 12 0 -3
BITMAP
0C0000
1C0000
280000
280000
2AE000
3D7400
343000
707940
703E00
006C00
00D800
01F400
ENDCHAR
STARTCHAR uni0527
ENCODING 1319
SWIDTH 542 0
DWIDTH 5 0
BBX 6 13 0 -3
BITMAP
0A00
1B00
3600
3500
7800
7B00
6B00
7700
B760
63D0
0B00
1B00
1D00
ENDCHAR
STARTCHAR uni0528
ENCODING 1320
SWIDTH 873 0
DWIDTH 8 0
BBX 10 13 -1 -3
BITMAP
0001D0
0B43A0
264650
024A90
034B80
0FFE00
074D00
070D10
0A0A60
0A07D0
0D0000
9C0000
F40000
ENDCHAR
STARTCHAR uni0529
ENCODING 1321
SWIDTH 475 0
DWIDTH 4 0
BBX 7 8 -1 -3
BITMAP
08C0
18C0
2F80
29A4
29E0
1800
A800
B400
ENDCHAR
STARTCHAR uni052E
ENCODING 1326
SWIDTH 884 0
DWIDTH 8 0
BBX 9 12 0 -3
BITMAP
003400
007400
00B400
00F400
01F400
02B400
436400
DA2980
780F40
002E00
006900
007800
ENDCHAR
STARTCHAR uni052F
ENCODING 1327
SWIDTH 631 0
DWIDTH 6 0
BBX 7 8 0 -3
BITMAP
0700
0B00
4F00
EB54
A2E0
02C0
0A80
0B40
ENDCHAR
STARTCHAR Wgrave
ENCODING 7808
SWIDTH 1217 0
DWIDTH 11 0
BBX 12 12 1 0
BITMAP
010000
038000
009000
A061E0
A0A274
90A270
D0E1F0
D1E0BD
D2A0D0
A36180
BA3B00
382D00
ENDCHAR
STARTCHAR wgrave
ENCODING 7809
SWIDTH 700 0
DWIDTH 6 0
BBX 8 10 0 0
BITMAP
0400
0C00
0900
0200
0000
5630
AA70
AF7D
7BD0
7740
ENDCHAR
STARTCHAR Wacute
ENCODING 7810
SWIDTH 1217 0
DWIDTH 11 0
BBX 12 12 1 0
BITMAP
000100
000E00
002400
A061E0
A0A274
90A270
D0E1F0
D1E0BD
D2A0D0
A36180
BA3B00
382D00
ENDCHAR
STARTCHAR wacute
ENCODING 7811
SWIDTH 700 0
DWIDTH 6 0
BBX 8 9 0 0
BITMAP
00C0
0180
0200
0000
5630
AA70
AF7D
7BD0
7740
ENDCHAR
STARTCHAR Wdieresis
ENCODING 7812
SWIDTH 1217 0
DWIDTH 11 0
BBX 12 10 1 0
BITMAP
00DC00
A061E0
A0A274
90A270
D0E1F0
D1E0BD
D2A0D0
A36180
BA3B00
382D00
ENDCHAR
STARTCHAR wdieresis
ENCODING 7813
SWIDTH 700 0
DWIDTH 6 0
BBX 8 7 0 0
BITMAP
0DC0
0000
5630
AA70
AF7D
7BD0
7740
ENDCHAR
STARTCHAR uni1E9E
ENCODING 7838
SWIDTH 843 0
DWIDTH 8 0
BBX 8 10 0 -1
BITMAP
1CB8
1A5D
2A1C
2C74
39F4
342C
341C
702C
71B4
0140
ENDCHAR
STARTCHAR uni1EA0
ENCODING 7840
SWIDTH 786 0
DWIDTH 7 0
BBX 8 11 0 -2
BITMAP
02FD
0B54
2828
3434
7034
7070
70B0
75F6
2E2D
0000
0700
ENDCHAR
STARTCHAR uni1EA1
ENCODING 7841
SWIDTH 470 0
DWIDTH 4 0
BBX 6 7 0 -2
BITMAP
1D00
7700
A600
AA90
7780
0000
3400
ENDCHAR
STARTCHAR uni1EA2
ENCODING 7842
SWIDTH 786 0
DWIDTH 7 0
BBX 8 12 0 0
BITMAP
0074
0018
0034
02FD
0B54
2828
3434
7034
7070
70B0
75F6
2E2D
ENDCHAR
STARTCHAR uni1EA3
ENCODING 7843
SWIDTH 470 0
DWIDTH 4 0
BBX 6 9 0 0
BITMAP
0E00
0300
0A00
0000
1D00
7700
A600
AA90
7780
ENDCHAR
STARTCHAR uni1EA4
ENCODING 7844
SWIDTH 786 0
DWIDTH 7 0
BBX 8 15 0 0
BITMAP
0001
000B
0018
0034
00A8
00C8
02FD
0B54
2828
3434
7034
7070
70B0
75F6
2E2D
ENDCHAR
STARTCHAR uni1EA5
ENCODING 7845
SWIDTH 470 0
DWIDTH 4 0
BBX 6 10 0 0
BITMAP
0010
0090
0A00
2640
0000
1D00
7700
A600
AA90
7780
ENDCHAR
STARTCHAR uni1EA6
ENCODING 7846
SWIDTH 786 0
DWIDTH 7 0
BBX 8 15 0 0
BITMAP
0100
02C0
0060
0034
00A8
00C8
02FD
0B54
2828
3434
7034
7070
70B0
75F6
2E2D
ENDCHAR
STARTCHAR uni1EA7
ENCODING 7847
SWIDTH 470 0
DWIDTH 4 0
BBX 6 10 0 0
BITMAP
5000
6000
0A00
2640
0000
1D00
7700
A600
AA90
7780
ENDCHAR
STARTCHAR uni1EA8
ENCODING 7848
SWIDTH 786 0
DWIDTH 7 0
BBX 8 15 0 0
BITMAP
0038
000C
0028
0034
00A8
00C8
02FD
0B54
2828
3434
7034
7070
70B0
75F6
2E2D
ENDCHAR
STARTCHAR uni1EA9
ENCODING 7849
SWIDTH 470 0
DWIDTH 4 0
BBX 6 9 0 0
BITMAP
00D0
0060
0A90
2B40
1E00
7700
A600
AA90
7780
ENDCHAR
STARTCHAR uni1EAA
ENCODING 7850
SWIDTH 786 0
DWIDTH 7 0
BBX 8 14 0 0
BITMAP
00A6
009D
0034
00A8
00C8
02FD
0B54
2828
3434
7034
7070
70B0
75F6
2E2D
ENDCHAR
STARTCHAR uni1EAB
ENCODING 7851
SWIDTH 470 0
DWIDTH 4 0
BBX 6 10 0 0
BITMAP
1D80
1640
0F00
2640
0000
1D00
7700
A600
AA90
7780
ENDCHAR
STARTCHAR uni1EAC
ENCODING 7852
SWIDTH 786 0
DWIDTH 7 0
BBX 8 14 0 -2
BITMAP
0034
00A8
00C8
02FD
0B54
2828
3434
7034
7070
70B0
75F6
2E2D
0000
0700
ENDCHAR
STARTCHAR uni1EAD
ENCODING 7853
SWIDTH 470 0
DWIDTH 4 0
BBX 6 12 0 -2
BITMAP
0100
0B00
1A00
2640
0000
1D00
7700
A600
AA90
7780
0000
3400
ENDCHAR
STARTCHAR uni1EAE
ENCODING 7854
SWIDTH 786 0
DWIDTH 7 0
BBX 8 12 0 0
BITMAP
0018
0199
00F8
02FD
0B54
2828
3434
7034
7070
70B0
75F6
2E2D
ENDCHAR
STARTCHAR uni1EAF
ENCODING 7855
SWIDTH 470 0
DWIDTH 4 0
BBX 6 9 0 0
BITMAP
0240
2580
2F40
0000
1D00
7700
A600
AA90
7780
ENDCHAR
STARTCHAR uni1EB0
ENCODING 7856
SWIDTH 786 0
DWIDTH 7 0
BBX 8 12 0 0
BITMAP
0090
0195
00F8
02FD
0B54
2828
3434
7034
7070
70B0
75F6
2E2D
ENDCHAR
STARTCHAR uni1EB1
ENCODING 7857
SWIDTH 470 0
DWIDTH 4 0
BBX 6 9 0 0
BITMAP
1800
2540
2F40
0000
1D00
7700
A600
AA90
7780
ENDCHAR
STARTCHAR uni1EB2
ENCODING 7858
SWIDTH 786 0
DWIDTH 7 0
BBX 8 13 0 0
BITMAP
0074
0034
0189
00B8
02FD
0B54
2828
3434
7034
7070
70B0
75F6
2E2D
ENDCHAR
STARTCHAR uni1EB3
ENCODING 7859
SWIDTH 470 0
DWIDTH 4 0
BBX 6 10 0 0
BITMAP
0A00
0A00
3580
1F40
0000
1D00
7700
A600
AA90
7780
ENDCHAR
STARTCHAR uni1EB4
ENCODING 7860
SWIDTH 786 0
DWIDTH 7 0
BBX 8 13 0 0
BITMAP
00A5
0058
0189
00B8
02FD
0B54
2828
3434
7034
7070
70B0
75F6
2E2D
ENDCHAR
STARTCHAR uni1EB5
ENCODING 7861
SWIDTH 470 0
DWIDTH 4 0
BBX 6 10 0 0
BITMAP
1980
1240
2180
2F40
0000
1D00
7700
A600
AA90
7780
ENDCHAR
STARTCHAR uni1EB6
ENCODING 7862
SWIDTH 786 0
DWIDTH 7 0
BBX 8 13 0 -2
BITMAP
0189
00F8
02FD
0B54
2828
3434
7034
7070
70B0
75F6
2E2D
0000
0700
ENDCHAR
STARTCHAR uni1EB7
ENCODING 7863
SWIDTH 470 0
DWIDTH 4 0
BBX 6 11 0 -2
BITMAP
1040
3580
1F40
0000
1D00
7700
A600
AA90
7780
0000
3400
ENDCHAR
STARTCHAR uni1EB8
ENCODING 7864
SWIDTH 686 0
DWIDTH 6 0
BBX 8 11 0 -2
BITMAP
0BE0
2D74
2824
2810
1F40
7500
A000
B459
2FE4
0000
0600
ENDCHAR
STARTCHAR uni1EB9
ENCODING 7865
SWIDTH 393 0
DWIDTH 4 0
BBX 5 7 0 -2
BITMAP
2D00
6900
A840
B680
2E00
0000
2800
ENDCHAR
STARTCHAR uni1EBA
ENCODING 7866
SWIDTH 686 0
DWIDTH 6 0
BBX 8 12 0 0
BITMAP
01D0
0060
00D0
0BE0
2D74
2824
2810
1F40
7500
A000
B459
2FE4
ENDCHAR
STARTCHAR uni1EBB
ENCODING 7867
SWIDTH 393 0
DWIDTH 4 0
BBX 5 9 0 0
BITMAP
1D00
0600
0D00
0000
2D00
6900
A840
B680
2E00
ENDCHAR
STARTCHAR uni1EBC
ENCODING 7868
SWIDTH 686 0
DWIDTH 6 0
BBX 8 11 0 0
BITMAP
0364
09A0
0BE0
2D74
2824
2810
1F40
7500
A000
B459
2FE4
ENDCHAR
STARTCHAR uni1EBD
ENCODING 7869
SWIDTH 393 0
DWIDTH 4 0
BBX 5 8 0 0
BITMAP
3940
5B00
0000
2D00
6900
A840
B680
2E00
ENDCHAR
STARTCHAR uni1EBE
ENCODING 7870
SWIDTH 686 0
DWIDTH 6 0
BBX 8 13 0 0
BITMAP
0004
0018
01D0
0260
0BE0
2D74
2824
2810
1F40
7500
A000
B459
2FE4
ENDCHAR
STARTCHAR uni1EBF
ENCODING 7871
SWIDTH 393 0
DWIDTH 4 0
BBX 5 10 0 0
BITMAP
0040
0180
1D00
2600
0000
2D00
6900
A840
B680
2E00
ENDCHAR
STARTCHAR uni1EC0
ENCODING 7872
SWIDTH 686 0
DWIDTH 6 0
BBX 8 13 0 0
BITMAP
0400
0900
01D0
0260
0BE0
2D74
2824
2810
1F40
7500
A000
B459
2FE4
ENDCHAR
STARTCHAR uni1EC1
ENCODING 7873
SWIDTH 393 0
DWIDTH 4 0
BBX 5 10 0 0
BITMAP
4000
A000
1D00
2600
0000
2D00
6900
A840
B680
2E00
ENDCHAR
STARTCHAR uni1EC2
ENCODING 7874
SWIDTH 686 0
DWIDTH 6 0
BBX 8 12 0 0
BITMAP
002C
0008
01EC
0BF0
2D74
2824
2810
1F40
7500
A000
B459
2FE4
ENDCHAR
STARTCHAR uni1EC3
ENCODING 7875
SWIDTH 393 0
DWIDTH 4 0
BBX 6 9 0 0
BITMAP
01C0
0090
1EC0
3A00
2D00
6900
A840
B680
2E00
ENDCHAR
STARTCHAR uni1EC4
ENCODING 7876
SWIDTH 686 0
DWIDTH 6 0
BBX 8 13 0 0
BITMAP
02A4
0150
02D0
0260
0BE0
2D74
2824
2810
1F40
7500
A000
B459
2FE4
ENDCHAR
STARTCHAR uni1EC5
ENCODING 7877
SWIDTH 393 0
DWIDTH 4 0
BBX 5 10 0 0
BITMAP
2A40
1600
1E00
3600
0000
2D00
6900
A840
B680
2E00
ENDCHAR
STARTCHAR uni1EC6
ENCODING 7878
SWIDTH 686 0
DWIDTH 6 0
BBX 8 14 0 -2
BITMAP
01D0
02A0
0660
0BE0
2D74
2824
2810
1F40
7500
A000
B459
2FE4
0000
0600
ENDCHAR
STARTCHAR uni1EC7
ENCODING 7879
SWIDTH 393 0
DWIDTH 4 0
BBX 5 12 0 -2
BITMAP
0400
1E00
2600
2200
0000
2D00
6900
A840
B680
2E00
0000
2800
ENDCHAR
STARTCHAR uni1EC8
ENCODING 7880
SWIDTH 495 0
DWIDTH 4 0
BBX 5 12 0 0
BITMAP
0B40
0240
0740
3FC0
0E00
0D00
0D00
1C00
1C00
1800
2800
FF00
ENDCHAR
STARTCHAR uni1EC9
ENCODING 7881
SWIDTH 246 0
DWIDTH 2 0
BBX 4 9 0 0
BITMAP
78
18
34
00
20
60
A0
A9
74
ENDCHAR
STARTCHAR uni1ECA
ENCODING 7882
SWIDTH 495 0
DWIDTH 4 0
BBX 5 11 0 -2
BITMAP
3FC0
0E00
0D00
0D00
1C00
1C00
1800
2800
FF00
0000
2400
ENDCHAR
STARTCHAR uni1ECB
ENCODING 7883
SWIDTH 246 0
DWIDTH 2 0
BBX 4 9 0 -2
BITMAP
34
00
20
60
A0
A9
74
00
90
ENDCHAR
STARTCHAR uni1ECC
ENCODING 7884
SWIDTH 816 0
DWIDTH 7 0
BBX 7 11 0 -2
BITMAP
07E0
1D78
341C
701C
701C
701C
7028
39B0
1B90
0000
0700
ENDCHAR
STARTCHAR uni1ECD
ENCODING 7885
SWIDTH 451 0
DWIDTH 4 0
BBX 6 7 0 -2
BITMAP
2D00
6A00
97D0
A600
3C00
0000
2400
ENDCHAR
STARTCHAR uni1ECE
ENCODING 7886
SWIDTH 816 0
DWIDTH 7 0
BBX 7 12 0 0
BITMAP
01D0
0060
00D0
07E0
1D78
341C
701C
701C
701C
7028
39B0
1B90
ENDCHAR
STARTCHAR uni1ECF
ENCODING 7887
SWIDTH 451 0
DWIDTH 4 0
BBX 6 9 0 0
BITMAP
1D00
0600
0D00
0000
2D00
6A00
97D0
A600
3C00
ENDCHAR
STARTCHAR uni1ED0
ENCODING 7888
SWIDTH 816 0
DWIDTH 7 0
BBX 7 13 0 0
BITMAP
0004
0018
01D0
0260
07E0
1D78
341C
701C
701C
701C
7028
39B0
1B90
ENDCHAR
STARTCHAR uni1ED1
ENCODING 7889
SWIDTH 451 0
DWIDTH 4 0
BBX 6 10 0 0
BITMAP
0040
0180
1D00
2600
0000
2D00
6A00
97D0
A600
3C00
ENDCHAR
STARTCHAR uni1ED2
ENCODING 7890
SWIDTH 816 0
DWIDTH 7 0
BBX 7 13 0 0
BITMAP
0400
0A00
01D0
0260
07E0
1D78
341C
701C
701C
701C
7028
39B0
1B90
ENDCHAR
STARTCHAR uni1ED3
ENCODING 7891
SWIDTH 451 0
DWIDTH 4 0
BBX 6 10 0 0
BITMAP
4000
A000
1D00
2600
0000
2D00
6A00
97D0
A600
3C00
ENDCHAR
STARTCHAR uni1ED4
ENCODING 7892
SWIDTH 816 0
DWIDTH 7 0
BBX 8 12 0 0
BITMAP
001C
0009
01EC
07F0
1D78
341C
701C
701C
701C
7028
39B0
1B90
ENDCHAR
STARTCHAR uni1ED5
ENCODING 7893
SWIDTH 451 0
DWIDTH 4 0
BBX 6 9 0 0
BITMAP
01C0
0090
1EC0
3A00
2D00
6A00
97D0
A600
3C00
ENDCHAR
STARTCHAR uni1ED6
ENCODING 7894
SWIDTH 816 0
DWIDTH 7 0
BBX 7 13 0 0
BITMAP
0294
0160
01E0
0360
07E0
1D78
341C
701C
701C
701C
7028
39B0
1B90
ENDCHAR
STARTCHAR uni1ED7
ENCODING 7895
SWIDTH 451 0
DWIDTH 4 0
BBX 6 10 0 0
BITMAP
2A40
1600
1D00
3600
0000
2D00
6A00
97D0
A600
3C00
ENDCHAR
STARTCHAR uni1ED8
ENCODING 7896
SWIDTH 816 0
DWIDTH 7 0
BBX 7 14 0 -2
BITMAP
00D0
02A0
0320
07E0
1D78
341C
701C
701C
701C
7028
39B0
1B90
0000
0700
ENDCHAR
STARTCHAR uni1ED9
ENCODING 7897
SWIDTH 451 0
DWIDTH 4 0
BBX 6 12 0 -2
BITMAP
0400
1D00
2600
2200
0000
2D00
6A00
97D0
A600
3C00
0000
2400
ENDCHAR
STARTCHAR uni1EDA
ENCODING 7898
SWIDTH 816 0
DWIDTH 7 0
BBX 8 12 0 0
BITMAP
0004
0039
009A
07FD
1D78
341C
701C
701C
701C
7028
39B0
1B90
ENDCHAR
STARTCHAR uni1EDB
ENCODING 7899
SWIDTH 451 0
DWIDTH 4 0
BBX 6 9 0 0
BITMAP
0600
0900
0840
0240
2F00
6A00
97D0
A600
3C00
ENDCHAR
STARTCHAR uni1EDC
ENCODING 7900
SWIDTH 816 0
DWIDTH 7 0
BBX 8 12 0 0
BITMAP
0400
0E01
024A
07FD
1D78
341C
701C
701C
701C
7028
39B0
1B90
ENDCHAR
STARTCHAR uni1EDD
ENCODING 7901
SWIDTH 451 0
DWIDTH 4 0
BBX 6 10 0 0
BITMAP
1000
6000
3400
1440
0240
2F00
6A00
97D0
A600
3C00
ENDCHAR
STARTCHAR uni1EDE
ENCODING 7902
SWIDTH 816 0
DWIDTH 7 0
BBX 8 12 0 0
BITMAP
01D0
0061
00DA
07FD
1D78
341C
701C
701C
701C
7028
39B0
1B90
ENDCHAR
STARTCHAR uni1EDF
ENCODING 7903
SWIDTH 451 0
DWIDTH 4 0
BBX 6 9 0 0
BITMAP
1D00
0900
1D40
0240
2F00
6A00
97D0
A600
3C00
ENDCHAR
STARTCHAR uni1EE0
ENCODING 7904
SWIDTH 816 0
DWIDTH 7 0
BBX 8 11 0 0
BITMAP
0399
06BA
07FD
1D78
341C
701C
701C
701C
7028
39B0
1B90
ENDCHAR
STARTCHAR uni1EE1
ENCODING 7905
SWIDTH 451 0
DWIDTH 4 0
BBX 6 8 0 0
BITMAP
3600
5A40
0240
2F00
6A00
97D0
A600
3C00
ENDCHAR
STARTCHAR uni1EE2
ENCODING 7906
SWIDTH 816 0
DWIDTH 7 0
BBX 8 13 0 -2
BITMAP
0001
000A
07FD
1D78
341C
701C
701C
701C
7028
39B0
1B90
0000
0700
ENDCHAR
STARTCHAR uni1EE3
ENCODING 7907
SWIDTH 451 0
DWIDTH 4 0
BBX 6 9 0 -2
BITMAP
0040
0240
2F00
6A00
97D0
A600
3C00
0000
2400
ENDCHAR
STARTCHAR uni1EE4
ENCODING 7908
SWIDTH 890 0
DWIDTH 8 0
BBX 9 11 0 -2
BITMAP
2D0900
9A0D00
490D00
0D1D00
0C1C00
1C2C00
186C00
1D9DC0
0F4F40
000000
034000
ENDCHAR
STARTCHAR uni1EE5
ENCODING 7909
SWIDTH 462 0
DWIDTH 4 0
BBX 6 7 0 -2
BITMAP
2200
6600
AA00
AE90
7740
0000
2800
ENDCHAR
STARTCHAR uni1EE6
ENCODING 7910
SWIDTH 890 0
DWIDTH 8 0
BBX 9 12 0 0
BITMAP
00B000
002400
00B000
2D0900
9A0D00
490D00
0D1D00
0C1C00
1C2C00
186C00
1D9DC0
0F4F40
ENDCHAR
STARTCHAR uni1EE7
ENCODING 7911
SWIDTH 462 0
DWIDTH 4 0
BBX 6 9 0 0
BITMAP
0E00
0700
0A00
0000
2200
6600
AA00
AE90
7740
ENDCHAR
STARTCHAR uni1EE8
ENCODING 7912
SWIDTH 890 0
DWIDTH 8 0
BBX 9 12 0 0
BITMAP
000400
002C40
0061C0
2D0B40
9A0E00
490D00
0D1D00
0C1C00
1C2C00
186C00
1D9DC0
0F4F40
ENDCHAR
STARTCHAR uni1EE9
ENCODING 7913
SWIDTH 512 0
DWIDTH 5 0
BBX 6 9 0 0
BITMAP
0240
0700
0940
00C0
2380
6600
AA10
AE60
7780
ENDCHAR
STARTCHAR uni1EEA
ENCODING 7914
SWIDTH 890 0
DWIDTH 8 0
BBX 9 12 0 0
BITMAP
050000
074040
0181C0
2D0B40
9A0E00
490D00
0D1D00
0C1C00
1C2C00
186C00
1D9DC0
0F4F40
ENDCHAR
STARTCHAR uni1EEB
ENCODING 7915
SWIDTH 512 0
DWIDTH 5 0
BBX 6 10 0 0
BITMAP
1000
3400
1800
0840
00C0
2380
6600
AA10
AE60
7780
ENDCHAR
STARTCHAR uni1EEC
ENCODING 7916
SWIDTH 890 0
DWIDTH 8 0
BBX 9 12 0 0
BITMAP
00B000
002440
00B1C0
2D0B40
9A0E00
490D00
0D1D00
0C1C00
1C2C00
186C00
1D9DC0
0F4F40
ENDCHAR
STARTCHAR uni1EED
ENCODING 7917
SWIDTH 512 0
DWIDTH 5 0
BBX 6 9 0 0
BITMAP
0E00
0700
0A40
00C0
2380
6600
AA10
AE60
7780
ENDCHAR
STARTCHAR uni1EEE
ENCODING 7918
SWIDTH 890 0
DWIDTH 8 0
BBX 9 11 0 0
BITMAP
01D840
0275C0
2D0B40
9A0E00
490D00
0D1D00
0C1C00
1C2C00
186C00
1D9DC0
0F4F40
ENDCHAR
STARTCHAR uni1EEF
ENCODING 7919
SWIDTH 512 0
DWIDTH 5 0
BBX 6 8 0 0
BITMAP
1940
2740
00C0
2380
6600
AA10
AE60
7780
ENDCHAR
STARTCHAR uni1EF0
ENCODING 7920
SWIDTH 890 0
DWIDTH 8 0
BBX 9 13 0 -2
BITMAP
000040
0001C0
2D0B40
9A0E00
490D00
0D1D00
0C1C00
1C2C00
186C00
1D9DC0
0F4F40
000000
034000
ENDCHAR
STARTCHAR uni1EF1
ENCODING 7921
SWIDTH 512 0
DWIDTH 5 0
BBX 6 9 0 -2
BITMAP
0040
00C0
2380
6600
AA10
AE60
7780
0000
2800
ENDCHAR
STARTCHAR Ygrave
ENCODING 7922
SWIDTH 851 0
DWIDTH 8 0
BBX 9 15 0 -3
BITMAP
010000
074000
018000
2D0900
9A0D00
490D00
0D1D00
0D1C00
1C2C00
1C6C00
0BAE80
01F800
062400
097000
0BD000
ENDCHAR
STARTCHAR ygrave
ENCODING 7923
SWIDTH 479 0
DWIDTH 4 0
BBX 5 15 0 -5
BITMAP
1000
3400
1800
0800
0000
2300
6600
AA00
AEC0
7B40
1D00
6C00
9800
E400
A000
ENDCHAR
STARTCHAR uni1EF4
ENCODING 7924
SWIDTH 851 0
DWIDTH 8 0
BBX 9 12 0 -3
BITMAP
2D0900
9A0D00
490D00
0D1D00
0D1C00
1C2C00
1C6C00
0BAE80
01F800
062400
097000
0BD900
ENDCHAR
STARTCHAR uni1EF5
ENCODING 7925
SWIDTH 479 0
DWIDTH 4 0
BBX 5 10 0 -5
BITMAP
2300
6600
AA00
AEC0
7B40
1D00
6C00
9800
EB00
A000
ENDCHAR
STARTCHAR uni1EF6
ENCODING 7926
SWIDTH 851 0
DWIDTH 8 0
BBX 9 15 0 -3
BITMAP
00B000
002400
007000
2D0900
9A0D00
490D00
0D1D00
0D1C00
1C2C00
1C6C00
0BAE80
01F800
062400
097000
0BD000
ENDCHAR
STARTCHAR uni1EF7
ENCODING 7927
SWIDTH 479 0
DWIDTH 4 0
BBX 5 14 0 -5
BITMAP
0E00
0700
0A00
0000
2300
6600
AA00
AEC0
7B40
1D00
6C00
9800
E400
A000
ENDCHAR
STARTCHAR uni1EF8
ENCODING 7928
SWIDTH 851 0
DWIDTH 8 0
BBX 9 14 0 -3
BITMAP
01D800
026800
2D0900
9A0D00
490D00
0D1D00
0D1C00
1C2C00
1C6C00
0BAE80
01F800
062400
097000
0BD000
ENDCHAR
STARTCHAR uni1EF9
ENCODING 7929
SWIDTH 479 0
DWIDTH 4 0
BBX 5 13 0 -5
BITMAP
2980
2740
0000
2300
6600
AA00
AEC0
7B40
1D00
6C00
9800
E400
A000
ENDCHAR
STARTCHAR endash
ENCODING 8211
SWIDTH 484 0
DWIDTH 4 0
BBX 4 1 0 3
BITMAP
7F
ENDCHAR
STARTCHAR emdash
ENCODING 8212
SWIDTH 620 0
DWIDTH 6 0
BBX 5 1 0 3
BITMAP
7FC0
ENDCHAR
STARTCHAR quoteleft
ENCODING 8216
SWIDTH 237 0
DWIDTH 2 0
BBX 2 4 1 6
BITMAP
50
90
D0
40
ENDCHAR
STARTCHAR quoteright
ENCODING 8217
SWIDTH 236 0
DWIDTH 2 0
BBX 2 4 1 6
BITMAP
A0
90
C0
40
ENDCHAR
STARTCHAR quotesinglbase
ENCODING 8218
SWIDTH 257 0
DWIDTH 2 0
BBX 2 4 0 -2
BITMAP
10
A0
90
80
ENDCHAR
STARTCHAR quotedblleft
ENCODING 8220
SWIDTH 457 0
DWIDTH 4 0
BBX 4 4 1 6
BITMAP
55
99
DD
44
ENDCHAR
STARTCHAR quotedblright
ENCODING 8221
SWIDTH 456 0
DWIDTH 4 0
BBX 4 4 1 6
BITMAP
AA
99
CC
44
ENDCHAR
STARTCHAR quotedblbase
ENCODING 8222
SWIDTH 477 0
DWIDTH 4 0
BBX 4 4 0 -2
BITMAP
15
AA
99
88
ENDCHAR
STARTCHAR dagger
ENCODING 8224
SWIDTH 588 0
DWIDTH 5 0
BBX 4 8 1 2
BITMAP
08
18
BF
28
24
24
24
10
ENDCHAR
STARTCHAR daggerdbl
ENCODING 8225
SWIDTH 588 0
DWIDTH 5 0
BBX 4 8 1 2
BITMAP
08
18
BF
28
FE
24
24
10
ENDCHAR
STARTCHAR bullet
ENCODING 8226
SWIDTH 512 0
DWIDTH 5 0
BBX 3 3 1 1
BITMAP
B4
F8
B4
ENDCHAR
STARTCHAR ellipsis
ENCODING 8230
SWIDTH 777 0
DWIDTH 7 0
BBX 7 2 0 0
BITMAP
A724
A734
ENDCHAR
STARTCHAR perthousand
ENCODING 8240
SWIDTH 1277 0
DWIDTH 12 0
BBX 12 8 0 0
BITMAP
282400
6D7000
ABE000
29C000
029D38
033799
0A3699
082D78
ENDCHAR
STARTCHAR guilsinglleft
ENCODING 8249
SWIDTH 350 0
DWIDTH 3 0
BBX 3 4 0 0
BITMAP
28
A0
70
28
ENDCHAR
STARTCHAR guilsinglright
ENCODING 8250
SWIDTH 350 0
DWIDTH 3 0
BBX 3 4 0 0
BITMAP
60
28
28
60
ENDCHAR
STARTCHAR fraction
ENCODING 8260
SWIDTH 200 0
DWIDTH 2 0
BBX 4 7 -1 1
BITMAP
01
06
09
18
34
60
90
ENDCHAR
STARTCHAR uni2074
ENCODING 8308
SWIDTH 450 0
DWIDTH 4 0
BBX 3 5 1 3
BITMAP
20
A8
D8
FC
14
ENDCHAR
STARTCHAR colonmonetary
ENCODING 8353
SWIDTH 517 0
DWIDTH 5 0
BBX 5 8 0 -1
BITMAP
0680
2F80
7A80
6A40
B900
7940
7E00
A000
ENDCHAR
STARTCHAR franc
ENCODING 8355
SWIDTH 750 0
DWIDTH 7 0
BBX 7 6 0 0
BITMAP
7FD0
3030
7FB4
63A4
A340
5300
ENDCHAR
STARTCHAR lira
ENCODING 8356
SWIDTH 525 0
DWIDTH 5 0
BBX 5 6 0 0
BITMAP
1F40
3580
BD00
BD00
7400
BF40
ENDCHAR
STARTCHAR uni20A6
ENCODING 8358
SWIDTH 672 0
DWIDTH 6 0
BBX 6 7 0 0
BITMAP
1050
28A0
3D90
BFE0
BFE0
72C0
6080
ENDCHAR
STARTCHAR peseta
ENCODING 8359
SWIDTH 1085 0
DWIDTH 10 0
BBX 10 7 0 0
BITMAP
7D2000
773000
73FDC0
676180
7D62D0
A066A0
9039D0
ENDCHAR
STARTCHAR uni20A9
ENCODING 8361
SWIDTH 775 0
DWIDTH 7 0
BBX 7 6 0 0
BITMAP
BFFC
3768
BFFC
3B70
3AA0
29C0
ENDCHAR
STARTCHAR dong
ENCODING 8363
SWIDTH 463 0
DWIDTH 4 0
BBX 5 9 0 -1
BITMAP
0240
3F80
0340
2F00
7A00
A600
AA00
7900
FF00
ENDCHAR
STARTCHAR Euro
ENCODING 8364
SWIDTH 552 0
DWIDTH 5 0
BBX 5 6 0 0
BITMAP
1B40
39C0
BD40
BC00
3540
1F40
ENDCHAR
STARTCHAR uni20AD
ENCODING 8365
SWIDTH 590 0
DWIDTH 5 0
BBX 6 6 0 0
BITMAP
24C0
3640
BF80
6A00
6340
62D0
ENDCHAR
STARTCHAR uni20AE
ENCODING 8366
SWIDTH 513 0
DWIDTH 5 0
BBX 5 6 0 0
BITMAP
7F80
1D00
1D00
2E00
2800
1400
ENDCHAR
STARTCHAR uni20B1
ENCODING 8369
SWIDTH 557 0
DWIDTH 5 0
BBX 5 7 0 0
BITMAP
1500
7B00
BFC0
FFC0
7B00
7400
6000
ENDCHAR
STARTCHAR uni20B2
ENCODING 8370
SWIDTH 599 0
DWIDTH 5 0
BBX 5 10 0 -2
BITMAP
0100
0500
1F40
3A80
6840
A9C0
79C0
2EC0
0880
0400
ENDCHAR
STARTCHAR uni20B4
ENCODING 8372
SWIDTH 570 0
DWIDTH 5 0
BBX 5 6 0 0
BITMAP
2E00
2640
7F80
BF80
7540
2E00
ENDCHAR
STARTCHAR uni20B5
ENCODING 8373
SWIDTH 517 0
DWIDTH 5 0
BBX 5 10 0 -2
BITMAP
0500
0A00
2F40
7A80
6800
A800
7940
2E00
0800
0400
ENDCHAR
STARTCHAR uni20B8
ENCODING 8376
SWIDTH 522 0
DWIDTH 5 0
BBX 5 6 0 0
BITMAP
7F80
7F40
1C00
1800
1800
1400
ENDCHAR
STARTCHAR uni20B9
ENCODING 8377
SWIDTH 511 0
DWIDTH 5 0
BBX 5 5 0 0
BITMAP
7F80
7F80
B800
1C00
0B40
ENDCHAR
STARTCHAR uni20BA
ENCODING 8378
SWIDTH 452 0
DWIDTH 4 0
BBX 4 7 0 0
BITMAP
10
34
38
B8
70
A6
79
ENDCHAR
STARTCHAR uni20BC
ENCODING 8380
SWIDTH 673 0
DWIDTH 6 0
BBX 6 8 0 0
BITMAP
0100
0200
0B80
2AD0
3690
65A0
A5A0
9590
ENDCHAR
STARTCHAR uni20BD
ENCODING 8381
SWIDTH 505 0
DWIDTH 5 0
BBX 5 6 0 0
BITMAP
3E00
3640
3740
BE00
BC00
6000
ENDCHAR
STARTCHAR uni2116
ENCODING 8470
SWIDTH 1198 0
DWIDTH 11 0
BBX 11 9 0 0
BITMAP
19B4B4
2B69A8
2D2998
2C28F0
382400
3436F4
343000
707000
607000
ENDCHAR
STARTCHAR trademark
ENCODING 8482
SWIDTH 1150 0
DWIDTH 10 0
BBX 9 4 1 4
BITMAP
FDB680
319DC0
625980
621580
ENDCHAR
STARTCHAR partialdiff
ENCODING 8706
SWIDTH 451 0
DWIDTH 4 0
BBX 4 7 0 0
BITMAP
34
09
07
2F
A3
A6
78
ENDCHAR
STARTCHAR product
ENCODING 8719
SWIDTH 700 0
DWIDTH 6 0
BBX 6 8 0 0
BITMAP
1FF0
2870
2470
3460
30A0
7090
6090
5040
ENDCHAR
STARTCHAR summation
ENCODING 8721
SWIDTH 700 0
DWIDTH 6 0
BBX 6 8 0 0
BITMAP
2FF0
1D00
0700
0280
0280
0A00
2800
7FD0
ENDCHAR
STARTCHAR minus
ENCODING 8722
SWIDTH 700 0
DWIDTH 6 0
BBX 5 1 1 2
BITMAP
FF80
ENDCHAR
STARTCHAR uni2215
ENCODING 8725
SWIDTH 700 0
DWIDTH 6 0
BBX 5 9 1 0
BITMAP
0040
0180
0340
0A00
0D00
2800
3000
A000
C000
ENDCHAR
STARTCHAR uni2219
ENCODING 8729
SWIDTH 700 0
DWIDTH 6 0
BBX 2 1 2 2
BITMAP
B0
ENDCHAR
STARTCHAR radical
ENCODING 8730
SWIDTH 700 0
DWIDTH 6 0
BBX 7 9 0 -1
BITMAP
0004
0024
0030
0060
74C0
1980
0E40
0A00
0100
ENDCHAR
STARTCHAR infinity
ENCODING 8734
SWIDTH 700 0
DWIDTH 6 0
BBX 6 4 0 1
BITMAP
3AE0
9B30
9730
7AD0
ENDCHAR
STARTCHAR integral
ENCODING 8747
SWIDTH 700 0
DWIDTH 6 0
BBX 6 11 0 -3
BITMAP
01F0
0240
0340
0300
0700
0700
0600
0A00
0900
0D00
7800
ENDCHAR
STARTCHAR approxequal
ENCODING 8776
SWIDTH 700 0
DWIDTH 6 0
BBX 6 5 0 0
BITMAP
0410
3BA0
1040
2950
66C0
ENDCHAR
STARTCHAR notequal
ENCODING 8800
SWIDTH 700 0
DWIDTH 6 0
BBX 6 5 0 0
BITMAP
0180
3FE0
0600
7FD0
1800
ENDCHAR
STARTCHAR lessequal
ENCODING 8804
SWIDTH 700 0
DWIDTH 6 0
BBX 6 5 0 0
BITMAP
01A0
2E40
2E80
0050
7FD0
ENDCHAR
STARTCHAR greaterequal
ENCODING 8805
SWIDTH 700 0
DWIDTH 6 0
BBX 6 5 0 0
BITMAP
2900
06E0
1B90
2400
7FD0
ENDCHAR
STARTCHAR lozenge
ENCODING 9674
SWIDTH 700 0
DWIDTH 6 0
BBX 5 9 1 0
BITMAP
0400
0E00
2B00
3240
9180
9240
6600
3C00
2800
ENDCHAR
STARTCHAR fi
ENCODING 64257
SWIDTH 633 0
DWIDTH 6 0
BBX 7 13 0 -3
BITMAP
0700
0E40
1A40
26A0
3D00
BFD0
74D0
75C0
75D8
75A0
7500
3800
3800
ENDCHAR
STARTCHAR fl
ENCODING 64258
SWIDTH 688 0
DWIDTH 6 0
BBX 8 13 0 -3
BITMAP
0B28
1E6C
2698
36DC
39D8
79E4
71E0
6FC0
A9D9
A8B4
6800
6800
3400
ENDCHAR
STARTCHAR .notdef
ENCODING -1
SWIDTH 265 0
DWIDTH 2 0
BBX 1 1 0 0
BITMAP
00
ENDCHAR
STARTCHAR Iacute_J.loclNLD
ENCODING -1
SWIDTH 776 0
DWIDTH 7 0
BBX 8 12 1 0
BITMAP
0105
0E1D
2424
6060
A0A0
A0A0
D0D0
E6D0
BDD0
11C0
9680
BE00
ENDCHAR
STARTCHAR A.ss01
ENCODING -1
SWIDTH 780 0
DWIDTH 7 0
BBX 8 9 0 0
BITMAP
02FD
0A54
2828
3434
7034
7070
70B0
75F0
2E60
ENDCHAR
STARTCHAR Aacute.ss01
ENCODING -1
SWIDTH 780 0
DWIDTH 7 0
BBX 8 12 0 0
BITMAP
0001
000E
0024
02FD
0A54
2828
3434
7034
7070
70B0
75F0
2E60
ENDCHAR
STARTCHAR Abreve.ss01
ENCODING -1
SWIDTH 780 0
DWIDTH 7 0
BBX 8 11 0 0
BITMAP
0189
00F8
02FD
0A54
2828
3434
7034
7070
70B0
75F0
2E60
ENDCHAR
STARTCHAR uni1EAE.ss01
ENCODING -1
SWIDTH 780 0
DWIDTH 7 0
BBX 8 12 0 0
BITMAP
0018
0199
00F8
02FD
0A54
2828
3434
7034
7070
70B0
75F0
2E60
ENDCHAR
STARTCHAR uni1EB6.ss01
ENCODING -1
SWIDTH 780 0
DWIDTH 7 0
BBX 8 13 0 -2
BITMAP
0189
00F8
02FD
0A54
2828
3434
7034
7070
70B0
75F0
2E60
0000
0700
ENDCHAR
STARTCHAR uni1EB0.ss01
ENCODING -1
SWIDTH 780 0
DWIDTH 7 0
BBX 8 12 0 0
BITMAP
0090
0195
00F8
02FD
0A54
2828
3434
7034
7070
70B0
75F0
2E60
ENDCHAR
STARTCHAR uni1EB2.ss01
ENCODING -1
SWIDTH 780 0
DWIDTH 7 0
BBX 8 13 0 0
BITMAP
0074
0034
0189
00B8
02FD
0A54
2828
3434
7034
7070
70B0
75F0
2E60
ENDCHAR
STARTCHAR uni1EB4.ss01
ENCODING -1
SWIDTH 780 0
DWIDTH 7 0
BBX 8 13 0 0
BITMAP
00A5
0058
0189
00B8
02FD
0A54
2828
3434
7034
7070
70B0
75F0
2E60
ENDCHAR
STARTCHAR Acircumflex.ss01
ENCODING -1
SWIDTH 780 0
DWIDTH 7 0
BBX 8 12 0 0
BITMAP
0034
00A8
00C8
02FD
0A54
2828
3434
7034
7070
70B0
75F0
2E60
ENDCHAR
STARTCHAR uni1EA4.ss01
ENCODING -1
SWIDTH 780 0
DWIDTH 7 0
BBX 8 13 0 0
BITMAP
0001
0006
0074
0098
02FD
0A54
2828
3434
7034
7070
70B0
75F0
2E60
ENDCHAR
STARTCHAR uni1EAC.ss01
ENCODING -1
SWIDTH 780 0
DWIDTH 7 0
BBX 8 14 0 -2
BITMAP
0034
00A8
00C8
02FD
0A54
2828
3434
7034
7070
70B0
75F0
2E60
0000
0700
ENDCHAR
STARTCHAR uni1EA6.ss01
ENCODING -1
SWIDTH 780 0
DWIDTH 7 0
BBX 8 13 0 0
BITMAP
0100
0280
0074
0098
02FD
0A54
2828
3434
7034
7070
70B0
75F0
2E60
ENDCHAR
STARTCHAR uni1EA8.ss01
ENCODING -1
SWIDTH 780 0
DWIDTH 7 0
BBX 9 12 0 0
BITMAP
000700
000240
007B00
02FD00
0A5400
282800
343400
703400
707000
70B000
75F000
2E6000
ENDCHAR
STARTCHAR uni1EAA.ss01
ENCODING -1
SWIDTH 780 0
DWIDTH 7 0
BBX 8 13 0 0
BITMAP
00A9
0058
0078
00D8
02FD
0A54
2828
3434
7034
7070
70B0
75F0
2E60
ENDCHAR
STARTCHAR uni0200.ss01
ENCODING -1
SWIDTH 780 0
DWIDTH 7 0
BBX 8 12 0 0
BITMAP
0050
01A4
0094
02FD
0A54
2828
3434
7034
7070
70B0
75F0
2E60
ENDCHAR
STARTCHAR Adieresis.ss01
ENCODING -1
SWIDTH 780 0
DWIDTH 7 0
BBX 8 10 0 0
BITMAP
00DC
02FD
0A54
2828
3434
7034
7070
70B0
75F0
2E60
ENDCHAR
STARTCHAR uni1EA0.ss01
ENCODING -1
SWIDTH 780 0
DWIDTH 7 0
BBX 8 11 0 -2
BITMAP
02FD
0A54
2828
3434
7034
7070
70B0
75F0
2E60
0000
0700
ENDCHAR
STARTCHAR Agrave.ss01
ENCODING -1
SWIDTH 780 0
DWIDTH 7 0
BBX 8 12 0 0
BITMAP
0100
0380
0090
02FD
0A54
2828
3434
7034
7070
70B0
75F0
2E60
ENDCHAR
STARTCHAR uni1EA2.ss01
ENCODING -1
SWIDTH 780 0
DWIDTH 7 0
BBX 8 12 0 0
BITMAP
0074
0018
0034
02FD
0A54
2828
3434
7034
7070
70B0
75F0
2E60
ENDCHAR
STARTCHAR uni0202.ss01
ENCODING -1
SWIDTH 780 0
DWIDTH 7 0
BBX 8 11 0 0
BITMAP
00B8
0199
02FD
0A54
2828
3434
7034
7070
70B0
75F0
2E60
ENDCHAR
STARTCHAR Amacron.ss01
ENCODING -1
SWIDTH 780 0
DWIDTH 7 0
BBX 8 10 0 0
BITMAP
00F8
02FD
0A54
2828
3434
7034
7070
70B0
75F0
2E60
ENDCHAR
STARTCHAR Aogonek.ss01
ENCODING -1
SWIDTH 780 0
DWIDTH 7 0
BBX 8 12 0 -3
BITMAP
02FD
0A54
2828
3434
7034
7070
70B0
75F0
2EA0
0080
00C0
00F4
ENDCHAR
STARTCHAR Aring.ss01
ENCODING -1
SWIDTH 780 0
DWIDTH 7 0
BBX 8 12 0 0
BITMAP
0074
0098
0074
02FD
0A54
2828
3434
7034
7070
70B0
75F0
2E60
ENDCHAR
STARTCHAR Aringacute.ss01
ENCODING -1
SWIDTH 780 0
DWIDTH 7 0
BBX 9 14 0 0
BITMAP
000180
007600
009800
007400
000000
02FD00
0A5400
282800
343400
703400
707000
70B000
75F000
2E6000
ENDCHAR
STARTCHAR Atilde.ss01
ENCODING -1
SWIDTH 780 0
DWIDTH 7 0
BBX 8 11 0 0
BITMAP
00E5
01AC
02FD
0A54
2828
3434
7034
7070
70B0
75F0
2E60
ENDCHAR
STARTCHAR AE.ss01
ENCODING -1
SWIDTH 1057 0
DWIDTH 10 0
BBX 10 9 0 0
BITMAP
02DFE0
0F5C00
282800
343400
703FC0
707400
70B000
75B950
1F5BD0
ENDCHAR
STARTCHAR AEacute.ss01
ENCODING -1
SWIDTH 1057 0
DWIDTH 10 0
BBX 10 12 0 0
BITMAP
000040
000380
000900
02DFE0
0F5C00
282800
343400
703FC0
707400
70B000
75B950
1F5BD0
ENDCHAR
STARTCHAR B.ss01
ENCODING -1
SWIDTH 826 0
DWIDTH 7 0
BBX 7 9 1 0
BITMAP
6F90
55B0
6034
A0B0
AB80
D1D0
D0A0
D6D0
FE40
ENDCHAR
STARTCHAR C.ss01
ENCODING -1
SWIDTH 704 0
DWIDTH 6 0
BBX 7 9 0 0
BITMAP
06E0
1D74
3434
7010
7000
7000
7000
3974
1B90
ENDCHAR
STARTCHAR Cacute.ss01
ENCODING -1
SWIDTH 704 0
DWIDTH 6 0
BBX 7 12 0 0
BITMAP
0004
0038
0090
06E0
1D74
3434
7010
7000
7000
7000
3974
1B90
ENDCHAR
STARTCHAR Ccaron.ss01
ENCODING -1
SWIDTH 704 0
DWIDTH 6 0
BBX 7 12 0 0
BITMAP
0110
0260
01D0
06E0
1D74
3434
7010
7000
7000
7000
3974
1B90
ENDCHAR
STARTCHAR Ccedilla.ss01
ENCODING -1
SWIDTH 704 0
DWIDTH 6 0
BBX 7 12 0 -3
BITMAP
06E0
1D74
3434
7020
7000
7000
7000
3824
0B90
0240
0240
0F00
ENDCHAR
STARTCHAR Ccircumflex.ss01
ENCODING -1
SWIDTH 704 0
DWIDTH 6 0
BBX 7 12 0 0
BITMAP
00D0
02A0
0320
06E0
1D74
3434
7010
7000
7000
7000
3974
1B90
ENDCHAR
STARTCHAR Cdotaccent.ss01
ENCODING -1
SWIDTH 704 0
DWIDTH 6 0
BBX 7 10 0 0
BITMAP
01C0
07E0
1D74
3434
7010
7000
7000
7000
3974
1B90
ENDCHAR
STARTCHAR D.ss01
ENCODING -1
SWIDTH 810 0
DWIDTH 7 0
BBX 7 9 0 0
BITMAP
1BD0
1578
181C
281C
241C
341C
3438
75B0
3F80
ENDCHAR
STARTCHAR uni01C4.ss01
ENCODING -1
SWIDTH 1455 0
DWIDTH 13 0
BBX 14 12 0 0
BITMAP
00000440
00000E40
00000A00
1BD0FFD0
157802C0
181C0380
281C0B00
241C1D00
341C3800
3438B000
75B1D000
3F82FF80
ENDCHAR
STARTCHAR Eth.ss01
ENCODING -1
SWIDTH 821 0
DWIDTH 7 0
BBX 8 9 0 0
BITMAP
0BE0
0D78
1C1C
180D
BF4C
381C
3428
35B0
3F80
ENDCHAR
STARTCHAR Dcaron.ss01
ENCODING -1
SWIDTH 810 0
DWIDTH 7 0
BBX 7 12 0 0
BITMAP
0110
0360
0180
1BD0
1578
181C
281C
241C
341C
3438
75B0
3F80
ENDCHAR
STARTCHAR Dcroat.ss01
ENCODING -1
SWIDTH 821 0
DWIDTH 7 0
BBX 8 9 0 0
BITMAP
0BE0
0D78
1C1C
180D
BF4C
381C
3428
35B0
3F80
ENDCHAR
STARTCHAR E.ss01
ENCODING -1
SWIDTH 720 0
DWIDTH 6 0
BBX 7 9 0 0
BITMAP
0BE0
2D74
3434
2810
1F40
7500
A000
7574
2F90
ENDCHAR
STARTCHAR Eacute.ss01
ENCODING -1
SWIDTH 720 0
DWIDTH 6 0
BBX 7 12 0 0
BITMAP
0010
0074
0090
0BE0
2D74
3434
2810
1F40
7500
A000
7574
2F90
ENDCHAR
STARTCHAR Ebreve.ss01
ENCODING -1
SWIDTH 720 0
DWIDTH 6 0
BBX 7 11 0 0
BITMAP
0520
07E0
0BE0
2D74
3434
2810
1F40
7500
A000
7574
2F90
ENDCHAR
STARTCHAR Ecaron.ss01
ENCODING -1
SWIDTH 720 0
DWIDTH 6 0
BBX 7 12 0 0
BITMAP
0110
0360
01C0
0BE0
2D74
3434
2810
1F40
7500
A000
7574
2F90
ENDCHAR
STARTCHAR Ecircumflex.ss01
ENCODING -1
SWIDTH 720 0
DWIDTH 6 0
BBX 7 12 0 0
BITMAP
01C0
03A0
0660
0BE0
2D74
3434
2810
1F40
7500
A000
7574
2F90
ENDCHAR
STARTCHAR uni1EBE.ss01
ENCODING -1
SWIDTH 720 0
DWIDTH 6 0
BBX 7 13 0 0
BITMAP
0004
0018
01D0
0260
0BE0
2D74
3434
2810
1F40
7500
A000
7574
2F90
ENDCHAR
STARTCHAR uni1EC6.ss01
ENCODING -1
SWIDTH 720 0
DWIDTH 6 0
BBX 7 14 0 -2
BITMAP
01C0
03A0
0660
0BE0
2D74
3434
2810
1F40
7500
A000
7574
2F90
0000
0A00
ENDCHAR
STARTCHAR uni1EC0.ss01
ENCODING -1
SWIDTH 720 0
DWIDTH 6 0
BBX 7 13 0 0
BITMAP
0400
0900
01D0
0260
0BE0
2D74
3434
2810
1F40
7500
A000
7574
2F90
ENDCHAR
STARTCHAR uni1EC2.ss01
ENCODING -1
SWIDTH 720 0
DWIDTH 6 0
BBX 7 12 0 0
BITMAP
0028
0008
01E8
0BF0
2D74
3434
2810
1F40
7500
A000
7574
2F90
ENDCHAR
STARTCHAR uni1EC4.ss01
ENCODING -1
SWIDTH 720 0
DWIDTH 6 0
BBX 7 13 0 0
BITMAP
02A0
0150
02D0
0660
0BE0
2D74
3434
2810
1F40
7500
A000
7574
2F90
ENDCHAR
STARTCHAR uni0204.ss01
ENCODING -1
SWIDTH 720 0
DWIDTH 6 0
BBX 7 12 0 0
BITMAP
0440
0AC0
0250
0BE0
2D74
3434
2810
1F40
7500
A000
7574
2F90
ENDCHAR
STARTCHAR Edieresis.ss01
ENCODING -1
SWIDTH 720 0
DWIDTH 6 0
BBX 7 10 0 0
BITMAP
0760
0BE0
2D74
3434
2810
1F40
7500
A000
7574
2F90
ENDCHAR
STARTCHAR Edotaccent.ss01
ENCODING -1
SWIDTH 720 0
DWIDTH 6 0
BBX 7 10 0 0
BITMAP
01C0
0BE0
2D74
3434
2810
1F40
7500
A000
7574
2F90
ENDCHAR
STARTCHAR uni1EB8.ss01
ENCODING -1
SWIDTH 720 0
DWIDTH 6 0
BBX 7 11 0 -2
BITMAP
0BE0
2D74
3434
2810
1F40
7500
A000
7574
2F90
0000
0A00
ENDCHAR
STARTCHAR Egrave.ss01
ENCODING -1
SWIDTH 720 0
DWIDTH 6 0
BBX 7 12 0 0
BITMAP
0400
0E00
0240
0BE0
2D74
3434
2810
1F40
7500
A000
7574
2F90
ENDCHAR
STARTCHAR uni1EBA.ss01
ENCODING -1
SWIDTH 720 0
DWIDTH 6 0
BBX 7 12 0 0
BITMAP
01D0
00A0
01D0
0BE0
2D74
3434
2810
1F40
7500
A000
7574
2F90
ENDCHAR
STARTCHAR uni0206.ss01
ENCODING -1
SWIDTH 720 0
DWIDTH 6 0
BBX 7 11 0 0
BITMAP
02E0
0670
0BE0
2D74
3434
2810
1F40
7500
A000
7574
2F90
ENDCHAR
STARTCHAR Emacron.ss01
ENCODING -1
SWIDTH 720 0
DWIDTH 6 0
BBX 7 10 0 0
BITMAP
03E0
0BE0
2D74
3434
2810
1F40
7500
A000
7574
2F90
ENDCHAR
STARTCHAR Eogonek.ss01
ENCODING -1
SWIDTH 720 0
DWIDTH 6 0
BBX 7 12 0 -3
BITMAP
0BE0
2D74
3434
2810
1F40
7500
A000
7574
2FD0
0300
0700
03C0
ENDCHAR
STARTCHAR uni1EBC.ss01
ENCODING -1
SWIDTH 720 0
DWIDTH 6 0
BBX 7 11 0 0
BITMAP
0764
09A0
0BE0
2D74
3434
2810
1F40
7500
A000
7574
2F90
ENDCHAR
STARTCHAR F.ss01
ENCODING -1
SWIDTH 671 0
DWIDTH 6 0
BBX 7 9 0 0
BITMAP
3FF8
0D00
0D00
1C00
7FD0
2800
2800
2800
2400
ENDCHAR
STARTCHAR G.ss01
ENCODING -1
SWIDTH 811 0
DWIDTH 7 0
BBX 7 12 0 -3
BITMAP
06E0
1D74
3424
7010
7000
70B8
7428
2968
0BF8
0024
0034
0010
ENDCHAR
STARTCHAR Gbreve.ss01
ENCODING -1
SWIDTH 811 0
DWIDTH 7 0
BBX 7 14 0 -3
BITMAP
0214
02F0
06E0
1D74
3424
7010
7000
70B8
7428
2968
0BF8
0024
0034
0010
ENDCHAR
STARTCHAR Gcaron.ss01
ENCODING -1
SWIDTH 811 0
DWIDTH 7 0
BBX 7 15 0 -3
BITMAP
0110
0270
00D0
06E0
1D74
3424
7010
7000
70B8
7428
2968
0BF8
0024
0034
0010
ENDCHAR
STARTCHAR Gcircumflex.ss01
ENCODING -1
SWIDTH 811 0
DWIDTH 7 0
BBX 7 15 0 -3
BITMAP
00D0
02B0
0330
06E0
1D74
3424
7010
7000
70B8
7428
2968
0BF8
0024
0034
0010
ENDCHAR
STARTCHAR uni0122.ss01
ENCODING -1
SWIDTH 811 0
DWIDTH 7 0
BBX 7 12 0 -3
BITMAP
06E0
1D74
3424
7010
7000
70B8
7428
2968
0BF8
0024
0334
0210
ENDCHAR
STARTCHAR Gdotaccent.ss01
ENCODING -1
SWIDTH 811 0
DWIDTH 7 0
BBX 7 13 0 -3
BITMAP
00D0
06E0
1D74
3424
7010
7000
70B8
7428
2968
0BF8
0024
0034
0010
ENDCHAR
STARTCHAR H.ss01
ENCODING -1
SWIDTH 846 0
DWIDTH 8 0
BBX 8 9 0 0
BITMAP
0C0C
1C1C
1C1C
281C
7FFD
3828
3434
3434
3030
ENDCHAR
STARTCHAR Hbar.ss01
ENCODING -1
SWIDTH 856 0
DWIDTH 8 0
BBX 8 9 0 0
BITMAP
0C0C
3FFE
1C1C
281C
7FFE
2828
3424
3434
3034
ENDCHAR
STARTCHAR Hcircumflex.ss01
ENCODING -1
SWIDTH 846 0
DWIDTH 8 0
BBX 8 12 0 0
BITMAP
00A0
01B0
0260
0C0C
1C1C
1C1C
281C
7FFD
3828
3434
3434
3030
ENDCHAR
STARTCHAR I.ss01
ENCODING -1
SWIDTH 357 0
DWIDTH 3 0
BBX 3 9 0 0
BITMAP
18
1C
28
28
24
34
34
70
70
ENDCHAR
STARTCHAR Iacute.ss01
ENCODING -1
SWIDTH 357 0
DWIDTH 3 0
BBX 5 12 0 0
BITMAP
0040
0380
0900
1800
1C00
2800
2800
2400
3400
3400
7000
7000
ENDCHAR
STARTCHAR Iacute_J.loclNLD.ss01
ENCODING -1
SWIDTH 776 0
DWIDTH 7 0
BBX 8 12 1 0
BITMAP
0105
0E1D
2424
6060
A0A0
A0A0
D0D0
E6D0
BDD0
11C0
9680
BE00
ENDCHAR
STARTCHAR Ibreve.ss01
ENCODING -1
SWIDTH 357 0
DWIDTH 3 0
BBX 5 11 0 0
BITMAP
6240
3E00
1C00
1C00
2800
2800
2400
3400
3400
7000
7000
ENDCHAR
STARTCHAR Icircumflex.ss01
ENCODING -1
SWIDTH 357 0
DWIDTH 3 0
BBX 4 12 0 0
BITMAP
0D
2A
33
18
1C
28
28
24
34
34
70
70
ENDCHAR
STARTCHAR uni0208.ss01
ENCODING -1
SWIDTH 357 0
DWIDTH 3 0
BBX 4 12 0 0
BITMAP
14
69
26
18
1C
28
28
24
34
34
70
70
ENDCHAR
STARTCHAR Idieresis.ss01
ENCODING -1
SWIDTH 357 0
DWIDTH 3 0
BBX 4 10 0 0
BITMAP
37
18
1C
28
28
24
34
34
70
70
ENDCHAR
STARTCHAR Idotaccent.ss01
ENCODING -1
SWIDTH 357 0
DWIDTH 3 0
BBX 4 10 0 0
BITMAP
0D
1C
1C
28
28
24
34
34
70
70
ENDCHAR
STARTCHAR uni1ECA.ss01
ENCODING -1
SWIDTH 357 0
DWIDTH 3 0
BBX 3 11 0 -2
BITMAP
18
1C
28
28
24
34
34
70
70
00
A0
ENDCHAR
STARTCHAR Igrave.ss01
ENCODING -1
SWIDTH 357 0
DWIDTH 3 0
BBX 3 12 0 0
BITMAP
40
E0
28
18
1C
28
28
24
34
34
70
70
ENDCHAR
STARTCHAR uni1EC8.ss01
ENCODING -1
SWIDTH 357 0
DWIDTH 3 0
BBX 4 12 0 0
BITMAP
1D
06
0D
1C
1C
28
28
24
34
34
70
70
ENDCHAR
STARTCHAR uni020A.ss01
ENCODING -1
SWIDTH 357 0
DWIDTH 3 0
BBX 5 11 0 0
BITMAP
2E00
6640
1800
1C00
2800
2800
2400
3400
3400
7000
7000
ENDCHAR
STARTCHAR Imacron.ss01
ENCODING -1
SWIDTH 357 0
DWIDTH 3 0
BBX 4 10 0 0
BITMAP
3E
1C
1C
28
28
24
34
34
70
70
ENDCHAR
STARTCHAR Iogonek.ss01
ENCODING -1
SWIDTH 357 0
DWIDTH 3 0
BBX 3 12 0 -3
BITMAP
18
1C
28
28
24
34
34
70
70
60
90
B8
ENDCHAR
STARTCHAR Itilde.ss01
ENCODING -1
SWIDTH 357 0
DWIDTH 3 0
BBX 5 11 0 0
BITMAP
3940
6B00
1800
1C00
2800
2800
2400
3400
3400
7000
7000
ENDCHAR
STARTCHAR J.ss01
ENCODING -1
SWIDTH 716 0
DWIDTH 6 0
BBX 7 9 0 0
BITMAP
1BE4
3570
7070
20A0
00A0
0090
10D0
75C0
2F40
ENDCHAR
STARTCHAR Jcircumflex.ss01
ENCODING -1
SWIDTH 716 0
DWIDTH 6 0
BBX 7 12 0 0
BITMAP
01C0
0390
0660
1BE4
3570
7070
20A0
00A0
0090
10D0
75C0
2F40
ENDCHAR
STARTCHAR K.ss01
ENCODING -1
SWIDTH 779 0
DWIDTH 7 0
BBX 7 9 0 0
BITMAP
1C18
1C28
2870
29D0
7F40
3680
35C0
70E0
3078
ENDCHAR
STARTCHAR uni0136.ss01
ENCODING -1
SWIDTH 779 0
DWIDTH 7 0
BBX 7 12 0 -3
BITMAP
1C18
1C28
2870
29D0
7F40
3680
35C0
70E0
3078
0000
0600
0500
ENDCHAR
STARTCHAR L.ss01
ENCODING -1
SWIDTH 625 0
DWIDTH 6 0
BBX 6 9 0 0
BITMAP
1800
1800
2800
2800
3400
3400
3000
7540
7FD0
ENDCHAR
STARTCHAR uni01C7.ss01
ENCODING -1
SWIDTH 1291 0
DWIDTH 12 0
BBX 12 9 0 0
BITMAP
1802FD
180D5D
280C1C
28081C
340018
340028
300424
755D70
7FD7D0
ENDCHAR
STARTCHAR Lacute.ss01
ENCODING -1
SWIDTH 625 0
DWIDTH 6 0
BBX 6 12 0 0
BITMAP
0040
0380
0900
1800
1800
2800
2800
3400
3400
3000
7540
7FD0
ENDCHAR
STARTCHAR Lcaron.ss01
ENCODING -1
SWIDTH 625 0
DWIDTH 6 0
BBX 6 9 0 0
BITMAP
1800
1800
2890
2880
3400
3400
3000
7540
7FD0
ENDCHAR
STARTCHAR uni013B.ss01
ENCODING -1
SWIDTH 625 0
DWIDTH 6 0
BBX 6 12 0 -3
BITMAP
1800
1800
2800
2800
3400
3400
3000
7540
7FD0
0000
0900
0900
ENDCHAR
STARTCHAR Ldot.ss01
ENCODING -1
SWIDTH 625 0
DWIDTH 6 0
BBX 6 9 0 0
BITMAP
1800
1800
2800
2800
35C0
3400
3000
7540
7FD0
ENDCHAR
STARTCHAR uni01C8.ss01
ENCODING -1
SWIDTH 854 0
DWIDTH 8 0
BBX 8 14 0 -5
BITMAP
1800
1800
280A
2800
3409
3409
3009
754D
7FDC
002C
0068
00A4
01B0
01E0
ENDCHAR
STARTCHAR Lslash.ss01
ENCODING -1
SWIDTH 625 0
DWIDTH 6 0
BBX 6 9 0 0
BITMAP
1800
1800
2A40
2E00
B400
7400
3000
7540
7FD0
ENDCHAR
STARTCHAR M.ss01
ENCODING -1
SWIDTH 1139 0
DWIDTH 10 0
BBX 10 9 0 0
BITMAP
19E2D0
2A7AA0
2D3860
2C34A0
3874A0
3470D0
34A0D0
70A1C0
6091C0
ENDCHAR
STARTCHAR N.ss01
ENCODING -1
SWIDTH 799 0
DWIDTH 7 0
BBX 7 9 0 0
BITMAP
19B4
2B68
2D28
2C28
3824
3434
3430
7070
6070
ENDCHAR
STARTCHAR uni01CA.ss01
ENCODING -1
SWIDTH 1515 0
DWIDTH 14 0
BBX 14 9 0 0
BITMAP
19B42FD0
2B68D5D0
2D28C1C0
2C2881C0
38240180
34340280
34304240
7070D700
60707D00
ENDCHAR
STARTCHAR Nacute.ss01
ENCODING -1
SWIDTH 799 0
DWIDTH 7 0
BBX 7 12 0 0
BITMAP
0004
0038
0090
19B4
2B68
2D28
2C28
3824
3434
3430
7070
6070
ENDCHAR
STARTCHAR Ncaron.ss01
ENCODING -1
SWIDTH 799 0
DWIDTH 7 0
BBX 7 12 0 0
BITMAP
0110
0260
01D0
19B4
2B68
2D28
2C28
3824
3434
3430
7070
6070
ENDCHAR
STARTCHAR uni0145.ss01
ENCODING -1
SWIDTH 799 0
DWIDTH 7 0
BBX 7 12 0 -3
BITMAP
19B4
2B68
2D28
2C28
3824
3434
3430
7070
6070
0000
0600
0500
ENDCHAR
STARTCHAR Eng.ss01
ENCODING -1
SWIDTH 792 0
DWIDTH 7 0
BBX 7 13 0 -4
BITMAP
19B4
2B68
2D28
2C28
3834
3434
3470
7060
60A0
00D0
00C0
3180
2F00
ENDCHAR
STARTCHAR uni01CB.ss01
ENCODING -1
SWIDTH 1008 0
DWIDTH 9 0
BBX 9 14 0 -5
BITMAP
19B400
2B6800
2D28C0
2C2800
382480
343580
343180
707280
607240
000740
000B00
002700
003A00
002800
ENDCHAR
STARTCHAR Ntilde.ss01
ENCODING -1
SWIDTH 799 0
DWIDTH 7 0
BBX 7 11 0 0
BITMAP
0394
06B0
19B4
2B68
2D28
2C28
3824
3434
3430
7070
6070
ENDCHAR
STARTCHAR OE.ss01
ENCODING -1
SWIDTH 1166 0
DWIDTH 11 0
BBX 11 9 0 0
BITMAP
07E7F8
1D7F00
341E00
701D00
701FF0
701D00
702C00
39BE54
1B96F4
ENDCHAR
STARTCHAR P.ss01
ENCODING -1
SWIDTH 662 0
DWIDTH 6 0
BBX 6 9 0 0
BITMAP
2F80
2DA0
1C70
1870
29E0
7F80
3400
3400
3000
ENDCHAR
STARTCHAR Thorn.ss01
ENCODING -1
SWIDTH 658 0
DWIDTH 6 0
BBX 6 9 0 0
BITMAP
0C00
1F80
2DE0
28A0
28A0
29D0
BF40
3400
3000
ENDCHAR
STARTCHAR Q.ss01
ENCODING -1
SWIDTH 816 0
DWIDTH 7 0
BBX 7 12 0 -3
BITMAP
07E0
1D68
341C
701C
701C
701C
7028
2DB0
0B80
01C0
00E0
0050
ENDCHAR
STARTCHAR R.ss01
ENCODING -1
SWIDTH 744 0
DWIDTH 7 0
BBX 7 9 0 0
BITMAP
2F80
2DA0
1C70
29D0
7F40
3B40
36C0
35D0
30B8
ENDCHAR
STARTCHAR Racute.ss01
ENCODING -1
SWIDTH 744 0
DWIDTH 7 0
BBX 7 12 0 0
BITMAP
0010
00B0
0180
2F80
2DA0
1C70
29D0
7F40
3B40
36C0
35D0
30B8
ENDCHAR
STARTCHAR Rcaron.ss01
ENCODING -1
SWIDTH 744 0
DWIDTH 7 0
BBX 7 12 0 0
BITMAP
0110
0690
0280
2F80
2DA0
1C70
29D0
7F40
3B40
36C0
35D0
30B8
ENDCHAR
STARTCHAR uni0156.ss01
ENCODING -1
SWIDTH 744 0
DWIDTH 7 0
BBX 7 12 0 -3
BITMAP
2F80
2DA0
1C70
29D0
7F40
3B40
36C0
35D0
30B8
0000
0600
0500
ENDCHAR
STARTCHAR uni0210.ss01
ENCODING -1
SWIDTH 744 0
DWIDTH 7 0
BBX 7 12 0 0
BITMAP
0440
0D80
0580
2F80
2DA0
1C70
29D0
7F40
3B40
36C0
35D0
30B8
ENDCHAR
STARTCHAR uni0212.ss01
ENCODING -1
SWIDTH 744 0
DWIDTH 7 0
BBX 7 11 0 0
BITMAP
07D0
0960
2F90
2DA0
1C70
29D0
7F40
3B40
36C0
35D0
30B8
ENDCHAR
STARTCHAR T.ss01
ENCODING -1
SWIDTH 631 0
DWIDTH 6 0
BBX 7 9 0 0
BITMAP
7FF8
1740
0700
0600
0A00
0A00
0D00
0D00
0C00
ENDCHAR
STARTCHAR Tbar.ss01
ENCODING -1
SWIDTH 631 0
DWIDTH 6 0
BBX 7 9 0 0
BITMAP
7FF8
1740
0700
0600
3FC0
0A00
0D00
0D00
0C00
ENDCHAR
STARTCHAR Tcaron.ss01
ENCODING -1
SWIDTH 631 0
DWIDTH 6 0
BBX 7 12 0 0
BITMAP
0410
0690
0280
7FF8
1740
0700
0600
0A00
0A00
0D00
0D00
0C00
ENDCHAR
STARTCHAR uni0162.ss01
ENCODING -1
SWIDTH 631 0
DWIDTH 6 0
BBX 7 11 0 -2
BITMAP
7FF8
1740
0700
0600
0A00
0A00
0D00
0D00
1D00
0A00
3D00
ENDCHAR
STARTCHAR uni021A.ss01
ENCODING -1
SWIDTH 631 0
DWIDTH 6 0
BBX 7 12 0 -3
BITMAP
7FF8
1740
0700
0600
0A00
0A00
0D00
0D00
0C00
0000
0C00
0800
ENDCHAR
STARTCHAR U.ss01
ENCODING -1
SWIDTH 800 0
DWIDTH 7 0
BBX 6 9 1 0
BITMAP
6060
7070
A0A0
A0A0
D0D0
D1D0
D2D0
EAC0
B8C0
ENDCHAR
STARTCHAR Uacute.ss01
ENCODING -1
SWIDTH 800 0
DWIDTH 7 0
BBX 6 12 1 0
BITMAP
0010
00E0
0240
6060
7070
A0A0
A0A0
D0D0
D1D0
D2D0
EAC0
B8C0
ENDCHAR
STARTCHAR Ubreve.ss01
ENCODING -1
SWIDTH 800 0
DWIDTH 7 0
BBX 6 11 1 0
BITMAP
1890
0F80
6060
7070
A0A0
A0A0
D0D0
D1D0
D2D0
EAC0
B8C0
ENDCHAR
STARTCHAR Ucircumflex.ss01
ENCODING -1
SWIDTH 800 0
DWIDTH 7 0
BBX 6 12 1 0
BITMAP
0340
0A80
0C80
6060
7070
A0A0
A0A0
D0D0
D1D0
D2D0
EAC0
B8C0
ENDCHAR
STARTCHAR uni0214.ss01
ENCODING -1
SWIDTH 800 0
DWIDTH 7 0
BBX 6 12 1 0
BITMAP
0500
1A40
0980
6060
7070
A0A0
A0A0
D0D0
D1D0
D2D0
EAC0
B8C0
ENDCHAR
STARTCHAR Udieresis.ss01
ENCODING -1
SWIDTH 800 0
DWIDTH 7 0
BBX 6 10 1 0
BITMAP
0DC0
6060
7070
A0A0
A0A0
D0D0
D1D0
D2D0
EAC0
B8C0
ENDCHAR
STARTCHAR uni1EE4.ss01
ENCODING -1
SWIDTH 800 0
DWIDTH 7 0
BBX 6 11 1 -2
BITMAP
6060
7070
A0A0
A0A0
D0D0
D1D0
D2D0
EAC0
B8C0
0000
1C00
ENDCHAR
STARTCHAR Ugrave.ss01
ENCODING -1
SWIDTH 800 0
DWIDTH 7 0
BBX 6 12 1 0
BITMAP
1000
3800
0900
6060
7070
A0A0
A0A0
D0D0
D1D0
D2D0
EAC0
B8C0
ENDCHAR
STARTCHAR uni1EE6.ss01
ENCODING -1
SWIDTH 800 0
DWIDTH 7 0
BBX 6 12 1 0
BITMAP
0740
0180
0340
6060
7070
A0A0
A0A0
D0D0
D1D0
D2D0
EAC0
B8C0
ENDCHAR
STARTCHAR Uhorn.ss01
ENCODING -1
SWIDTH 800 0
DWIDTH 7 0
BBX 8 11 1 0
BITMAP
0004
000D
6078
7070
A0A0
A0A0
D0E0
D1D0
D2D0
EAC0
B8C0
ENDCHAR
STARTCHAR uni1EE8.ss01
ENCODING -1
SWIDTH 800 0
DWIDTH 7 0
BBX 8 12 1 0
BITMAP
0010
00E4
024D
6078
7070
A0A0
A0A0
D0E0
D1D0
D2D0
EAC0
B8C0
ENDCHAR
STARTCHAR uni1EF0.ss01
ENCODING -1
SWIDTH 800 0
DWIDTH 7 0
BBX 8 13 1 -2
BITMAP
0004
000D
6078
7070
A0A0
A0A0
D0E0
D1D0
D2D0
EAC0
B8C0
0000
1C00
ENDCHAR
STARTCHAR uni1EEA.ss01
ENCODING -1
SWIDTH 800 0
DWIDTH 7 0
BBX 8 12 1 0
BITMAP
1000
3804
090D
6078
7070
A0A0
A0A0
D0E0
D1D0
D2D0
EAC0
B8C0
ENDCHAR
STARTCHAR uni1EEC.ss01
ENCODING -1
SWIDTH 800 0
DWIDTH 7 0
BBX 8 12 1 0
BITMAP
0740
0184
034D
6078
7070
A0A0
A0A0
D0E0
D1D0
D2D0
EAC0
B8C0
ENDCHAR
STARTCHAR uni1EEE.ss01
ENCODING -1
SWIDTH 800 0
DWIDTH 7 0
BBX 8 11 1 0
BITMAP
0E54
1ACD
6078
7070
A0A0
A0A0
D0E0
D1D0
D2D0
EAC0
B8C0
ENDCHAR
STARTCHAR Uhungarumlaut.ss01
ENCODING -1
SWIDTH 800 0
DWIDTH 7 0
BBX 6 12 1 0
BITMAP
0140
06D0
0980
6060
7070
A0A0
A0A0
D0D0
D1D0
D2D0
EAC0
B8C0
ENDCHAR
STARTCHAR uni0216.ss01
ENCODING -1
SWIDTH 800 0
DWIDTH 7 0
BBX 6 11 1 0
BITMAP
0B80
1990
6060
7070
A0A0
A0A0
D0D0
D1D0
D2D0
EAC0
B8C0
ENDCHAR
STARTCHAR Umacron.ss01
ENCODING -1
SWIDTH 800 0
DWIDTH 7 0
BBX 6 10 1 0
BITMAP
0F80
6060
7070
A0A0
A0A0
D0D0
D1D0
D2D0
EAC0
B8C0
ENDCHAR
STARTCHAR Uogonek.ss01
ENCODING -1
SWIDTH 800 0
DWIDTH 7 0
BBX 6 12 1 -3
BITMAP
6060
7070
A0A0
A0A0
D0E0
D1D0
D2D0
EAC0
B9C0
0180
0240
01E0
ENDCHAR
STARTCHAR Uring.ss01
ENCODING -1
SWIDTH 800 0
DWIDTH 7 0
BBX 6 12 1 0
BITMAP
0740
0980
0740
6060
7070
A0A0
A0A0
D0D0
D1D0
D2D0
EAC0
B8C0
ENDCHAR
STARTCHAR Utilde.ss01
ENCODING -1
SWIDTH 800 0
DWIDTH 7 0
BBX 6 11 1 0
BITMAP
0E50
1AC0
6060
7070
A0A0
A0A0
D0D0
D1D0
D2D0
EAC0
B8C0
ENDCHAR
STARTCHAR V.ss01
ENCODING -1
SWIDTH 797 0
DWIDTH 7 0
BBX 7 9 1 0
BITMAP
A034
A070
9070
D0A0
D0D0
91C0
A280
7B00
2D00
ENDCHAR
STARTCHAR W.ss01
ENCODING -1
SWIDTH 1236 0
DWIDTH 11 0
BBX 11 9 1 0
BITMAP
A06034
A0A070
90A070
D0E0A0
D1E0D0
D2E1C0
A36280
BA7B00
382D00
ENDCHAR
STARTCHAR Wacute.ss01
ENCODING -1
SWIDTH 1236 0
DWIDTH 11 0
BBX 11 12 1 0
BITMAP
000100
000E00
002400
A06034
A0A070
90A070
D0E0A0
D1E0D0
D2E1C0
A36280
BA7B00
382D00
ENDCHAR
STARTCHAR Wcircumflex.ss01
ENCODING -1
SWIDTH 1236 0
DWIDTH 11 0
BBX 11 12 1 0
BITMAP
007400
00A800
00C800
A06034
A0A070
90A070
D0E0A0
D1E0D0
D2E1C0
A36280
BA7B00
382D00
ENDCHAR
STARTCHAR Wdieresis.ss01
ENCODING -1
SWIDTH 1236 0
DWIDTH 11 0
BBX 11 10 1 0
BITMAP
00DC00
A06034
A0A070
90A070
D0E0A0
D1E0D0
D2E1C0
A36280
BA7B00
382D00
ENDCHAR
STARTCHAR Wgrave.ss01
ENCODING -1
SWIDTH 1236 0
DWIDTH 11 0
BBX 11 12 1 0
BITMAP
010000
038000
009000
A06034
A0A070
90A070
D0E0A0
D1E0D0
D2E1C0
A36280
BA7B00
382D00
ENDCHAR
STARTCHAR X.ss01
ENCODING -1
SWIDTH 677 0
DWIDTH 6 0
BBX 8 9 -1 0
BITMAP
090A
071C
0374
02E0
02C0
07D0
0D70
2834
7024
ENDCHAR
STARTCHAR Y.ss01
ENCODING -1
SWIDTH 776 0
DWIDTH 7 0
BBX 6 9 1 0
BITMAP
6060
A0A0
A0A0
D0D0
E6D0
BDD0
11C0
9680
BE00
ENDCHAR
STARTCHAR Yacute.ss01
ENCODING -1
SWIDTH 776 0
DWIDTH 7 0
BBX 6 12 1 0
BITMAP
0040
01D0
0240
6060
A0A0
A0A0
D0D0
E6D0
BDD0
11C0
9680
BE00
ENDCHAR
STARTCHAR Ycircumflex.ss01
ENCODING -1
SWIDTH 776 0
DWIDTH 7 0
BBX 6 12 1 0
BITMAP
0700
0E40
1980
6060
A0A0
A0A0
D0D0
E6D0
BDD0
11C0
9680
BE00
ENDCHAR
STARTCHAR Ydieresis.ss01
ENCODING -1
SWIDTH 776 0
DWIDTH 7 0
BBX 6 10 1 0
BITMAP
1980
6060
A0A0
A0A0
D0D0
E6D0
BDD0
11C0
9680
BE00
ENDCHAR
STARTCHAR uni1EF4.ss01
ENCODING -1
SWIDTH 776 0
DWIDTH 7 0
BBX 6 11 1 -2
BITMAP
6060
A0A0
A0A0
D0D0
E6D0
BDD0
11C0
9680
BE00
0000
2800
ENDCHAR
STARTCHAR Ygrave.ss01
ENCODING -1
SWIDTH 776 0
DWIDTH 7 0
BBX 6 12 1 0
BITMAP
1000
3400
0900
6060
A0A0
A0A0
D0D0
E6D0
BDD0
11C0
9680
BE00
ENDCHAR
STARTCHAR uni1EF6.ss01
ENCODING -1
SWIDTH 776 0
DWIDTH 7 0
BBX 6 12 1 0
BITMAP
0740
0240
0740
6060
A0A0
A0A0
D0D0
E6D0
BDD0
11C0
9680
BE00
ENDCHAR
STARTCHAR uni0232.ss01
ENCODING -1
SWIDTH 776 0
DWIDTH 7 0
BBX 6 10 1 0
BITMAP
1F80
6060
A0A0
A0A0
D0D0
E6D0
BDD0
11C0
9680
BE00
ENDCHAR
STARTCHAR uni1EF8.ss01
ENCODING -1
SWIDTH 776 0
DWIDTH 7 0
BBX 6 11 1 0
BITMAP
1D90
2680
6060
A0A0
A0A0
D0D0
E6D0
BDD0
11C0
9680
BE00
ENDCHAR
STARTCHAR Z.ss01
ENCODING -1
SWIDTH 665 0
DWIDTH 6 0
BBX 6 9 0 0
BITMAP
3FF0
00B0
01D0
0280
0740
1E00
2C00
B400
BFE0
ENDCHAR
STARTCHAR Zacute.ss01
ENCODING -1
SWIDTH 665 0
DWIDTH 6 0
BBX 6 12 0 0
BITMAP
0010
00B0
0180
3FF0
00B0
01D0
0280
0740
1E00
2C00
B400
BFE0
ENDCHAR
STARTCHAR Zcaron.ss01
ENCODING -1
SWIDTH 665 0
DWIDTH 6 0
BBX 6 12 0 0
BITMAP
0110
0690
0280
3FF0
00B0
01D0
0280
0740
1E00
2C00
B400
BFE0
ENDCHAR
STARTCHAR Zdotaccent.ss01
ENCODING -1
SWIDTH 665 0
DWIDTH 6 0
BBX 6 10 0 0
BITMAP
0280
3FF0
00B0
01D0
0280
0740
1E00
2C00
B400
BFE0
ENDCHAR
STARTCHAR i.loclTRK
ENCODING -1
SWIDTH 246 0
DWIDTH 2 0
BBX 4 7 0 0
BITMAP
34
00
20
60
A0
A9
74
ENDCHAR
STARTCHAR a.fina
ENCODING -1
SWIDTH 458 0
DWIDTH 4 0
BBX 4 5 0 0
BITMAP
1E
76
A6
AA
7A
ENDCHAR
STARTCHAR aacute.fina
ENCODING -1
SWIDTH 458 0
DWIDTH 4 0
BBX 5 9 0 0
BITMAP
0240
0300
0500
0000
1E00
7600
A600
AA00
7A00
ENDCHAR
STARTCHAR abreve.fina
ENCODING -1
SWIDTH 458 0
DWIDTH 4 0
BBX 5 9 0 0
BITMAP
1040
3580
1F40
0000
1E00
7600
A600
AA00
7A00
ENDCHAR
STARTCHAR uni1EAF.fina
ENCODING -1
SWIDTH 458 0
DWIDTH 4 0
BBX 5 9 0 0
BITMAP
0240
2580
2F40
0000
1E00
7600
A600
AA00
7A00
ENDCHAR
STARTCHAR uni1EB7.fina
ENCODING -1
SWIDTH 458 0
DWIDTH 4 0
BBX 5 11 0 -2
BITMAP
1040
3580
1F40
0000
1E00
7600
A600
AA00
7A00
0000
3400
ENDCHAR
STARTCHAR uni1EB1.fina
ENCODING -1
SWIDTH 458 0
DWIDTH 4 0
BBX 5 9 0 0
BITMAP
1800
2540
2F40
0000
1E00
7600
A600
AA00
7A00
ENDCHAR
STARTCHAR uni1EB3.fina
ENCODING -1
SWIDTH 458 0
DWIDTH 4 0
BBX 5 10 0 0
BITMAP
0A00
0A00
3580
1F40
0000
1E00
7600
A600
AA00
7A00
ENDCHAR
STARTCHAR uni1EB5.fina
ENCODING -1
SWIDTH 458 0
DWIDTH 4 0
BBX 5 10 0 0
BITMAP
1980
1240
2180
2F40
0000
1E00
7600
A600
AA00
7A00
ENDCHAR
STARTCHAR acircumflex.fina
ENCODING -1
SWIDTH 458 0
DWIDTH 4 0
BBX 5 10 0 0
BITMAP
0100
0B00
1A00
2640
0000
1E00
7600
A600
AA00
7A00
ENDCHAR
STARTCHAR uni1EA5.fina
ENCODING -1
SWIDTH 458 0
DWIDTH 4 0
BBX 6 10 0 0
BITMAP
0010
0090
0A00
2640
0000
1E00
7600
A600
AA00
7A00
ENDCHAR
STARTCHAR uni1EAD.fina
ENCODING -1
SWIDTH 458 0
DWIDTH 4 0
BBX 5 12 0 -2
BITMAP
0100
0B00
1A00
2640
0000
1E00
7600
A600
AA00
7A00
0000
3400
ENDCHAR
STARTCHAR uni1EA7.fina
ENCODING -1
SWIDTH 458 0
DWIDTH 4 0
BBX 5 10 0 0
BITMAP
5000
6000
0A00
2640
0000
1E00
7600
A600
AA00
7A00
ENDCHAR
STARTCHAR uni1EA9.fina
ENCODING -1
SWIDTH 458 0
DWIDTH 4 0
BBX 6 9 0 0
BITMAP
00D0
0060
0A90
2B40
1F00
7600
A600
AA00
7A00
ENDCHAR
STARTCHAR uni1EAB.fina
ENCODING -1
SWIDTH 458 0
DWIDTH 4 0
BBX 5 10 0 0
BITMAP
1D80
1640
0F00
2640
0000
1E00
7600
A600
AA00
7A00
ENDCHAR
STARTCHAR uni0201.fina
ENCODING -1
SWIDTH 458 0
DWIDTH 4 0
BBX 4 10 0 0
BITMAP
14
79
36
16
00
1E
76
A6
AA
7A
ENDCHAR
STARTCHAR adieresis.fina
ENCODING -1
SWIDTH 458 0
DWIDTH 4 0
BBX 5 7 0 0
BITMAP
2640
0000
1E00
7600
A600
AA00
7A00
ENDCHAR
STARTCHAR uni1EA1.fina
ENCODING -1
SWIDTH 458 0
DWIDTH 4 0
BBX 4 7 0 -2
BITMAP
1E
76
A6
AA
7A
00
34
ENDCHAR
STARTCHAR agrave.fina
ENCODING -1
SWIDTH 458 0
DWIDTH 4 0
BBX 4 10 0 0
BITMAP
10
24
18
08
00
1E
76
A6
AA
7A
ENDCHAR
STARTCHAR uni1EA3.fina
ENCODING -1
SWIDTH 458 0
DWIDTH 4 0
BBX 4 9 0 0
BITMAP
0E
03
0A
00
1E
76
A6
AA
7A
ENDCHAR
STARTCHAR uni0203.fina
ENCODING -1
SWIDTH 458 0
DWIDTH 4 0
BBX 5 8 0 0
BITMAP
1F00
2680
1040
1E00
7600
A600
AA00
7A00
ENDCHAR
STARTCHAR amacron.fina
ENCODING -1
SWIDTH 458 0
DWIDTH 4 0
BBX 4 7 0 0
BITMAP
2F
00
1E
76
A6
AA
7A
ENDCHAR
STARTCHAR aogonek.fina
ENCODING -1
SWIDTH 458 0
DWIDTH 4 0
BBX 5 8 0 -3
BITMAP
1D00
7700
A600
AA00
7A00
0D00
0C00
0B40
ENDCHAR
STARTCHAR aring.fina
ENCODING -1
SWIDTH 458 0
DWIDTH 4 0
BBX 4 9 0 0
BITMAP
0A
1A
0E
00
1E
76
A6
AA
7A
ENDCHAR
STARTCHAR aringacute.fina
ENCODING -1
SWIDTH 458 0
DWIDTH 4 0
BBX 6 10 0 0
BITMAP
0010
0A50
1A00
0E00
0000
1E00
7600
A600
AA00
7A00
ENDCHAR
STARTCHAR atilde.fina
ENCODING -1
SWIDTH 458 0
DWIDTH 4 0
BBX 5 8 0 0
BITMAP
2980
2740
0000
1E00
7600
A600
AA00
7A00
ENDCHAR
STARTCHAR ae.fina
ENCODING -1
SWIDTH 671 0
DWIDTH 6 0
BBX 7 5 0 0
BITMAP
1EE0
7760
A790
AB64
7AE0
ENDCHAR
STARTCHAR aeacute.fina
ENCODING -1
SWIDTH 671 0
DWIDTH 6 0
BBX 7 9 0 0
BITMAP
0090
00D0
0140
0000
1EE0
7760
A790
AB64
7AE0
ENDCHAR
STARTCHAR b.fina
ENCODING -1
SWIDTH 475 0
DWIDTH 4 0
BBX 4 10 0 0
BITMAP
0E
2A
36
35
68
7D
77
63
67
2D
ENDCHAR
STARTCHAR c.fina
ENCODING -1
SWIDTH 404 0
DWIDTH 4 0
BBX 4 5 0 0
BITMAP
2C
69
90
A6
3D
ENDCHAR
STARTCHAR cacute.fina
ENCODING -1
SWIDTH 404 0
DWIDTH 4 0
BBX 4 9 0 0
BITMAP
03
0A
08
00
2C
69
90
A6
3D
ENDCHAR
STARTCHAR ccaron.fina
ENCODING -1
SWIDTH 404 0
DWIDTH 4 0
BBX 4 10 0 0
BITMAP
11
27
1A
1C
00
2C
69
90
A6
3D
ENDCHAR
STARTCHAR ccedilla.fina
ENCODING -1
SWIDTH 404 0
DWIDTH 4 0
BBX 4 8 0 -3
BITMAP
2C
69
94
A2
7E
2C
0C
78
ENDCHAR
STARTCHAR ccircumflex.fina
ENCODING -1
SWIDTH 404 0
DWIDTH 4 0
BBX 4 10 0 0
BITMAP
04
1D
26
22
00
2C
69
90
A6
3D
ENDCHAR
STARTCHAR cdotaccent.fina
ENCODING -1
SWIDTH 404 0
DWIDTH 4 0
BBX 4 7 0 0
BITMAP
1C
00
2C
69
90
A6
3D
ENDCHAR
STARTCHAR d.fina
ENCODING -1
SWIDTH 493 0
DWIDTH 4 0
BBX 6 10 0 0
BITMAP
01D0
0290
0350
0390
0680
1F80
7B40
A600
AB00
7B00
ENDCHAR
STARTCHAR dcaron.fina
ENCODING -1
SWIDTH 458 0
DWIDTH 4 0
BBX 6 10 0 0
BITMAP
0030
01B0
0290
0240
0300
1F00
7700
A600
AA00
7A00
ENDCHAR
STARTCHAR dcroat.fina
ENCODING -1
SWIDTH 458 0
DWIDTH 4 0
BBX 5 9 0 0
BITMAP
0180
0280
1F80
0340
1F00
7700
A600
AA00
7A00
ENDCHAR
STARTCHAR uni01C6.fina
ENCODING -1
SWIDTH 876 0
DWIDTH 8 0
BBX 9 13 0 -4
BITMAP
019640
025B00
024D00
035400
1F7F40
761D00
A62400
AAB400
779C00
002C00
009C00
009800
00F000
ENDCHAR
STARTCHAR e.fina
ENCODING -1
SWIDTH 411 0
DWIDTH 4 0
BBX 4 5 0 0
BITMAP
2D
69
AC
B6
3D
ENDCHAR
STARTCHAR eacute.fina
ENCODING -1
SWIDTH 411 0
DWIDTH 4 0
BBX 4 9 0 0
BITMAP
03
06
08
00
2D
69
AC
B6
3D
ENDCHAR
STARTCHAR ebreve.fina
ENCODING -1
SWIDTH 411 0
DWIDTH 4 0
BBX 5 8 0 0
BITMAP
7240
2E00
0000
2D00
6900
AC00
B600
3D00
ENDCHAR
STARTCHAR ecaron.fina
ENCODING -1
SWIDTH 411 0
DWIDTH 4 0
BBX 4 10 0 0
BITMAP
11
27
1A
1C
00
2D
69
AC
B6
3D
ENDCHAR
STARTCHAR ecircumflex.fina
ENCODING -1
SWIDTH 411 0
DWIDTH 4 0
BBX 4 10 0 0
BITMAP
04
1E
26
22
00
2D
69
AC
B6
3D
ENDCHAR
STARTCHAR uni1EBF.fina
ENCODING -1
SWIDTH 411 0
DWIDTH 4 0
BBX 5 10 0 0
BITMAP
0040
0180
1D00
2600
0000
2D00
6900
AC00
B600
3D00
ENDCHAR
STARTCHAR uni1EC7.fina
ENCODING -1
SWIDTH 411 0
DWIDTH 4 0
BBX 4 12 0 -2
BITMAP
04
1E
26
22
00
2D
69
AC
B6
3D
00
28
ENDCHAR
STARTCHAR uni1EC1.fina
ENCODING -1
SWIDTH 411 0
DWIDTH 4 0
BBX 4 10 0 0
BITMAP
40
A0
1D
26
00
2D
69
AC
B6
3D
ENDCHAR
STARTCHAR uni1EC3.fina
ENCODING -1
SWIDTH 411 0
DWIDTH 4 0
BBX 6 9 0 0
BITMAP
01C0
0090
1EC0
3A00
2D00
6900
AC00
B600
3D00
ENDCHAR
STARTCHAR uni1EC5.fina
ENCODING -1
SWIDTH 411 0
DWIDTH 4 0
BBX 5 10 0 0
BITMAP
2A40
1600
1E00
3600
0000
2D00
6900
AC00
B600
3D00
ENDCHAR
STARTCHAR uni0205.fina
ENCODING -1
SWIDTH 411 0
DWIDTH 4 0
BBX 4 10 0 0
BITMAP
44
AC
69
25
00
2D
69
AC
B6
3D
ENDCHAR
STARTCHAR edieresis.fina
ENCODING -1
SWIDTH 411 0
DWIDTH 4 0
BBX 4 7 0 0
BITMAP
37
00
2D
69
AC
B6
3D
ENDCHAR
STARTCHAR edotaccent.fina
ENCODING -1
SWIDTH 411 0
DWIDTH 4 0
BBX 4 7 0 0
BITMAP
1C
00
2D
69
AC
B6
3D
ENDCHAR
STARTCHAR uni1EB9.fina
ENCODING -1
SWIDTH 411 0
DWIDTH 4 0
BBX 4 7 0 -2
BITMAP
2D
69
AC
B6
3D
00
28
ENDCHAR
STARTCHAR egrave.fina
ENCODING -1
SWIDTH 411 0
DWIDTH 4 0
BBX 4 10 0 0
BITMAP
10
30
24
08
00
2D
69
AC
B6
3D
ENDCHAR
STARTCHAR uni1EBB.fina
ENCODING -1
SWIDTH 411 0
DWIDTH 4 0
BBX 4 9 0 0
BITMAP
1D
06
0D
00
2D
69
AC
B6
3D
ENDCHAR
STARTCHAR uni0207.fina
ENCODING -1
SWIDTH 411 0
DWIDTH 4 0
BBX 5 8 0 0
BITMAP
2E00
7740
1100
2D00
6900
AC00
B600
3D00
ENDCHAR
STARTCHAR emacron.fina
ENCODING -1
SWIDTH 411 0
DWIDTH 4 0
BBX 4 7 0 0
BITMAP
3E
00
2D
69
AC
B6
3D
ENDCHAR
STARTCHAR eogonek.fina
ENCODING -1
SWIDTH 411 0
DWIDTH 4 0
BBX 4 8 0 -3
BITMAP
2D
69
AD
B6
7E
18
24
1E
ENDCHAR
STARTCHAR uni1EBD.fina
ENCODING -1
SWIDTH 411 0
DWIDTH 4 0
BBX 5 8 0 0
BITMAP
3940
5B00
0000
2D00
6900
AC00
B600
3D00
ENDCHAR
STARTCHAR g.fina
ENCODING -1
SWIDTH 449 0
DWIDTH 4 0
BBX 4 10 0 -5
BITMAP
1D
77
A6
AA
7D
1D
2C
9C
E8
A0
ENDCHAR
STARTCHAR gbreve.fina
ENCODING -1
SWIDTH 449 0
DWIDTH 4 0
BBX 5 14 0 -5
BITMAP
1040
3580
1F40
0000
1D00
7700
A600
AA00
7D00
1D00
2C00
9C00
E800
A000
ENDCHAR
STARTCHAR gcaron.fina
ENCODING -1
SWIDTH 449 0
DWIDTH 4 0
BBX 5 15 0 -5
BITMAP
0440
1A40
0F00
0900
0000
1D00
7700
A600
AA00
7D00
1D00
2C00
9C00
E800
A000
ENDCHAR
STARTCHAR gcircumflex.fina
ENCODING -1
SWIDTH 449 0
DWIDTH 4 0
BBX 5 15 0 -5
BITMAP
0100
0B00
1A00
2640
0000
1D00
7700
A600
AA00
7D00
1D00
2C00
9C00
E800
A000
ENDCHAR
STARTCHAR uni0123.fina
ENCODING -1
SWIDTH 449 0
DWIDTH 4 0
BBX 4 14 0 -5
BITMAP
05
09
05
00
1D
77
A6
AA
7D
1D
2C
9C
E8
A0
ENDCHAR
STARTCHAR gdotaccent.fina
ENCODING -1
SWIDTH 449 0
DWIDTH 4 0
BBX 4 12 0 -5
BITMAP
09
00
1D
77
A6
AA
7D
1D
2C
9C
E8
A0
ENDCHAR
STARTCHAR h.fina
ENCODING -1
SWIDTH 490 0
DWIDTH 4 0
BBX 4 10 0 0
BITMAP
0A
1B
36
35
78
7B
6B
77
77
66
ENDCHAR
STARTCHAR hbar.fina
ENCODING -1
SWIDTH 490 0
DWIDTH 4 0
BBX 4 9 0 0
BITMAP
18
28
7F
34
77
6B
77
77
66
ENDCHAR
STARTCHAR hcircumflex.fina
ENCODING -1
SWIDTH 490 0
DWIDTH 4 0
BBX 5 13 0 0
BITMAP
0700
0F40
1940
0A00
1B00
3600
3500
7800
7B00
6B00
7700
7700
6600
ENDCHAR
STARTCHAR i.fina
ENCODING -1
SWIDTH 222 0
DWIDTH 2 0
BBX 3 7 0 0
BITMAP
34
00
30
60
A0
A0
90
ENDCHAR
STARTCHAR dotlessi.fina
ENCODING -1
SWIDTH 222 0
DWIDTH 2 0
BBX 2 5 0 0
BITMAP
30
60
A0
A0
90
ENDCHAR
STARTCHAR iacute.fina
ENCODING -1
SWIDTH 222 0
DWIDTH 2 0
BBX 3 9 0 0
BITMAP
08
18
20
00
30
60
A0
A0
90
ENDCHAR
STARTCHAR iacute_j.loclNLD.fina
ENCODING -1
SWIDTH 479 0
DWIDTH 4 0
BBX 6 14 0 -5
BITMAP
0990
1DC0
2640
0000
2300
6600
AA00
AE00
7900
1D00
6C00
9800
E400
A000
ENDCHAR
STARTCHAR ibreve.fina
ENCODING -1
SWIDTH 222 0
DWIDTH 2 0
BBX 4 9 0 0
BITMAP
40
C9
BC
00
30
60
A0
A0
90
ENDCHAR
STARTCHAR icircumflex.fina
ENCODING -1
SWIDTH 222 0
DWIDTH 2 0
BBX 3 10 0 0
BITMAP
14
38
9C
88
00
30
60
A0
A0
90
ENDCHAR
STARTCHAR uni0209.fina
ENCODING -1
SWIDTH 222 0
DWIDTH 2 0
BBX 4 10 -1 0
BITMAP
54
AD
39
22
00
0C
18
28
28
24
ENDCHAR
STARTCHAR idieresis.fina
ENCODING -1
SWIDTH 222 0
DWIDTH 2 0
BBX 3 7 0 0
BITMAP
9C
00
30
60
A0
A0
90
ENDCHAR
STARTCHAR i.loclTRK.fina
ENCODING -1
SWIDTH 222 0
DWIDTH 2 0
BBX 3 7 0 0
BITMAP
34
00
30
60
A0
A0
90
ENDCHAR
STARTCHAR uni1ECB.fina
ENCODING -1
SWIDTH 222 0
DWIDTH 2 0
BBX 3 9 0 -2
BITMAP
34
00
30
60
A0
A0
90
00
D0
ENDCHAR
STARTCHAR igrave.fina
ENCODING -1
SWIDTH 222 0
DWIDTH 2 0
BBX 2 10 0 0
BITMAP
40
D0
60
20
00
30
60
A0
A0
90
ENDCHAR
STARTCHAR uni1EC9.fina
ENCODING -1
SWIDTH 222 0
DWIDTH 2 0
BBX 3 9 0 0
BITMAP
38
1C
38
00
30
60
A0
A0
90
ENDCHAR
STARTCHAR uni020B.fina
ENCODING -1
SWIDTH 222 0
DWIDTH 2 0
BBX 4 8 0 0
BITMAP
78
D9
45
30
60
A0
A0
90
ENDCHAR
STARTCHAR imacron.fina
ENCODING -1
SWIDTH 222 0
DWIDTH 2 0
BBX 3 7 0 0
BITMAP
BC
00
30
60
A0
A0
90
ENDCHAR
STARTCHAR iogonek.fina
ENCODING -1
SWIDTH 222 0
DWIDTH 2 0
BBX 3 9 0 -2
BITMAP
34
00
30
60
A0
A0
90
80
F0
ENDCHAR
STARTCHAR itilde.fina
ENCODING -1
SWIDTH 222 0
DWIDTH 2 0
BBX 5 8 -1 0
BITMAP
2980
6740
0000
0C00
1800
2800
2800
2400
ENDCHAR
STARTCHAR j.fina
ENCODING -1
SWIDTH 229 0
DWIDTH 2 0
BBX 4 12 -2 -5
BITMAP
07
00
06
06
06
0A
09
1D
2C
98
E4
A0
ENDCHAR
STARTCHAR uni0237.fina
ENCODING -1
SWIDTH 229 0
DWIDTH 2 0
BBX 4 10 -2 -5
BITMAP
06
06
06
0A
09
1D
2C
98
E4
A0
ENDCHAR
STARTCHAR jcircumflex.fina
ENCODING -1
SWIDTH 229 0
DWIDTH 2 0
BBX 5 15 -2 -5
BITMAP
0100
0380
0980
0880
0000
0600
0600
0600
0A00
0900
1D00
2C00
9800
E400
A000
ENDCHAR
STARTCHAR k.fina
ENCODING -1
SWIDTH 521 0
DWIDTH 5 0
BBX 5 10 0 0
BITMAP
0A00
1B00
3600
3500
7800
7740
6A80
7740
7A00
6740
ENDCHAR
STARTCHAR uni0137.fina
ENCODING -1
SWIDTH 521 0
DWIDTH 5 0
BBX 5 13 0 -3
BITMAP
0A00
1B00
3600
3500
7800
7740
6A80
7740
7A00
6740
1400
2400
1400
ENDCHAR
STARTCHAR kgreenlandic.fina
ENCODING -1
SWIDTH 541 0
DWIDTH 5 0
BBX 5 5 0 0
BITMAP
2740
6E40
B800
BD80
6B40
ENDCHAR
STARTCHAR l.fina
ENCODING -1
SWIDTH 368 0
DWIDTH 3 0
BBX 4 10 0 0
BITMAP
0A
2A
36
36
69
68
78
70
75
2D
ENDCHAR
STARTCHAR lacute.fina
ENCODING -1
SWIDTH 368 0
DWIDTH 3 0
BBX 6 13 0 0
BITMAP
0040
01D0
0640
0A00
2A00
3600
3600
6900
6800
7800
7000
7500
2D00
ENDCHAR
STARTCHAR lcaron.fina
ENCODING -1
SWIDTH 368 0
DWIDTH 3 0
BBX 5 10 0 0
BITMAP
0A00
2A00
3680
3680
6900
6800
7800
7000
7500
2D00
ENDCHAR
STARTCHAR uni013C.fina
ENCODING -1
SWIDTH 368 0
DWIDTH 3 0
BBX 4 13 0 -3
BITMAP
0A
2A
36
36
69
68
78
70
75
2D
20
30
20
ENDCHAR
STARTCHAR ldot.fina
ENCODING -1
SWIDTH 466 0
DWIDTH 4 0
BBX 5 10 0 0
BITMAP
1800
2800
2400
3400
3500
7900
6000
A000
6640
2D00
ENDCHAR
STARTCHAR uni01C9.fina
ENCODING -1
SWIDTH 555 0
DWIDTH 5 0
BBX 5 15 0 -5
BITMAP
0A00
2A00
3600
37C0
6900
6980
7580
7280
6740
2F40
0740
1B00
2600
3900
2800
ENDCHAR
STARTCHAR lslash.fina
ENCODING -1
SWIDTH 368 0
DWIDTH 3 0
BBX 5 11 0 0
BITMAP
0B80
2900
0E00
2A00
3200
6600
6800
7800
7000
7500
2D00
ENDCHAR
STARTCHAR m.fina
ENCODING -1
SWIDTH 732 0
DWIDTH 7 0
BBX 7 5 0 0
BITMAP
2774
6FB4
B774
B730
6230
ENDCHAR
STARTCHAR n.fina
ENCODING -1
SWIDTH 484 0
DWIDTH 4 0
BBX 4 5 0 0
BITMAP
27
6F
B7
B7
66
ENDCHAR
STARTCHAR nacute.fina
ENCODING -1
SWIDTH 484 0
DWIDTH 4 0
BBX 5 9 0 0
BITMAP
0240
0300
0500
0000
2700
6F00
B700
B700
6600
ENDCHAR
STARTCHAR napostrophe.fina
ENCODING -1
SWIDTH 484 0
DWIDTH 4 0
BBX 4 9 0 0
BITMAP
80
C0
80
00
27
6F
B7
B7
66
ENDCHAR
STARTCHAR ncaron.fina
ENCODING -1
SWIDTH 484 0
DWIDTH 4 0
BBX 5 10 0 0
BITMAP
0440
1980
0F00
0900
0000
2700
6F00
B700
B700
6600
ENDCHAR
STARTCHAR uni0146.fina
ENCODING -1
SWIDTH 484 0
DWIDTH 4 0
BBX 4 8 0 -3
BITMAP
27
6F
B7
B7
66
14
24
14
ENDCHAR
STARTCHAR eng.fina
ENCODING -1
SWIDTH 484 0
DWIDTH 4 0
BBX 4 8 0 -3
BITMAP
27
6F
B7
B6
69
09
98
74
ENDCHAR
STARTCHAR uni01CC.fina
ENCODING -1
SWIDTH 725 0
DWIDTH 7 0
BBX 7 12 0 -5
BITMAP
0028
0000
2724
6F34
B730
B7B0
63B0
00A0
02A0
0690
0AC0
0740
ENDCHAR
STARTCHAR ntilde.fina
ENCODING -1
SWIDTH 484 0
DWIDTH 4 0
BBX 5 8 0 0
BITMAP
1D80
2740
0000
2700
6F00
B700
B700
6600
ENDCHAR
STARTCHAR o.fina
ENCODING -1
SWIDTH 453 0
DWIDTH 4 0
BBX 4 5 0 0
BITMAP
2D
66
97
AA
3C
ENDCHAR
STARTCHAR oacute.fina
ENCODING -1
SWIDTH 453 0
DWIDTH 4 0
BBX 4 9 0 0
BITMAP
03
0A
08
00
2D
66
97
AA
3C
ENDCHAR
STARTCHAR obreve.fina
ENCODING -1
SWIDTH 453 0
DWIDTH 4 0
BBX 5 8 0 0
BITMAP
6240
2E00
0000
2D00
6600
9700
AA00
3C00
ENDCHAR
STARTCHAR ocircumflex.fina
ENCODING -1
SWIDTH 453 0
DWIDTH 4 0
BBX 4 10 0 0
BITMAP
04
1D
26
22
00
2D
66
97
AA
3C
ENDCHAR
STARTCHAR uni1ED1.fina
ENCODING -1
SWIDTH 453 0
DWIDTH 4 0
BBX 5 10 0 0
BITMAP
0040
0180
1D00
2600
0000
2D00
6600
9700
AA00
3C00
ENDCHAR
STARTCHAR uni1ED9.fina
ENCODING -1
SWIDTH 453 0
DWIDTH 4 0
BBX 4 12 0 -2
BITMAP
04
1D
26
22
00
2D
66
97
AA
3C
00
24
ENDCHAR
STARTCHAR uni1ED3.fina
ENCODING -1
SWIDTH 453 0
DWIDTH 4 0
BBX 4 10 0 0
BITMAP
40
A0
1D
26
00
2D
66
97
AA
3C
ENDCHAR
STARTCHAR uni1ED5.fina
ENCODING -1
SWIDTH 453 0
DWIDTH 4 0
BBX 6 9 0 0
BITMAP
01C0
0090
1EC0
3A00
2D00
6600
9700
AA00
3C00
ENDCHAR
STARTCHAR uni1ED7.fina
ENCODING -1
SWIDTH 453 0
DWIDTH 4 0
BBX 5 10 0 0
BITMAP
2A40
1600
1D00
3600
0000
2D00
6600
9700
AA00
3C00
ENDCHAR
STARTCHAR uni020D.fina
ENCODING -1
SWIDTH 453 0
DWIDTH 4 0
BBX 4 10 0 0
BITMAP
44
AC
69
25
00
2D
66
97
AA
3C
ENDCHAR
STARTCHAR odieresis.fina
ENCODING -1
SWIDTH 453 0
DWIDTH 4 0
BBX 4 7 0 0
BITMAP
37
00
2D
66
97
AA
3C
ENDCHAR
STARTCHAR uni022B.fina
ENCODING -1
SWIDTH 453 0
DWIDTH 4 0
BBX 4 9 0 0
BITMAP
2F
00
37
00
2D
66
97
AA
3C
ENDCHAR
STARTCHAR uni0231.fina
ENCODING -1
SWIDTH 453 0
DWIDTH 4 0
BBX 4 9 0 0
BITMAP
2F
00
1C
00
2D
66
97
AA
3C
ENDCHAR
STARTCHAR uni1ECD.fina
ENCODING -1
SWIDTH 453 0
DWIDTH 4 0
BBX 4 7 0 -2
BITMAP
2D
66
97
AA
3C
00
24
ENDCHAR
STARTCHAR ograve.fina
ENCODING -1
SWIDTH 453 0
DWIDTH 4 0
BBX 4 10 0 0
BITMAP
10
30
24
08
00
2D
66
97
AA
3C
ENDCHAR
STARTCHAR uni1ECF.fina
ENCODING -1
SWIDTH 453 0
DWIDTH 4 0
BBX 4 9 0 0
BITMAP
1D
06
0D
00
2D
66
97
AA
3C
ENDCHAR
STARTCHAR ohorn.fina
ENCODING -1
SWIDTH 453 0
DWIDTH 4 0
BBX 5 6 0 0
BITMAP
0240
2F00
6600
9700
AA00
3C00
ENDCHAR
STARTCHAR uni1EDB.fina
ENCODING -1
SWIDTH 453 0
DWIDTH 4 0
BBX 5 9 0 0
BITMAP
0600
0900
0800
0240
2F00
6600
9700
AA00
3C00
ENDCHAR
STARTCHAR uni1EE3.fina
ENCODING -1
SWIDTH 453 0
DWIDTH 4 0
BBX 5 8 0 -2
BITMAP
0240
2F00
6600
9700
AA00
3C00
0000
2400
ENDCHAR
STARTCHAR uni1EDD.fina
ENCODING -1
SWIDTH 453 0
DWIDTH 4 0
BBX 5 10 0 0
BITMAP
1000
6000
3400
1400
0240
2F00
6600
9700
AA00
3C00
ENDCHAR
STARTCHAR uni1EDF.fina
ENCODING -1
SWIDTH 453 0
DWIDTH 4 0
BBX 5 9 0 0
BITMAP
1D00
0900
1D00
0240
2F00
6600
9700
AA00
3C00
ENDCHAR
STARTCHAR uni1EE1.fina
ENCODING -1
SWIDTH 453 0
DWIDTH 4 0
BBX 5 8 0 0
BITMAP
3600
5A00
0240
2F00
6600
9700
AA00
3C00
ENDCHAR
STARTCHAR ohungarumlaut.fina
ENCODING -1
SWIDTH 453 0
DWIDTH 4 0
BBX 5 10 0 0
BITMAP
0500
1E40
2700
2200
0000
2D00
6600
9700
AA00
3C00
ENDCHAR
STARTCHAR uni020F.fina
ENCODING -1
SWIDTH 453 0
DWIDTH 4 0
BBX 5 8 0 0
BITMAP
2E00
7740
5100
2D00
6600
9700
AA00
3C00
ENDCHAR
STARTCHAR omacron.fina
ENCODING -1
SWIDTH 453 0
DWIDTH 4 0
BBX 4 7 0 0
BITMAP
3E
00
2D
66
97
AA
3C
ENDCHAR
STARTCHAR uni01EB.fina
ENCODING -1
SWIDTH 453 0
DWIDTH 4 0
BBX 4 8 0 -3
BITMAP
2D
66
97
A6
7D
24
30
2D
ENDCHAR
STARTCHAR oslash.fina
ENCODING -1
SWIDTH 463 0
DWIDTH 4 0
BBX 4 9 0 -2
BITMAP
04
08
2D
6F
AB
BA
7D
20
10
ENDCHAR
STARTCHAR oslashacute.fina
ENCODING -1
SWIDTH 463 0
DWIDTH 4 0
BBX 4 11 0 -2
BITMAP
0C
18
24
08
2D
6F
AB
BA
7D
20
10
ENDCHAR
STARTCHAR otilde.fina
ENCODING -1
SWIDTH 453 0
DWIDTH 4 0
BBX 5 8 0 0
BITMAP
3940
5B00
0000
2D00
6600
9700
AA00
3C00
ENDCHAR
STARTCHAR uni022D.fina
ENCODING -1
SWIDTH 453 0
DWIDTH 4 0
BBX 5 9 0 0
BITMAP
2F00
3A40
5B00
0000
2D00
6600
9700
AA00
3C00
ENDCHAR
STARTCHAR oe.fina
ENCODING -1
SWIDTH 686 0
DWIDTH 6 0
BBX 7 5 0 0
BITMAP
2DE0
6770
9790
AB64
3AE0
ENDCHAR
STARTCHAR p.fina
ENCODING -1
SWIDTH 457 0
DWIDTH 4 0
BBX 5 10 -1 -5
BITMAP
1B80
1DC0
19C0
2A80
3E00
A800
A400
A400
A000
A000
ENDCHAR
STARTCHAR thorn.fina
ENCODING -1
SWIDTH 483 0
DWIDTH 4 0
BBX 5 12 0 -3
BITMAP
2400
3400
3000
7000
6B00
7740
B300
AA00
A400
9000
9000
9000
ENDCHAR
STARTCHAR q.fina
ENCODING -1
SWIDTH 449 0
DWIDTH 4 0
BBX 4 10 0 -4
BITMAP
01
1F
77
A6
A9
7D
0D
0C
0C
04
ENDCHAR
STARTCHAR r.fina
ENCODING -1
SWIDTH 495 0
DWIDTH 4 0
BBX 5 5 0 0
BITMAP
2700
6B40
B740
B000
6000
ENDCHAR
STARTCHAR racute.fina
ENCODING -1
SWIDTH 495 0
DWIDTH 4 0
BBX 5 9 0 0
BITMAP
0240
0700
0900
0000
2700
6B40
B740
B000
6000
ENDCHAR
STARTCHAR rcaron.fina
ENCODING -1
SWIDTH 495 0
DWIDTH 4 0
BBX 5 10 0 0
BITMAP
1440
1A40
1A00
0D00
0000
2700
6B40
B740
B000
6000
ENDCHAR
STARTCHAR uni0157.fina
ENCODING -1
SWIDTH 495 0
DWIDTH 4 0
BBX 5 8 0 -3
BITMAP
2700
6B40
B740
B000
6000
5000
9000
8000
ENDCHAR
STARTCHAR uni0211.fina
ENCODING -1
SWIDTH 495 0
DWIDTH 4 0
BBX 5 10 0 0
BITMAP
1400
6900
3600
2200
0000
2700
6B40
B740
B000
6000
ENDCHAR
STARTCHAR uni0213.fina
ENCODING -1
SWIDTH 495 0
DWIDTH 4 0
BBX 5 8 0 0
BITMAP
1E00
3640
1140
2700
6B40
B740
B000
6000
ENDCHAR
STARTCHAR s.fina
ENCODING -1
SWIDTH 394 0
DWIDTH 4 0
BBX 4 5 0 0
BITMAP
18
28
6D
9D
2C
ENDCHAR
STARTCHAR sacute.fina
ENCODING -1
SWIDTH 394 0
DWIDTH 4 0
BBX 4 9 0 0
BITMAP
03
06
08
00
18
28
6D
9D
2C
ENDCHAR
STARTCHAR scaron.fina
ENCODING -1
SWIDTH 394 0
DWIDTH 4 0
BBX 4 10 0 0
BITMAP
11
27
1A
1C
00
18
28
6D
9D
2C
ENDCHAR
STARTCHAR scedilla.fina
ENCODING -1
SWIDTH 394 0
DWIDTH 4 0
BBX 4 8 0 -3
BITMAP
18
28
7C
99
6C
1C
0C
78
ENDCHAR
STARTCHAR scircumflex.fina
ENCODING -1
SWIDTH 394 0
DWIDTH 4 0
BBX 4 10 0 0
BITMAP
04
1E
26
22
00
18
28
6D
9D
2C
ENDCHAR
STARTCHAR uni0219.fina
ENCODING -1
SWIDTH 394 0
DWIDTH 4 0
BBX 4 8 0 -3
BITMAP
18
28
6D
9D
2C
14
24
20
ENDCHAR
STARTCHAR germandbls.fina
ENCODING -1
SWIDTH 580 0
DWIDTH 5 0
BBX 5 11 0 -2
BITMAP
0B80
29C0
30C0
6340
6A00
6740
A2C0
ACC0
AB80
A000
9000
ENDCHAR
STARTCHAR uni01C9.ss01.fina
ENCODING -1
SWIDTH 466 0
DWIDTH 4 0
BBX 5 14 0 -5
BITMAP
2400
2400
3740
3000
7300
6700
A600
AA00
7E00
1D00
2D00
9C00
E800
B000
ENDCHAR
STARTCHAR eng.ss01.fina
ENCODING -1
SWIDTH 484 0
DWIDTH 4 0
BBX 4 10 0 -5
BITMAP
27
6F
B7
B6
66
0D
2D
5C
A8
74
ENDCHAR
STARTCHAR p.ss01.fina
ENCODING -1
SWIDTH 488 0
DWIDTH 4 0
BBX 5 10 -1 -5
BITMAP
0DC0
1EC0
1DC0
19C0
2980
7800
A800
A400
B000
A000
ENDCHAR
STARTCHAR z.ss01.fina
ENCODING -1
SWIDTH 406 0
DWIDTH 4 0
BBX 5 10 -1 -4
BITMAP
1440
1FC0
0700
1C00
1D00
0B00
1F00
2600
6900
7800
ENDCHAR
STARTCHAR zacute.ss01.fina
ENCODING -1
SWIDTH 406 0
DWIDTH 4 0
BBX 5 13 -1 -4
BITMAP
0080
0280
0200
1440
1FC0
0700
1C00
1D00
0B00
1F00
2600
6900
7800
ENDCHAR
STARTCHAR zcaron.ss01.fina
ENCODING -1
SWIDTH 406 0
DWIDTH 4 0
BBX 5 14 -1 -4
BITMAP
0440
09C0
0A80
0700
1440
1FC0
0700
1C00
1D00
0B00
1F00
2600
6900
7800
ENDCHAR
STARTCHAR zdotaccent.ss01.fina
ENCODING -1
SWIDTH 406 0
DWIDTH 4 0
BBX 5 11 -1 -4
BITMAP
0700
1440
1FC0
0700
1C00
1D00
0B00
1F00
2600
6900
7800
ENDCHAR
STARTCHAR t.fina
ENCODING -1
SWIDTH 413 0
DWIDTH 4 0
BBX 4 9 0 0
BITMAP
0A
1B
26
39
FF
70
30
35
2D
ENDCHAR
STARTCHAR tbar.fina
ENCODING -1
SWIDTH 387 0
DWIDTH 3 0
BBX 4 8 0 0
BITMAP
18
24
34
BD
FC
60
75
2D
ENDCHAR
STARTCHAR tcaron.fina
ENCODING -1
SWIDTH 413 0
DWIDTH 4 0
BBX 6 9 0 0
BITMAP
0A00
1B60
2650
3900
FF00
7000
3000
3500
2D00
ENDCHAR
STARTCHAR uni0163.fina
ENCODING -1
SWIDTH 413 0
DWIDTH 4 0
BBX 4 12 0 -3
BITMAP
0A
1B
26
39
FF
70
30
30
2E
2C
08
78
ENDCHAR
STARTCHAR uni021B.fina
ENCODING -1
SWIDTH 413 0
DWIDTH 4 0
BBX 4 12 0 -3
BITMAP
0A
1B
26
39
FF
70
30
35
2D
14
18
14
ENDCHAR
STARTCHAR u.fina
ENCODING -1
SWIDTH 460 0
DWIDTH 4 0
BBX 4 5 0 0
BITMAP
22
67
AA
AE
7A
ENDCHAR
STARTCHAR uacute.fina
ENCODING -1
SWIDTH 460 0
DWIDTH 4 0
BBX 5 9 0 0
BITMAP
0240
0700
0900
0000
2200
6700
AA00
AE00
7A00
ENDCHAR
STARTCHAR ubreve.fina
ENCODING -1
SWIDTH 460 0
DWIDTH 4 0
BBX 5 9 0 0
BITMAP
1000
3680
2F00
0000
2200
6700
AA00
AE00
7A00
ENDCHAR
STARTCHAR ucircumflex.fina
ENCODING -1
SWIDTH 460 0
DWIDTH 4 0
BBX 4 10 0 0
BITMAP
05
0E
1B
22
00
22
67
AA
AE
7A
ENDCHAR
STARTCHAR uni0215.fina
ENCODING -1
SWIDTH 460 0
DWIDTH 4 0
BBX 4 10 0 0
BITMAP
14
69
36
22
00
22
67
AA
AE
7A
ENDCHAR
STARTCHAR udieresis.fina
ENCODING -1
SWIDTH 460 0
DWIDTH 4 0
BBX 5 7 0 0
BITMAP
2640
0000
2200
6700
AA00
AE00
7A00
ENDCHAR
STARTCHAR uni1EE5.fina
ENCODING -1
SWIDTH 460 0
DWIDTH 4 0
BBX 4 7 0 -2
BITMAP
22
67
AA
AE
7A
00
28
ENDCHAR
STARTCHAR ugrave.fina
ENCODING -1
SWIDTH 460 0
DWIDTH 4 0
BBX 4 10 0 0
BITMAP
10
34
18
08
00
22
67
AA
AE
7A
ENDCHAR
STARTCHAR uni1EE7.fina
ENCODING -1
SWIDTH 460 0
DWIDTH 4 0
BBX 4 9 0 0
BITMAP
0E
07
0A
00
22
67
AA
AE
7A
ENDCHAR
STARTCHAR uhorn.fina
ENCODING -1
SWIDTH 472 0
DWIDTH 4 0
BBX 5 7 0 0
BITMAP
0040
00C0
2380
6700
AA00
AE00
7A00
ENDCHAR
STARTCHAR uni1EE9.fina
ENCODING -1
SWIDTH 472 0
DWIDTH 4 0
BBX 5 9 0 0
BITMAP
0240
0700
0940
00C0
2380
6700
AA00
AE00
7A00
ENDCHAR
STARTCHAR uni1EF1.fina
ENCODING -1
SWIDTH 472 0
DWIDTH 4 0
BBX 5 9 0 -2
BITMAP
0040
00C0
2380
6700
AA00
AE00
7A00
0000
2800
ENDCHAR
STARTCHAR uni1EEB.fina
ENCODING -1
SWIDTH 472 0
DWIDTH 4 0
BBX 5 10 0 0
BITMAP
1000
3400
1800
0840
00C0
2380
6700
AA00
AE00
7A00
ENDCHAR
STARTCHAR uni1EED.fina
ENCODING -1
SWIDTH 472 0
DWIDTH 4 0
BBX 5 9 0 0
BITMAP
0E00
0700
0A40
00C0
2380
6700
AA00
AE00
7A00
ENDCHAR
STARTCHAR uni1EEF.fina
ENCODING -1
SWIDTH 472 0
DWIDTH 4 0
BBX 5 8 0 0
BITMAP
1940
2740
00C0
2380
6700
AA00
AE00
7A00
ENDCHAR
STARTCHAR uhungarumlaut.fina
ENCODING -1
SWIDTH 460 0
DWIDTH 4 0
BBX 5 10 0 0
BITMAP
0440
0E80
1A40
1600
0000
2200
6700
AA00
AE00
7A00
ENDCHAR
STARTCHAR uni0217.fina
ENCODING -1
SWIDTH 460 0
DWIDTH 4 0
BBX 5 8 0 0
BITMAP
1E00
3680
1040
2200
6700
AA00
AE00
7A00
ENDCHAR
STARTCHAR umacron.fina
ENCODING -1
SWIDTH 460 0
DWIDTH 4 0
BBX 4 7 0 0
BITMAP
2F
00
22
67
AA
AE
7A
ENDCHAR
STARTCHAR uogonek.fina
ENCODING -1
SWIDTH 460 0
DWIDTH 4 0
BBX 5 8 0 -3
BITMAP
2200
6700
AA00
AE00
7A00
0D00
0C00
0B40
ENDCHAR
STARTCHAR uring.fina
ENCODING -1
SWIDTH 460 0
DWIDTH 4 0
BBX 4 9 0 0
BITMAP
0E
1B
1E
00
22
67
AA
AE
7A
ENDCHAR
STARTCHAR utilde.fina
ENCODING -1
SWIDTH 460 0
DWIDTH 4 0
BBX 5 8 0 0
BITMAP
2980
2740
0000
2200
6700
AA00
AE00
7A00
ENDCHAR
STARTCHAR v.fina
ENCODING -1
SWIDTH 420 0
DWIDTH 4 0
BBX 4 5 0 0
BITMAP
53
A6
A9
7C
74
ENDCHAR
STARTCHAR w.fina
ENCODING -1
SWIDTH 666 0
DWIDTH 6 0
BBX 7 5 0 0
BITMAP
5224
AB30
AFA0
7BC0
7740
ENDCHAR
STARTCHAR wacute.fina
ENCODING -1
SWIDTH 666 0
DWIDTH 6 0
BBX 7 9 0 0
BITMAP
00C0
0180
0200
0000
5224
AB30
AFA0
7BC0
7740
ENDCHAR
STARTCHAR wcircumflex.fina
ENCODING -1
SWIDTH 666 0
DWIDTH 6 0
BBX 7 10 0 0
BITMAP
0100
0380
0980
0880
0000
5224
AB30
AFA0
7BC0
7740
ENDCHAR
STARTCHAR wdieresis.fina
ENCODING -1
SWIDTH 666 0
DWIDTH 6 0
BBX 7 7 0 0
BITMAP
0DC0
0000
5224
AB30
AFA0
7BC0
7740
ENDCHAR
STARTCHAR wgrave.fina
ENCODING -1
SWIDTH 666 0
DWIDTH 6 0
BBX 7 10 0 0
BITMAP
0400
0C00
0900
0200
0000
5224
AB30
AFA0
7BC0
7740
ENDCHAR
STARTCHAR x.fina
ENCODING -1
SWIDTH 580 0
DWIDTH 5 0
BBX 6 5 0 0
BITMAP
3A80
2E80
4D00
9E90
BB80
ENDCHAR
STARTCHAR y.fina
ENCODING -1
SWIDTH 449 0
DWIDTH 4 0
BBX 4 10 0 -5
BITMAP
23
66
AA
AE
79
1D
6C
98
E4
A0
ENDCHAR
STARTCHAR yacute.fina
ENCODING -1
SWIDTH 449 0
DWIDTH 4 0
BBX 5 14 0 -5
BITMAP
0240
0700
0900
0000
2300
6600
AA00
AE00
7900
1D00
6C00
9800
E400
A000
ENDCHAR
STARTCHAR ycircumflex.fina
ENCODING -1
SWIDTH 449 0
DWIDTH 4 0
BBX 4 15 0 -5
BITMAP
05
0E
1B
22
00
23
66
AA
AE
79
1D
6C
98
E4
A0
ENDCHAR
STARTCHAR ydieresis.fina
ENCODING -1
SWIDTH 449 0
DWIDTH 4 0
BBX 5 12 0 -5
BITMAP
2640
0000
2300
6600
AA00
AE00
7900
1D00
6C00
9800
E400
A000
ENDCHAR
STARTCHAR uni1EF5.fina
ENCODING -1
SWIDTH 449 0
DWIDTH 4 0
BBX 4 10 0 -5
BITMAP
23
66
AA
AE
79
1D
6C
98
EB
A0
ENDCHAR
STARTCHAR ygrave.fina
ENCODING -1
SWIDTH 449 0
DWIDTH 4 0
BBX 4 15 0 -5
BITMAP
10
34
18
08
00
23
66
AA
AE
79
1D
6C
98
E4
A0
ENDCHAR
STARTCHAR uni1EF7.fina
ENCODING -1
SWIDTH 449 0
DWIDTH 4 0
BBX 4 14 0 -5
BITMAP
0E
07
0A
00
23
66
AA
AE
79
1D
6C
98
E4
A0
ENDCHAR
STARTCHAR uni0233.fina
ENCODING -1
SWIDTH 449 0
DWIDTH 4 0
BBX 4 12 0 -5
BITMAP
2F
00
23
66
AA
AE
79
1D
6C
98
E4
A0
ENDCHAR
STARTCHAR uni1EF9.fina
ENCODING -1
SWIDTH 449 0
DWIDTH 4 0
BBX 5 13 0 -5
BITMAP
2980
2740
0000
2300
6600
AA00
AE00
7900
1D00
6C00
9800
E400
A000
ENDCHAR
STARTCHAR z.fina
ENCODING -1
SWIDTH 412 0
DWIDTH 4 0
BBX 4 5 0 0
BITMAP
7E
1D
74
A0
FF
ENDCHAR
STARTCHAR zacute.fina
ENCODING -1
SWIDTH 412 0
DWIDTH 4 0
BBX 4 9 0 0
BITMAP
03
06
08
00
7E
1D
74
A0
FF
ENDCHAR
STARTCHAR zcaron.fina
ENCODING -1
SWIDTH 412 0
DWIDTH 4 0
BBX 4 10 0 0
BITMAP
11
27
1A
0C
00
7E
1D
74
A0
FF
ENDCHAR
STARTCHAR zdotaccent.fina
ENCODING -1
SWIDTH 412 0
DWIDTH 4 0
BBX 4 7 0 0
BITMAP
0D
00
7E
1D
74
A0
FF
ENDCHAR
STARTCHAR iacute_j.loclNLD
ENCODING -1
SWIDTH 479 0
DWIDTH 4 0
BBX 6 14 0 -5
BITMAP
0990
1DC0
2640
0000
2300
6600
AA00
AEC0
7B40
1D00
6C00
9800
E400
A000
ENDCHAR
STARTCHAR b.ss01
ENCODING -1
SWIDTH 449 0
DWIDTH 4 0
BBX 5 10 0 0
BITMAP
0E00
2A00
3600
3500
7800
7A00
6B40
67C0
6A00
2800
ENDCHAR
STARTCHAR d.ss01
ENCODING -1
SWIDTH 470 0
DWIDTH 4 0
BBX 6 9 0 0
BITMAP
0180
0240
0240
0300
1F00
7600
A600
AA90
7780
ENDCHAR
STARTCHAR f.ss01
ENCODING -1
SWIDTH 323 0
DWIDTH 3 0
BBX 6 15 -2 -5
BITMAP
00A0
01B0
0360
0360
0690
0680
0780
07F0
0A00
0A00
0A00
2900
6900
6C00
3800
ENDCHAR
STARTCHAR l.ss01
ENCODING -1
SWIDTH 237 0
DWIDTH 2 0
BBX 3 9 0 0
BITMAP
24
24
34
30
70
60
A0
A8
74
ENDCHAR
STARTCHAR lacute.ss01
ENCODING -1
SWIDTH 237 0
DWIDTH 2 0
BBX 5 12 0 0
BITMAP
0100
0740
0900
2400
2400
3400
3000
7000
6000
A000
A800
7400
ENDCHAR
STARTCHAR uni013C.ss01
ENCODING -1
SWIDTH 237 0
DWIDTH 2 0
BBX 3 12 0 -3
BITMAP
24
24
34
30
70
60
A0
A8
74
50
60
50
ENDCHAR
STARTCHAR uni01C9.ss01
ENCODING -1
SWIDTH 491 0
DWIDTH 4 0
BBX 6 14 0 -5
BITMAP
2400
2400
3740
3000
7300
6700
A600
AAD0
7F40
1D00
2D00
9C00
E800
B000
ENDCHAR
STARTCHAR lslash.ss01
ENCODING -1
SWIDTH 324 0
DWIDTH 3 0
BBX 4 10 0 0
BITMAP
18
28
24
3D
B4
B0
60
A0
66
3D
ENDCHAR
STARTCHAR eng.ss01
ENCODING -1
SWIDTH 508 0
DWIDTH 5 0
BBX 6 10 0 -5
BITMAP
2700
6F00
B700
B790
6740
0E00
2D00
5C00
A800
7400
ENDCHAR
STARTCHAR o.ss01
ENCODING -1
SWIDTH 451 0
DWIDTH 4 0
BBX 5 5 0 0
BITMAP
2E00
67C0
9600
AA00
3C00
ENDCHAR
STARTCHAR oacute.ss01
ENCODING -1
SWIDTH 451 0
DWIDTH 4 0
BBX 5 9 0 0
BITMAP
0300
0A00
0800
0000
2E00
67C0
9600
AA00
3C00
ENDCHAR
STARTCHAR obreve.ss01
ENCODING -1
SWIDTH 451 0
DWIDTH 4 0
BBX 5 8 0 0
BITMAP
6240
2E00
0000
2E00
67C0
9600
AA00
3C00
ENDCHAR
STARTCHAR ocircumflex.ss01
ENCODING -1
SWIDTH 451 0
DWIDTH 4 0
BBX 5 10 0 0
BITMAP
0400
1D00
2600
2200
0000
2E00
67C0
9600
AA00
3C00
ENDCHAR
STARTCHAR uni1ED1.ss01
ENCODING -1
SWIDTH 451 0
DWIDTH 4 0
BBX 5 10 0 0
BITMAP
0040
0180
1D00
2600
0000
2E00
67C0
9600
AA00
3C00
ENDCHAR
STARTCHAR uni1ED9.ss01
ENCODING -1
SWIDTH 451 0
DWIDTH 4 0
BBX 5 12 0 -2
BITMAP
0400
1D00
2600
2200
0000
2E00
67C0
9600
AA00
3C00
0000
2400
ENDCHAR
STARTCHAR uni1ED3.ss01
ENCODING -1
SWIDTH 451 0
DWIDTH 4 0
BBX 5 10 0 0
BITMAP
4000
A000
1D00
2600
0000
2E00
67C0
9600
AA00
3C00
ENDCHAR
STARTCHAR uni1ED5.ss01
ENCODING -1
SWIDTH 451 0
DWIDTH 4 0
BBX 6 9 0 0
BITMAP
01C0
0090
1EC0
3A00
2E00
67C0
9600
AA00
3C00
ENDCHAR
STARTCHAR uni1ED7.ss01
ENCODING -1
SWIDTH 451 0
DWIDTH 4 0
BBX 5 10 0 0
BITMAP
2A40
1600
1D00
3600
0000
2E00
67C0
9600
AA00
3C00
ENDCHAR
STARTCHAR uni020D.ss01
ENCODING -1
SWIDTH 451 0
DWIDTH 4 0
BBX 5 10 0 0
BITMAP
4400
AC00
6900
2500
0000
2E00
67C0
9600
AA00
3C00
ENDCHAR
STARTCHAR odieresis.ss01
ENCODING -1
SWIDTH 451 0
DWIDTH 4 0
BBX 5 7 0 0
BITMAP
3700
0000
2E00
67C0
9600
AA00
3C00
ENDCHAR
STARTCHAR uni022B.ss01
ENCODING -1
SWIDTH 451 0
DWIDTH 4 0
BBX 5 9 0 0
BITMAP
2F00
0000
3700
0000
2E00
67C0
9600
AA00
3C00
ENDCHAR
STARTCHAR uni0231.ss01
ENCODING -1
SWIDTH 451 0
DWIDTH 4 0
BBX 5 9 0 0
BITMAP
2F00
0000
1C00
0000
2E00
67C0
9600
AA00
3C00
ENDCHAR
STARTCHAR uni1ECD.ss01
ENCODING -1
SWIDTH 451 0
DWIDTH 4 0
BBX 5 7 0 -2
BITMAP
2E00
67C0
9600
AA00
3C00
0000
2400
ENDCHAR
STARTCHAR ograve.ss01
ENCODING -1
SWIDTH 451 0
DWIDTH 4 0
BBX 5 10 0 0
BITMAP
1000
3000
2400
0800
0000
2E00
67C0
9600
AA00
3C00
ENDCHAR
STARTCHAR uni1ECF.ss01
ENCODING -1
SWIDTH 451 0
DWIDTH 4 0
BBX 5 9 0 0
BITMAP
1D00
0600
0D00
0000
2E00
67C0
9600
AA00
3C00
ENDCHAR
STARTCHAR ohorn.ss01
ENCODING -1
SWIDTH 451 0
DWIDTH 4 0
BBX 5 7 0 0
BITMAP
0040
0240
2F40
67C0
9600
AA00
3C00
ENDCHAR
STARTCHAR uni1EDB.ss01
ENCODING -1
SWIDTH 451 0
DWIDTH 4 0
BBX 5 9 0 0
BITMAP
0600
0900
0840
0240
2F40
67C0
9600
AA00
3C00
ENDCHAR
STARTCHAR uni1EE3.ss01
ENCODING -1
SWIDTH 451 0
DWIDTH 4 0
BBX 5 9 0 -2
BITMAP
0040
0240
2F40
67C0
9600
AA00
3C00
0000
2400
ENDCHAR
STARTCHAR uni1EDD.ss01
ENCODING -1
SWIDTH 451 0
DWIDTH 4 0
BBX 5 10 0 0
BITMAP
1000
6000
3400
1440
0240
2F40
67C0
9600
AA00
3C00
ENDCHAR
STARTCHAR uni1EDF.ss01
ENCODING -1
SWIDTH 451 0
DWIDTH 4 0
BBX 5 9 0 0
BITMAP
1D00
0900
1D40
0240
2F40
67C0
9600
AA00
3C00
ENDCHAR
STARTCHAR uni1EE1.ss01
ENCODING -1
SWIDTH 451 0
DWIDTH 4 0
BBX 5 8 0 0
BITMAP
3600
5A40
0240
2F40
67C0
9600
AA00
3C00
ENDCHAR
STARTCHAR ohungarumlaut.ss01
ENCODING -1
SWIDTH 451 0
DWIDTH 4 0
BBX 5 10 0 0
BITMAP
0500
1E40
2700
2200
0000
2E00
67C0
9600
AA00
3C00
ENDCHAR
STARTCHAR uni020F.ss01
ENCODING -1
SWIDTH 451 0
DWIDTH 4 0
BBX 5 8 0 0
BITMAP
2E00
7740
5100
2E00
67C0
9600
AA00
3C00
ENDCHAR
STARTCHAR omacron.ss01
ENCODING -1
SWIDTH 451 0
DWIDTH 4 0
BBX 5 7 0 0
BITMAP
3E00
0000
2E00
67C0
9600
AA00
3C00
ENDCHAR
STARTCHAR uni01EB.ss01
ENCODING -1
SWIDTH 451 0
DWIDTH 4 0
BBX 5 8 0 -3
BITMAP
2E00
67C0
9640
A600
7D00
2400
3000
2D00
ENDCHAR
STARTCHAR oslash.ss01
ENCODING -1
SWIDTH 451 0
DWIDTH 4 0
BBX 5 8 0 -1
BITMAP
0400
0800
3F40
AF80
AA00
BD00
2800
2000
ENDCHAR
STARTCHAR oslashacute.ss01
ENCODING -1
SWIDTH 451 0
DWIDTH 4 0
BBX 5 10 0 -1
BITMAP
0C00
1800
2400
0800
3F40
AF80
AA00
BD00
2800
2000
ENDCHAR
STARTCHAR otilde.ss01
ENCODING -1
SWIDTH 451 0
DWIDTH 4 0
BBX 5 8 0 0
BITMAP
3940
5B00
0000
2E00
67C0
9600
AA00
3C00
ENDCHAR
STARTCHAR uni022D.ss01
ENCODING -1
SWIDTH 451 0
DWIDTH 4 0
BBX 5 9 0 0
BITMAP
2F00
3A40
5B00
0000
2E00
67C0
9600
AA00
3C00
ENDCHAR
STARTCHAR p.ss01
ENCODING -1
SWIDTH 500 0
DWIDTH 5 0
BBX 7 10 -1 -5
BITMAP
0DC0
1EC0
1DC4
19D8
28E0
7800
A800
A400
B000
A000
ENDCHAR
STARTCHAR t.ss01
ENCODING -1
SWIDTH 343 0
DWIDTH 3 0
BBX 4 8 0 0
BITMAP
18
24
34
BD
70
60
76
2D
ENDCHAR
STARTCHAR uni0163.ss01
ENCODING -1
SWIDTH 343 0
DWIDTH 3 0
BBX 5 11 0 -3
BITMAP
1400
2400
3400
BD00
7000
6000
6240
3E00
2C00
0C00
7800
ENDCHAR
STARTCHAR uni021B.ss01
ENCODING -1
SWIDTH 343 0
DWIDTH 3 0
BBX 4 11 0 -3
BITMAP
18
24
34
BD
70
60
76
2D
14
24
24
ENDCHAR
STARTCHAR z.ss01
ENCODING -1
SWIDTH 432 0
DWIDTH 4 0
BBX 6 10 -1 -4
BITMAP
1440
1FC0
0700
1C10
1DA0
0B40
1F00
2600
6900
7800
ENDCHAR
STARTCHAR zacute.ss01
ENCODING -1
SWIDTH 432 0
DWIDTH 4 0
BBX 6 13 -1 -4
BITMAP
0080
0280
0200
1440
1FC0
0700
1C10
1DA0
0B40
1F00
2600
6900
7800
ENDCHAR
STARTCHAR zcaron.ss01
ENCODING -1
SWIDTH 432 0
DWIDTH 4 0
BBX 6 14 -1 -4
BITMAP
0440
09C0
0A80
0700
1440
1FC0
0700
1C10
1DA0
0B40
1F00
2600
6900
7800
ENDCHAR
STARTCHAR zdotaccent.ss01
ENCODING -1
SWIDTH 432 0
DWIDTH 4 0
BBX 6 11 -1 -4
BITMAP
0700
1440
1FC0
0700
1C10
1DA0
0B40
1F00
2600
6900
7800
ENDCHAR
STARTCHAR f_f
ENCODING -1
SWIDTH 684 0
DWIDTH 6 0
BBX 7 13 0 -3
BITMAP
0A28
1B6C
279C
36C8
35D4
79A0
72D0
6BBC
AAA0
AAA0
6AA0
6AA0
39D0
ENDCHAR
STARTCHAR f_j
ENCODING -1
SWIDTH 633 0
DWIDTH 6 0
BBX 7 14 0 -4
BITMAP
0700
0E40
1A40
26A0
3D00
BFD0
70D0
75D0
65D8
65E0
76C0
3A80
3A80
0100
ENDCHAR
STARTCHAR lslash_lslash
ENCODING -1
SWIDTH 654 0
DWIDTH 6 0
BBX 8 11 0 0
BITMAP
0AFE
2940
0E38
2AA8
32D8
6694
6AA0
7AE0
72C0
6798
2DB4
ENDCHAR
STARTCHAR t_t
ENCODING -1
SWIDTH 706 0
DWIDTH 6 0
BBX 8 9 0 0
BITMAP
0A24
1BA8
26D8
39E0
FFF8
7180
3180
36D9
2DB8
ENDCHAR
STARTCHAR f_j.fina
ENCODING -1
SWIDTH 624 0
DWIDTH 6 0
BBX 6 14 0 -4
BITMAP
0700
0E40
1A40
26A0
3D00
BFD0
70D0
75C0
65C0
65C0
76C0
3980
3A80
0100
ENDCHAR
STARTCHAR fi.fina
ENCODING -1
SWIDTH 603 0
DWIDTH 5 0
BBX 6 13 0 -3
BITMAP
0700
0E40
1A40
26A0
3D00
BFD0
74D0
75C0
76C0
7680
7500
3800
3800
ENDCHAR
STARTCHAR fl.fina
ENCODING -1
SWIDTH 730 0
DWIDTH 7 0
BBX 7 13 0 -3
BITMAP
0B28
1E6C
2698
36DC
39D8
79E4
71E0
6FC0
A9D4
A8B4
6800
6800
3400
ENDCHAR
STARTCHAR f_ij.loclNLD.fina
ENCODING -1
SWIDTH 837 0
DWIDTH 8 0
BBX 8 15 0 -5
BITMAP
0700
0E40
1A40
2666
3D00
BFD5
70D9
75CC
75EC
75AC
7528
3868
39A4
01B0
01D0
ENDCHAR
STARTCHAR i_j.loclNLD.fina
ENCODING -1
SWIDTH 451 0
DWIDTH 4 0
BBX 5 12 0 -5
BITMAP
3740
0000
2300
6600
AA00
AE00
7900
1D00
6C00
9800
E400
A000
ENDCHAR
STARTCHAR t_t.ss01.fina
ENCODING -1
SWIDTH 666 0
DWIDTH 6 0
BBX 6 8 0 0
BITMAP
18C0
24C0
35C0
BFF0
7280
6240
7790
29E0
ENDCHAR
STARTCHAR I_J.loclNLD
ENCODING -1
SWIDTH 776 0
DWIDTH 7 0
BBX 6 9 1 0
BITMAP
6060
A0A0
A0A0
D0D0
E6D0
BDD0
11C0
9680
BE00
ENDCHAR
STARTCHAR f_ij.loclNLD
ENCODING -1
SWIDTH 865 0
DWIDTH 8 0
BBX 9 15 0 -5
BITMAP
050000
0A4000
1A4000
276600
3D0000
BFD500
70D900
75CC00
75ED80
75AE00
752800
386800
39A400
01B000
01D000
ENDCHAR
STARTCHAR i_j.loclNLD
ENCODING -1
SWIDTH 479 0
DWIDTH 4 0
BBX 5 12 0 -5
BITMAP
3740
0000
2300
6600
AA00
AEC0
7B40
1D00
6C00
9800
E400
A000
ENDCHAR
STARTCHAR t_t.ss01
ENCODING -1
SWIDTH 632 0
DWIDTH 6 0
BBX 7 8 0 0
BITMAP
18C0
24C0
35C0
BFF0
7280
6240
7798
29E0
ENDCHAR
STARTCHAR uni0410.ss01
ENCODING -1
SWIDTH 780 0
DWIDTH 7 0
BBX 8 9 0 0
BITMAP
02FD
0A54
2828
3434
7034
7070
70B0
75F0
2E60
ENDCHAR
STARTCHAR uni0411.ss01
ENCODING -1
SWIDTH 881 0
DWIDTH 8 0
BBX 7 10 1 -1
BITMAP
3FF4
2D00
1C00
1C00
2FE0
7978
2428
3428
35B0
2240
ENDCHAR
STARTCHAR uni0412.ss01
ENCODING -1
SWIDTH 826 0
DWIDTH 7 0
BBX 7 9 1 0
BITMAP
6F90
55B0
6034
A0B0
AB80
D1D0
D0A0
D6D0
FE40
ENDCHAR
STARTCHAR uni0413.ss01
ENCODING -1
SWIDTH 634 0
DWIDTH 6 0
BBX 6 9 2 0
BITMAP
FFE0
7400
7000
7000
A000
A000
D000
D000
C000
ENDCHAR
STARTCHAR uni0403.ss01
ENCODING -1
SWIDTH 634 0
DWIDTH 6 0
BBX 6 12 2 0
BITMAP
0040
0780
0900
FFE0
7400
7000
7000
A000
A000
D000
D000
C000
ENDCHAR
STARTCHAR uni0490.ss01
ENCODING -1
SWIDTH 639 0
DWIDTH 6 0
BBX 6 12 2 0
BITMAP
0010
0030
0070
FFE0
B500
7000
7000
A000
A000
D000
D000
C000
ENDCHAR
STARTCHAR uni0414.ss01
ENCODING -1
SWIDTH 836 0
DWIDTH 8 0
BBX 8 9 0 0
BITMAP
1BE0
B578
081D
1C0D
280D
281C
3428
35B4
2F90
ENDCHAR
STARTCHAR uni0415.ss01
ENCODING -1
SWIDTH 720 0
DWIDTH 6 0
BBX 7 9 0 0
BITMAP
0BE0
2D74
3434
2810
1F40
7500
A000
7574
2F90
ENDCHAR
STARTCHAR uni0400.ss01
ENCODING -1
SWIDTH 720 0
DWIDTH 6 0
BBX 7 12 0 0
BITMAP
0400
0E00
0240
0BE0
2D74
3434
2810
1F40
7500
A000
7574
2F90
ENDCHAR
STARTCHAR uni0401.ss01
ENCODING -1
SWIDTH 720 0
DWIDTH 6 0
BBX 7 10 0 0
BITMAP
0760
0BE0
2D74
3434
2810
1F40
7500
A000
7574
2F90
ENDCHAR
STARTCHAR uni0416.ss01
ENCODING -1
SWIDTH 1196 0
DWIDTH 11 0
BBX 11 9 0 0
BITMAP
2D1878
0728D0
0325C0
027B40
01FD00
077700
0D7340
5C62D4
B460B4
ENDCHAR
STARTCHAR uni0417.ss01
ENCODING -1
SWIDTH 725 0
DWIDTH 7 0
BBX 6 9 0 0
BITMAP
0BD0
29A0
2460
0090
0BE0
0070
6070
75E0
2F80
ENDCHAR
STARTCHAR uni0418.ss01
ENCODING -1
SWIDTH 800 0
DWIDTH 7 0
BBX 6 9 1 0
BITMAP
6060
7070
A0A0
A0A0
D0D0
D1D0
D2D0
EAC0
B8C0
ENDCHAR
STARTCHAR uni0419.ss01
ENCODING -1
SWIDTH 800 0
DWIDTH 7 0
BBX 6 10 1 0
BITMAP
0490
6BE0
7070
A0A0
A0A0
D0D0
D1D0
D2D0
EAC0
B8C0
ENDCHAR
STARTCHAR uni040D.ss01
ENCODING -1
SWIDTH 800 0
DWIDTH 7 0
BBX 6 12 1 0
BITMAP
1000
3800
0900
6060
7070
A0A0
A0A0
D0D0
D1D0
D2D0
EAC0
B8C0
ENDCHAR
STARTCHAR uni048A.ss01
ENCODING -1
SWIDTH 815 0
DWIDTH 7 0
BBX 6 12 1 -3
BITMAP
6060
7070
A0A0
A0A0
D0D0
D1D0
D2D0
EAD0
B8F0
00D0
0180
0140
ENDCHAR
STARTCHAR uni041A.ss01
ENCODING -1
SWIDTH 779 0
DWIDTH 7 0
BBX 7 9 0 0
BITMAP
1C18
1C28
2870
29D0
7F40
3680
35C0
70E0
3078
ENDCHAR
STARTCHAR uni040C.ss01
ENCODING -1
SWIDTH 779 0
DWIDTH 7 0
BBX 7 12 0 0
BITMAP
0004
0038
0090
1C18
1C28
2870
29D0
7F40
3680
35C0
70E0
3078
ENDCHAR
STARTCHAR uni041B.ss01
ENCODING -1
SWIDTH 706 0
DWIDTH 6 0
BBX 7 9 -1 0
BITMAP
0070
00B0
00F0
01F0
02B0
0370
0670
1D34
782C
ENDCHAR
STARTCHAR uni041C.ss01
ENCODING -1
SWIDTH 967 0
DWIDTH 9 0
BBX 9 9 0 0
BITMAP
070A00
0B4E00
0B1E00
0F2E00
1E7A00
1ABA00
26EA00
72D700
E18340
ENDCHAR
STARTCHAR uni041D.ss01
ENCODING -1
SWIDTH 846 0
DWIDTH 8 0
BBX 8 9 0 0
BITMAP
0C0C
1C1C
1C1C
281C
7FFD
3828
3434
3434
3030
ENDCHAR
STARTCHAR uni041E.ss01
ENCODING -1
SWIDTH 816 0
DWIDTH 7 0
BBX 7 9 0 0
BITMAP
07E0
1D78
341C
701C
701C
701C
7028
39B0
1B90
ENDCHAR
STARTCHAR uni041F.ss01
ENCODING -1
SWIDTH 847 0
DWIDTH 8 0
BBX 7 9 1 0
BITMAP
FFFC
7070
7060
A0A0
A0A0
90D0
D0D0
D0D0
C0C0
ENDCHAR
STARTCHAR uni0420.ss01
ENCODING -1
SWIDTH 662 0
DWIDTH 6 0
BBX 6 9 0 0
BITMAP
2F80
2DA0
1C70
1870
29E0
7F80
3400
3400
3000
ENDCHAR
STARTCHAR uni0421.ss01
ENCODING -1
SWIDTH 704 0
DWIDTH 6 0
BBX 7 9 0 0
BITMAP
06E0
1D74
3434
7010
7000
7000
7000
3974
1B90
ENDCHAR
STARTCHAR uni0422.ss01
ENCODING -1
SWIDTH 631 0
DWIDTH 6 0
BBX 7 9 0 0
BITMAP
7FF8
1740
0700
0600
0A00
0A00
0D00
0D00
0C00
ENDCHAR
STARTCHAR uni0423.ss01
ENCODING -1
SWIDTH 776 0
DWIDTH 7 0
BBX 6 9 1 0
BITMAP
6060
A0A0
A0A0
D0D0
E6D0
BDD0
11C0
9680
BE00
ENDCHAR
STARTCHAR uni040E.ss01
ENCODING -1
SWIDTH 776 0
DWIDTH 7 0
BBX 6 10 1 0
BITMAP
0480
6FE0
A0A0
A0A0
D0D0
E6D0
BDD0
11C0
9680
BE00
ENDCHAR
STARTCHAR uni0424.ss01
ENCODING -1
SWIDTH 978 0
DWIDTH 9 0
BBX 9 10 0 -1
BITMAP
006000
0BAB40
29F680
30A280
70D280
71C340
73D700
3EFD00
018000
018000
ENDCHAR
STARTCHAR uni0425.ss01
ENCODING -1
SWIDTH 677 0
DWIDTH 6 0
BBX 8 9 -1 0
BITMAP
090A
071C
0374
02E0
02C0
07D0
0D70
2834
7024
ENDCHAR
STARTCHAR uni0427.ss01
ENCODING -1
SWIDTH 773 0
DWIDTH 7 0
BBX 6 9 1 0
BITMAP
6060
A0A0
A0D0
D1D0
E6D0
BDC0
10C0
01C0
0180
ENDCHAR
STARTCHAR uni0426.ss01
ENCODING -1
SWIDTH 822 0
DWIDTH 7 0
BBX 6 12 1 -3
BITMAP
6060
7070
A0A0
A0A0
D0D0
D1D0
D2D0
EAE0
B870
02F0
0360
03D0
ENDCHAR
STARTCHAR uni0428.ss01
ENCODING -1
SWIDTH 1174 0
DWIDTH 11 0
BBX 10 9 1 0
BITMAP
6090C0
70A0D0
A0D1C0
A0D1C0
D1C280
D2C380
D38780
EADA40
B4E240
ENDCHAR
STARTCHAR uni0429.ss01
ENCODING -1
SWIDTH 1194 0
DWIDTH 11 0
BBX 10 12 1 -3
BITMAP
6090C0
70A0D0
A0D1C0
A0D1C0
D1C280
D2C380
D38780
EADAD0
B8E1D0
0007D0
0009C0
000B80
ENDCHAR
STARTCHAR uni040F.ss01
ENCODING -1
SWIDTH 800 0
DWIDTH 7 0
BBX 6 11 1 -2
BITMAP
6060
7070
A0A0
A0A0
D0D0
D1D0
D2D0
EAC0
B8C0
2800
2400
ENDCHAR
STARTCHAR uni042C.ss01
ENCODING -1
SWIDTH 721 0
DWIDTH 6 0
BBX 7 9 0 0
BITMAP
1C00
1800
2800
2FE0
B974
3434
3434
29A0
1F80
ENDCHAR
STARTCHAR uni042A.ss01
ENCODING -1
SWIDTH 863 0
DWIDTH 8 0
BBX 7 9 1 0
BITMAP
FE00
0D00
1C00
2FE0
7978
2428
2424
1870
0B90
ENDCHAR
STARTCHAR uni042B.ss01
ENCODING -1
SWIDTH 1078 0
DWIDTH 10 0
BBX 10 9 0 0
BITMAP
1C0090
1800D0
2800D0
2FE1C0
B975C0
343580
343680
29A280
1F8240
ENDCHAR
STARTCHAR uni0409.ss01
ENCODING -1
SWIDTH 998 0
DWIDTH 9 0
BBX 10 9 -1 0
BITMAP
007000
00B000
00F000
01FB90
02B5A0
037060
0670A0
1D35D0
741F40
ENDCHAR
STARTCHAR uni040A.ss01
ENCODING -1
SWIDTH 1102 0
DWIDTH 10 0
BBX 10 9 0 0
BITMAP
0C2400
1C3400
1C7000
29BF80
7EA5A0
34A0A0
34A0A0
3475D0
302F40
ENDCHAR
STARTCHAR uni0405.ss01
ENCODING -1
SWIDTH 693 0
DWIDTH 6 0
BBX 7 9 0 0
BITMAP
0BD0
2970
3434
3810
0B80
01E0
9070
A5A0
2F80
ENDCHAR
STARTCHAR uni0404.ss01
ENCODING -1
SWIDTH 704 0
DWIDTH 6 0
BBX 7 9 0 0
BITMAP
06E0
1D74
3434
7020
7F40
7000
7000
3974
1B90
ENDCHAR
STARTCHAR uni042D.ss01
ENCODING -1
SWIDTH 755 0
DWIDTH 7 0
BBX 7 9 0 0
BITMAP
1BD0
34B0
1034
0028
0FF8
0034
6070
A1E0
2F80
ENDCHAR
STARTCHAR uni0406.ss01
ENCODING -1
SWIDTH 357 0
DWIDTH 3 0
BBX 3 9 0 0
BITMAP
18
1C
28
28
24
34
34
70
70
ENDCHAR
STARTCHAR uni0407.ss01
ENCODING -1
SWIDTH 357 0
DWIDTH 3 0
BBX 4 10 0 0
BITMAP
37
18
1C
28
28
24
34
34
70
70
ENDCHAR
STARTCHAR uni0408.ss01
ENCODING -1
SWIDTH 716 0
DWIDTH 6 0
BBX 7 9 0 0
BITMAP
1BE4
3570
7070
20A0
00A0
0090
10D0
75C0
2F40
ENDCHAR
STARTCHAR uni040B.ss01
ENCODING -1
SWIDTH 884 0
DWIDTH 8 0
BBX 8 9 0 0
BITMAP
7FF8
1740
0700
0700
0AB8
0B5D
0E0D
0D0D
0C0D
ENDCHAR
STARTCHAR uni042E.ss01
ENCODING -1
SWIDTH 1166 0
DWIDTH 11 0
BBX 11 9 0 0
BITMAP
0C1B80
1C35A0
1CA074
28D034
7FC034
39C070
34D0A0
34A5D0
302E40
ENDCHAR
STARTCHAR uni042F.ss01
ENCODING -1
SWIDTH 827 0
DWIDTH 7 0
BBX 7 9 0 0
BITMAP
07EC
0D5C
1C1C
1D28
0BF8
00E8
01A8
0768
7D24
ENDCHAR
STARTCHAR uni0402.ss01
ENCODING -1
SWIDTH 843 0
DWIDTH 8 0
BBX 8 14 0 -5
BITMAP
7FF8
1740
0700
0600
0AB8
0B5D
0E0D
0D0D
0C0C
003C
00B8
01A4
02B0
01D0
ENDCHAR
STARTCHAR uni0462.ss01
ENCODING -1
SWIDTH 721 0
DWIDTH 6 0
BBX 7 9 0 0
BITMAP
1C00
7F00
2800
2FE0
B974
3434
3434
29A0
1F80
ENDCHAR
STARTCHAR uni046A.ss01
ENCODING -1
SWIDTH 1196 0
DWIDTH 11 0
BBX 11 9 0 0
BITMAP
2FFFF8
0700D0
0301C0
024740
01FD00
07BB00
0D7340
1C62D0
B460B4
ENDCHAR
STARTCHAR uni0472.ss01
ENCODING -1
SWIDTH 816 0
DWIDTH 7 0
BBX 7 9 0 0
BITMAP
07E0
1D78
381C
701C
7FFC
701C
7028
39B0
1B90
ENDCHAR
STARTCHAR uni0474.ss01
ENCODING -1
SWIDTH 797 0
DWIDTH 7 0
BBX 8 9 1 0
BITMAP
A03E
A075
9070
D0A0
D0D0
91C0
A280
7B00
2D00
ENDCHAR
STARTCHAR uni0492.ss01
ENCODING -1
SWIDTH 634 0
DWIDTH 6 0
BBX 7 9 1 0
BITMAP
3FF8
1D00
1C00
1800
BE00
2800
3400
3400
3000
ENDCHAR
STARTCHAR uni0494.ss01
ENCODING -1
SWIDTH 889 0
DWIDTH 8 0
BBX 6 14 2 -5
BITMAP
FFE0
7400
7000
7000
AB80
B5D0
E0D0
D0D0
C0C0
03C0
0B80
1A40
2B00
1D00
ENDCHAR
STARTCHAR uni0496.ss01
ENCODING -1
SWIDTH 1186 0
DWIDTH 11 0
BBX 11 12 0 -3
BITMAP
2D1878
0728D0
0325C0
027B40
01FD00
077700
0D7340
5C61D0
B460B4
0001F0
000360
0003D0
ENDCHAR
STARTCHAR uni0498.ss01
ENCODING -1
SWIDTH 725 0
DWIDTH 7 0
BBX 7 12 0 -3
BITMAP
0BD0
29A0
2460
0090
0BE0
0074
6070
75E0
2F80
0A80
1A40
1E00
ENDCHAR
STARTCHAR uni049A.ss01
ENCODING -1
SWIDTH 779 0
DWIDTH 7 0
BBX 7 12 0 -3
BITMAP
1C18
1C28
2870
29D0
7F40
3680
35C0
70E0
3074
00B4
0270
02D0
ENDCHAR
STARTCHAR uni049C.ss01
ENCODING -1
SWIDTH 779 0
DWIDTH 7 0
BBX 7 9 0 0
BITMAP
1C18
1C28
2970
2BD0
7F40
3B80
37C0
75E0
3078
ENDCHAR
STARTCHAR uni049E.ss01
ENCODING -1
SWIDTH 779 0
DWIDTH 7 0
BBX 7 9 0 0
BITMAP
1C18
1C28
3F70
29D0
7F40
3680
35C0
70E0
3078
ENDCHAR
STARTCHAR uni04A0.ss01
ENCODING -1
SWIDTH 964 0
DWIDTH 9 0
BBX 8 9 1 0
BITMAP
FF09
0A0D
0D28
0D70
2F80
1DD0
1CA0
2874
182D
ENDCHAR
STARTCHAR uni04A2.ss01
ENCODING -1
SWIDTH 846 0
DWIDTH 8 0
BBX 8 12 0 -3
BITMAP
0C0C
1C1C
1C1C
281C
7FFD
3828
3434
3438
301D
007C
00DC
00F4
ENDCHAR
STARTCHAR uni04A4.ss01
ENCODING -1
SWIDTH 1026 0
DWIDTH 9 0
BBX 10 9 0 0
BITMAP
1C0FE0
1C1D00
1C1C00
281C00
7FFD00
382800
343400
343400
303000
ENDCHAR
STARTCHAR uni0524.ss01
ENCODING -1
SWIDTH 892 0
DWIDTH 8 0
BBX 7 12 1 -3
BITMAP
FFFC
7070
7060
A0A0
A090
90D0
D0D0
D0E0
C070
01F0
0360
03D0
ENDCHAR
STARTCHAR uni04A8.ss01
ENCODING -1
SWIDTH 997 0
DWIDTH 9 0
BBX 10 9 0 0
BITMAP
074000
1D2E00
34A680
70D1C0
71C1C0
71C180
70D340
29BE60
0BEF90
ENDCHAR
STARTCHAR uni04AA.ss01
ENCODING -1
SWIDTH 704 0
DWIDTH 6 0
BBX 7 14 0 -5
BITMAP
06E0
1D74
3434
7010
7000
7000
7000
3974
1BF0
0070
01A0
0260
0690
0380
ENDCHAR
STARTCHAR uni04AC.ss01
ENCODING -1
SWIDTH 697 0
DWIDTH 6 0
BBX 7 12 1 -3
BITMAP
7FF4
1700
0A00
0A00
0D00
0D00
0D00
1D00
1E00
2A00
6900
7C00
ENDCHAR
STARTCHAR uni04AE.ss01
ENCODING -1
SWIDTH 677 0
DWIDTH 6 0
BBX 6 9 1 0
BITMAP
90A0
71D0
3680
2B00
1E00
0C00
0C00
1C00
0C00
ENDCHAR
STARTCHAR uni04B0.ss01
ENCODING -1
SWIDTH 677 0
DWIDTH 6 0
BBX 6 9 1 0
BITMAP
90A0
71C0
3680
2F00
1D00
7F00
1C00
1C00
0C00
ENDCHAR
STARTCHAR uni04B2.ss01
ENCODING -1
SWIDTH 677 0
DWIDTH 6 0
BBX 8 12 -1 -3
BITMAP
090A
071C
0374
02E0
02C0
07D0
0D70
2838
702D
006C
00DC
00F4
ENDCHAR
STARTCHAR uni04B4.ss01
ENCODING -1
SWIDTH 965 0
DWIDTH 9 0
BBX 9 12 0 -3
BITMAP
7FF300
174300
070700
070700
0A0A00
0A0E00
092E00
0A6A40
078740
001F40
003700
002E00
ENDCHAR
STARTCHAR uni04B6.ss01
ENCODING -1
SWIDTH 804 0
DWIDTH 7 0
BBX 6 12 1 -3
BITMAP
6060
A0A0
A0D0
D1D0
E6D0
BEC0
10C0
00F0
00B0
02A0
06A0
07C0
ENDCHAR
STARTCHAR uni04B8.ss01
ENCODING -1
SWIDTH 773 0
DWIDTH 7 0
BBX 6 9 1 0
BITMAP
6060
A0A0
A4D0
D9D0
EFD0
7DC0
18C0
05C0
0180
ENDCHAR
STARTCHAR uni04BA.ss01
ENCODING -1
SWIDTH 744 0
DWIDTH 7 0
BBX 7 9 0 0
BITMAP
1800
1C00
2800
2800
2AE0
3D70
3434
7070
7030
ENDCHAR
STARTCHAR uni0526.ss01
ENCODING -1
SWIDTH 818 0
DWIDTH 7 0
BBX 7 12 0 -3
BITMAP
0C00
1C00
2800
2800
2AE0
3D74
3430
7078
703C
006C
00D8
01F4
ENDCHAR
STARTCHAR uni0528.ss01
ENCODING -1
SWIDTH 846 0
DWIDTH 8 0
BBX 10 12 -2 -3
BITMAP
00C0C0
01C1C0
01C1C0
0281C0
07FFD0
038280
034340
034340
070300
060000
5A0000
7C0000
ENDCHAR
STARTCHAR uni052E.ss01
ENCODING -1
SWIDTH 706 0
DWIDTH 6 0
BBX 8 12 -1 -3
BITMAP
0070
00B0
00F0
01F0
02B0
0370
0670
1D34
782D
007C
00DC
00F4
ENDCHAR
STARTCHAR uni04BC.ss01
ENCODING -1
SWIDTH 824 0
DWIDTH 7 0
BBX 8 9 0 0
BITMAP
01F8
075D
0A09
5D0D
7FFC
1D00
1D00
0B54
02F8
ENDCHAR
STARTCHAR uni04BE.ss01
ENCODING -1
SWIDTH 824 0
DWIDTH 7 0
BBX 8 12 0 -3
BITMAP
01F8
075D
0A09
5D0D
7FFC
1D00
1D00
0B54
02F8
0300
0300
02D0
ENDCHAR
STARTCHAR uni04C0.ss01
ENCODING -1
SWIDTH 357 0
DWIDTH 3 0
BBX 3 9 0 0
BITMAP
18
1C
28
28
24
34
34
70
70
ENDCHAR
STARTCHAR uni04C1.ss01
ENCODING -1
SWIDTH 1196 0
DWIDTH 11 0
BBX 11 10 0 0
BITMAP
001200
2D1578
0728D0
0325C0
027B40
01FD00
077700
0D7340
5C62D4
B460B4
ENDCHAR
STARTCHAR uni04C3.ss01
ENCODING -1
SWIDTH 779 0
DWIDTH 7 0
BBX 7 12 0 -3
BITMAP
1C18
1C28
2870
29D0
7F40
3680
35C0
70E0
3074
00B4
0270
02D0
ENDCHAR
STARTCHAR uni04C5.ss01
ENCODING -1
SWIDTH 706 0
DWIDTH 6 0
BBX 8 11 -1 -2
BITMAP
0070
00B0
00F0
01F0
02B0
0370
0670
1D38
782D
0028
0020
ENDCHAR
STARTCHAR uni04C7.ss01
ENCODING -1
SWIDTH 846 0
DWIDTH 8 0
BBX 8 12 0 -3
BITMAP
0C0C
1C1C
1C1C
281C
7FFD
3828
3434
3438
301D
007C
00DC
00F4
ENDCHAR
STARTCHAR uni04C9.ss01
ENCODING -1
SWIDTH 873 0
DWIDTH 8 0
BBX 8 12 0 -3
BITMAP
0C0C
1C1C
1C1C
281C
7FFD
3828
3434
3438
303D
0028
0070
0010
ENDCHAR
STARTCHAR uni04CB.ss01
ENCODING -1
SWIDTH 773 0
DWIDTH 7 0
BBX 6 12 1 -3
BITMAP
6060
A0A0
A0D0
D1D0
E6D0
BDC0
10C0
01C0
0780
1B00
7600
7C00
ENDCHAR
STARTCHAR uni04CD.ss01
ENCODING -1
SWIDTH 967 0
DWIDTH 9 0
BBX 9 11 0 -2
BITMAP
070A00
0B4E00
0B1E00
0F6A00
1E7A00
1AAA00
26DA00
72C740
E18380
000600
000900
ENDCHAR
STARTCHAR uni04D0.ss01
ENCODING -1
SWIDTH 780 0
DWIDTH 7 0
BBX 8 10 0 0
BITMAP
0049
02FD
0A54
2828
3434
7034
7070
70B0
75F0
2E60
ENDCHAR
STARTCHAR uni04D2.ss01
ENCODING -1
SWIDTH 780 0
DWIDTH 7 0
BBX 8 10 0 0
BITMAP
00DC
02FD
0A54
2828
3434
7034
7070
70B0
75F0
2E60
ENDCHAR
STARTCHAR uni04D4.ss01
ENCODING -1
SWIDTH 1057 0
DWIDTH 10 0
BBX 10 9 0 0
BITMAP
02DFE0
0F5C00
282800
343400
703FC0
707400
70B000
75B950
1F5BD0
ENDCHAR
STARTCHAR uni04D6.ss01
ENCODING -1
SWIDTH 720 0
DWIDTH 6 0
BBX 7 10 0 0
BITMAP
0120
0BF0
2D74
3434
2810
1F40
7500
A000
7574
2F90
ENDCHAR
STARTCHAR uni04D8.ss01
ENCODING -1
SWIDTH 792 0
DWIDTH 7 0
BBX 7 9 0 0
BITMAP
0BE0
2974
0028
001C
7FFC
7028
7034
39B0
1B80
ENDCHAR
STARTCHAR uni04DA.ss01
ENCODING -1
SWIDTH 792 0
DWIDTH 7 0
BBX 7 10 0 0
BITMAP
0660
0BE0
2974
0028
001C
7FFC
7028
7034
39B0
1B80
ENDCHAR
STARTCHAR uni04DC.ss01
ENCODING -1
SWIDTH 1196 0
DWIDTH 11 0
BBX 11 10 0 0
BITMAP
006600
2D1878
0728D0
0325C0
027B40
01FD00
077700
0D7340
5C62D4
B460B4
ENDCHAR
STARTCHAR uni04DE.ss01
ENCODING -1
SWIDTH 725 0
DWIDTH 7 0
BBX 6 10 0 0
BITMAP
0660
0BD0
29A0
2460
0090
0BE0
0070
6070
75E0
2F80
ENDCHAR
STARTCHAR uni04E0.ss01
ENCODING -1
SWIDTH 744 0
DWIDTH 7 0
BBX 7 9 0 0
BITMAP
0BE4
2978
2470
00D0
0BE0
0070
6070
75E0
2F80
ENDCHAR
STARTCHAR uni04E2.ss01
ENCODING -1
SWIDTH 800 0
DWIDTH 7 0
BBX 6 10 1 0
BITMAP
0F80
6060
7070
A0A0
A0A0
D0D0
D1D0
D2D0
EAC0
B8C0
ENDCHAR
STARTCHAR uni04E4.ss01
ENCODING -1
SWIDTH 800 0
DWIDTH 7 0
BBX 6 10 1 0
BITMAP
0DC0
6060
7070
A0A0
A0A0
D0D0
D1D0
D2D0
EAC0
B8C0
ENDCHAR
STARTCHAR uni04E6.ss01
ENCODING -1
SWIDTH 816 0
DWIDTH 7 0
BBX 7 10 0 0
BITMAP
0370
07E0
1D78
341C
701C
701C
701C
7028
39B0
1B90
ENDCHAR
STARTCHAR uni04E8.ss01
ENCODING -1
SWIDTH 816 0
DWIDTH 7 0
BBX 7 9 0 0
BITMAP
07E0
1D78
341C
701C
7FFC
701C
7028
3970
1B90
ENDCHAR
STARTCHAR uni04EA.ss01
ENCODING -1
SWIDTH 816 0
DWIDTH 7 0
BBX 7 10 0 0
BITMAP
0370
07E0
1D78
341C
701C
7FFC
701C
7028
3970
1B90
ENDCHAR
STARTCHAR uni04EC.ss01
ENCODING -1
SWIDTH 755 0
DWIDTH 7 0
BBX 7 10 0 0
BITMAP
0660
1BD0
34B0
1034
0028
0FF8
0034
6070
A1E0
2F80
ENDCHAR
STARTCHAR uni04EE.ss01
ENCODING -1
SWIDTH 776 0
DWIDTH 7 0
BBX 6 10 1 0
BITMAP
1F80
6060
A0A0
A0A0
D0D0
E6D0
BDD0
11C0
9680
BE00
ENDCHAR
STARTCHAR uni04F0.ss01
ENCODING -1
SWIDTH 776 0
DWIDTH 7 0
BBX 6 10 1 0
BITMAP
1980
6060
A0A0
A0A0
D0D0
E6D0
BDD0
11C0
9680
BE00
ENDCHAR
STARTCHAR uni04F2.ss01
ENCODING -1
SWIDTH 776 0
DWIDTH 7 0
BBX 6 12 1 0
BITMAP
0440
09C0
0940
6060
A0A0
A0A0
D0D0
E6D0
BDD0
11C0
9680
BE00
ENDCHAR
STARTCHAR uni04F4.ss01
ENCODING -1
SWIDTH 773 0
DWIDTH 7 0
BBX 6 10 1 0
BITMAP
1980
6060
A0A0
A0D0
D1D0
E6D0
BDC0
10C0
01C0
0180
ENDCHAR
STARTCHAR uni04F6.ss01
ENCODING -1
SWIDTH 600 0
DWIDTH 5 0
BBX 8 12 0 -3
BITMAP
0FFE
0740
0700
0600
0A00
0A00
0D00
0E00
0F00
2B00
7600
3C00
ENDCHAR
STARTCHAR uni04F8.ss01
ENCODING -1
SWIDTH 1078 0
DWIDTH 10 0
BBX 10 10 0 0
BITMAP
009900
1C0090
1800D0
2800D0
2FE1C0
B975C0
343580
343680
29A280
1F8240
ENDCHAR
STARTCHAR uni04FA.ss01
ENCODING -1
SWIDTH 634 0
DWIDTH 6 0
BBX 9 13 -1 -4
BITMAP
03FF80
01D000
01C000
018000
07E000
028000
034000
034000
034000
070000
060000
590000
7C0000
ENDCHAR
STARTCHAR uni04FC.ss01
ENCODING -1
SWIDTH 846 0
DWIDTH 8 0
BBX 8 12 0 -3
BITMAP
0C0C
1C1C
1C1C
281C
7FFD
3828
3434
3438
301D
007C
00DC
00F4
ENDCHAR
STARTCHAR uni04FE.ss01
ENCODING -1
SWIDTH 677 0
DWIDTH 6 0
BBX 8 9 -1 0
BITMAP
090A
071D
0374
02E0
0BF4
03D0
0EA0
2834
7024
ENDCHAR
STARTCHAR uni0510.ss01
ENCODING -1
SWIDTH 706 0
DWIDTH 6 0
BBX 6 9 0 0
BITMAP
0BD0
1870
2830
1C00
2F40
7010
B030
74B0
1F80
ENDCHAR
STARTCHAR uni0512.ss01
ENCODING -1
SWIDTH 706 0
DWIDTH 6 0
BBX 8 12 -1 -3
BITMAP
0070
00B0
00F0
01F0
02B0
0370
0670
1D34
782D
007C
00DC
00F4
ENDCHAR
STARTCHAR uni051A.ss01
ENCODING -1
SWIDTH 816 0
DWIDTH 7 0
BBX 7 12 0 -3
BITMAP
07E0
1D68
341C
701C
701C
701C
7028
2DB0
0B80
01C0
00E0
0050
ENDCHAR
STARTCHAR uni051C.ss01
ENCODING -1
SWIDTH 1236 0
DWIDTH 11 0
BBX 11 9 1 0
BITMAP
A06034
A0A070
90A070
D0E0A0
D1E0D0
D2E1C0
A36280
BA7B00
382D00
ENDCHAR
STARTCHAR uni048C.ss01
ENCODING -1
SWIDTH 721 0
DWIDTH 6 0
BBX 7 9 0 0
BITMAP
1C00
7F00
2800
2FE0
B974
3434
3434
29A0
1F80
ENDCHAR
STARTCHAR uni048E.ss01
ENCODING -1
SWIDTH 662 0
DWIDTH 6 0
BBX 7 9 0 0
BITMAP
2F80
2DA0
1C70
19F0
29F4
7F80
3400
3400
3000
ENDCHAR
STARTCHAR uni0430.fina
ENCODING -1
SWIDTH 458 0
DWIDTH 4 0
BBX 4 5 0 0
BITMAP
1E
76
A6
AA
7A
ENDCHAR
STARTCHAR uni0431.fina
ENCODING -1
SWIDTH 473 0
DWIDTH 4 0
BBX 4 10 0 0
BITMAP
01
1F
34
28
09
2E
67
A7
AA
7C
ENDCHAR
STARTCHAR uni0432.fina
ENCODING -1
SWIDTH 475 0
DWIDTH 4 0
BBX 4 10 0 0
BITMAP
0E
2A
36
35
68
7D
77
63
67
2D
ENDCHAR
STARTCHAR uni0433.fina
ENCODING -1
SWIDTH 382 0
DWIDTH 3 0
BBX 4 5 0 0
BITMAP
7C
5D
24
A5
78
ENDCHAR
STARTCHAR uni0453.fina
ENCODING -1
SWIDTH 382 0
DWIDTH 3 0
BBX 4 9 0 0
BITMAP
05
0D
14
00
7C
5D
24
A5
78
ENDCHAR
STARTCHAR uni0491.fina
ENCODING -1
SWIDTH 394 0
DWIDTH 4 0
BBX 4 7 0 0
BITMAP
01
06
3E
60
A0
A0
50
ENDCHAR
STARTCHAR uni0434.fina
ENCODING -1
SWIDTH 449 0
DWIDTH 4 0
BBX 4 10 0 -5
BITMAP
1D
77
A6
AA
7D
1D
2C
9C
E8
A0
ENDCHAR
STARTCHAR uni0435.fina
ENCODING -1
SWIDTH 411 0
DWIDTH 4 0
BBX 4 5 0 0
BITMAP
2D
69
AC
B6
3D
ENDCHAR
STARTCHAR uni0450.fina
ENCODING -1
SWIDTH 411 0
DWIDTH 4 0
BBX 4 10 0 0
BITMAP
10
30
24
08
00
2D
69
AC
B6
3D
ENDCHAR
STARTCHAR uni0451.fina
ENCODING -1
SWIDTH 411 0
DWIDTH 4 0
BBX 4 7 0 0
BITMAP
37
00
2D
69
AC
B6
3D
ENDCHAR
STARTCHAR uni0436.fina
ENCODING -1
SWIDTH 783 0
DWIDTH 7 0
BBX 7 5 0 0
BITMAP
3A78
2F98
4FC0
9BD8
B678
ENDCHAR
STARTCHAR uni0437.fina
ENCODING -1
SWIDTH 395 0
DWIDTH 4 0
BBX 5 10 -1 -5
BITMAP
0B40
0580
0240
1D00
0D00
0B00
2B00
2600
6D00
7800
ENDCHAR
STARTCHAR uni0438.fina
ENCODING -1
SWIDTH 460 0
DWIDTH 4 0
BBX 4 5 0 0
BITMAP
22
67
AA
AE
7A
ENDCHAR
STARTCHAR uni0439.fina
ENCODING -1
SWIDTH 460 0
DWIDTH 4 0
BBX 5 8 0 0
BITMAP
2240
2E00
0000
2200
6700
AA00
AE00
7A00
ENDCHAR
STARTCHAR uni045D.fina
ENCODING -1
SWIDTH 460 0
DWIDTH 4 0
BBX 4 10 0 0
BITMAP
10
34
18
08
00
22
67
AA
AE
7A
ENDCHAR
STARTCHAR uni048B.fina
ENCODING -1
SWIDTH 460 0
DWIDTH 4 0
BBX 5 10 0 -2
BITMAP
3240
2E00
0000
2200
6700
AA00
AE00
7B00
0900
1800
ENDCHAR
STARTCHAR uni043A.fina
ENCODING -1
SWIDTH 541 0
DWIDTH 5 0
BBX 5 5 0 0
BITMAP
2740
6E40
B800
BD80
6B40
ENDCHAR
STARTCHAR uni045C.fina
ENCODING -1
SWIDTH 541 0
DWIDTH 5 0
BBX 5 9 0 0
BITMAP
0200
0600
0900
0000
2740
6E40
B800
BD80
6B40
ENDCHAR
STARTCHAR uni043B.fina
ENCODING -1
SWIDTH 463 0
DWIDTH 4 0
BBX 4 5 0 0
BITMAP
0D
1D
2D
69
D7
ENDCHAR
STARTCHAR uni043C.fina
ENCODING -1
SWIDTH 669 0
DWIDTH 6 0
BBX 6 5 0 0
BITMAP
18D0
2ED0
3F90
6A90
D960
ENDCHAR
STARTCHAR uni043D.fina
ENCODING -1
SWIDTH 462 0
DWIDTH 4 0
BBX 4 5 0 0
BITMAP
23
63
BE
AA
56
ENDCHAR
STARTCHAR uni043E.fina
ENCODING -1
SWIDTH 453 0
DWIDTH 4 0
BBX 4 5 0 0
BITMAP
2D
66
97
AA
3C
ENDCHAR
STARTCHAR uni043F.fina
ENCODING -1
SWIDTH 484 0
DWIDTH 4 0
BBX 4 5 0 0
BITMAP
27
6F
B7
B7
66
ENDCHAR
STARTCHAR uni0440.fina
ENCODING -1
SWIDTH 457 0
DWIDTH 4 0
BBX 5 10 -1 -5
BITMAP
1B80
1DC0
19C0
2A80
3E00
A800
A400
A400
A000
A000
ENDCHAR
STARTCHAR uni0441.fina
ENCODING -1
SWIDTH 404 0
DWIDTH 4 0
BBX 4 5 0 0
BITMAP
2C
69
90
A6
3D
ENDCHAR
STARTCHAR uni0442.fina
ENCODING -1
SWIDTH 732 0
DWIDTH 7 0
BBX 7 5 0 0
BITMAP
2774
6FB4
B774
B730
6230
ENDCHAR
STARTCHAR uni0443.fina
ENCODING -1
SWIDTH 449 0
DWIDTH 4 0
BBX 4 10 0 -5
BITMAP
23
66
AA
AE
79
1D
6C
98
E4
A0
ENDCHAR
STARTCHAR uni045E.fina
ENCODING -1
SWIDTH 449 0
DWIDTH 4 0
BBX 5 13 0 -5
BITMAP
2240
2E00
0000
2300
6600
AA00
AE00
7900
1D00
6C00
9800
E400
A000
ENDCHAR
STARTCHAR uni0444.fina
ENCODING -1
SWIDTH 721 0
DWIDTH 6 0
BBX 6 13 0 -4
BITMAP
0140
0240
0240
0300
1FA0
7770
A730
AAA0
7B80
0600
0900
0900
0400
ENDCHAR
STARTCHAR uni0445.fina
ENCODING -1
SWIDTH 580 0
DWIDTH 5 0
BBX 6 5 0 0
BITMAP
3A80
2E80
4D00
9E90
BB80
ENDCHAR
STARTCHAR uni0447.fina
ENCODING -1
SWIDTH 422 0
DWIDTH 4 0
BBX 4 6 0 0
BITMAP
10
7D
18
30
66
3D
ENDCHAR
STARTCHAR uni0446.fina
ENCODING -1
SWIDTH 468 0
DWIDTH 4 0
BBX 4 8 0 -3
BITMAP
22
66
AA
AE
77
0A
2A
2C
ENDCHAR
STARTCHAR uni0448.fina
ENCODING -1
SWIDTH 693 0
DWIDTH 6 0
BBX 6 5 0 0
BITMAP
2230
6670
AAA0
AFE0
77A0
ENDCHAR
STARTCHAR uni0449.fina
ENCODING -1
SWIDTH 699 0
DWIDTH 6 0
BBX 6 8 0 -3
BITMAP
2230
6660
AAA0
AFE0
7770
00B0
02A0
02C0
ENDCHAR
STARTCHAR uni045F.fina
ENCODING -1
SWIDTH 462 0
DWIDTH 4 0
BBX 4 6 0 -1
BITMAP
22
67
AA
AE
7A
20
ENDCHAR
STARTCHAR uni044C.fina
ENCODING -1
SWIDTH 517 0
DWIDTH 5 0
BBX 4 5 0 0
BITMAP
30
7A
B7
67
2D
ENDCHAR
STARTCHAR uni044A.fina
ENCODING -1
SWIDTH 543 0
DWIDTH 5 0
BBX 5 5 0 0
BITMAP
7800
3A00
7740
7740
2E00
ENDCHAR
STARTCHAR uni044B.fina
ENCODING -1
SWIDTH 683 0
DWIDTH 6 0
BBX 6 5 0 0
BITMAP
3030
7A70
B760
6760
2D60
ENDCHAR
STARTCHAR uni0459.fina
ENCODING -1
SWIDTH 709 0
DWIDTH 6 0
BBX 6 5 0 0
BITMAP
0D00
1ED0
2A70
6A60
D7C0
ENDCHAR
STARTCHAR uni045A.fina
ENCODING -1
SWIDTH 751 0
DWIDTH 7 0
BBX 7 5 0 0
BITMAP
2300
67A0
BF74
A770
52D0
ENDCHAR
STARTCHAR uni0455.fina
ENCODING -1
SWIDTH 394 0
DWIDTH 4 0
BBX 4 5 0 0
BITMAP
18
28
6D
9D
2C
ENDCHAR
STARTCHAR uni0454.fina
ENCODING -1
SWIDTH 426 0
DWIDTH 4 0
BBX 4 5 0 0
BITMAP
2D
65
B8
A6
2D
ENDCHAR
STARTCHAR uni044D.fina
ENCODING -1
SWIDTH 476 0
DWIDTH 4 0
BBX 4 5 0 0
BITMAP
3D
17
1F
9B
7D
ENDCHAR
STARTCHAR uni0456.fina
ENCODING -1
SWIDTH 222 0
DWIDTH 2 0
BBX 3 7 0 0
BITMAP
34
00
30
60
A0
A0
90
ENDCHAR
STARTCHAR uni0457.fina
ENCODING -1
SWIDTH 222 0
DWIDTH 2 0
BBX 3 7 0 0
BITMAP
9C
00
30
60
A0
A0
90
ENDCHAR
STARTCHAR uni0458.fina
ENCODING -1
SWIDTH 229 0
DWIDTH 2 0
BBX 4 12 -2 -5
BITMAP
07
00
06
06
06
0A
09
1D
2C
98
E4
A0
ENDCHAR
STARTCHAR uni045B.fina
ENCODING -1
SWIDTH 490 0
DWIDTH 4 0
BBX 4 9 0 0
BITMAP
18
28
7F
34
77
6B
77
77
66
ENDCHAR
STARTCHAR uni044E.fina
ENCODING -1
SWIDTH 676 0
DWIDTH 6 0
BBX 6 5 0 0
BITMAP
22D0
6660
BD30
AA60
53C0
ENDCHAR
STARTCHAR uni044F.fina
ENCODING -1
SWIDTH 496 0
DWIDTH 4 0
BBX 4 5 0 0
BITMAP
2F
77
3E
1A
E6
ENDCHAR
STARTCHAR uni0452.fina
ENCODING -1
SWIDTH 493 0
DWIDTH 4 0
BBX 4 14 0 -5
BITMAP
18
28
7F
34
77
6B
77
77
66
0A
29
5C
98
74
ENDCHAR
STARTCHAR uni0463.fina
ENCODING -1
SWIDTH 517 0
DWIDTH 5 0
BBX 4 7 0 0
BITMAP
24
30
BC
7E
B7
67
2D
ENDCHAR
STARTCHAR uni046B.fina
ENCODING -1
SWIDTH 878 0
DWIDTH 8 0
BBX 8 9 0 0
BITMAP
0060
00A0
00E0
01A0
0FBC
0774
47A0
9FB6
B66D
ENDCHAR
STARTCHAR uni0473.fina
ENCODING -1
SWIDTH 453 0
DWIDTH 4 0
BBX 4 5 0 0
BITMAP
2D
66
BF
AA
3C
ENDCHAR
STARTCHAR uni0475.fina
ENCODING -1
SWIDTH 420 0
DWIDTH 4 0
BBX 5 5 0 0
BITMAP
5380
A600
A900
7C00
7400
ENDCHAR
STARTCHAR uni0493.fina
ENCODING -1
SWIDTH 407 0
DWIDTH 4 0
BBX 4 5 0 0
BITMAP
3D
19
7C
7A
7D
ENDCHAR
STARTCHAR uni0495.fina
ENCODING -1
SWIDTH 442 0
DWIDTH 4 0
BBX 4 8 0 -3
BITMAP
7C
5D
24
A4
7D
2D
6C
74
ENDCHAR
STARTCHAR uni0497.fina
ENCODING -1
SWIDTH 784 0
DWIDTH 7 0
BBX 7 8 0 -3
BITMAP
3A78
2F98
4FC0
9BD0
B678
0078
00A4
00E0
ENDCHAR
STARTCHAR uni0499.fina
ENCODING -1
SWIDTH 405 0
DWIDTH 4 0
BBX 4 9 0 -4
BITMAP
2D
6A
19
1D
9A
3C
AC
D8
F4
ENDCHAR
STARTCHAR uni049B.fina
ENCODING -1
SWIDTH 533 0
DWIDTH 5 0
BBX 5 8 0 -3
BITMAP
2740
6E40
B800
BC00
6B40
0B00
1A00
1D00
ENDCHAR
STARTCHAR uni049D.fina
ENCODING -1
SWIDTH 567 0
DWIDTH 5 0
BBX 6 5 0 0
BITMAP
2740
7980
BC00
BD90
5780
ENDCHAR
STARTCHAR uni049F.fina
ENCODING -1
SWIDTH 541 0
DWIDTH 5 0
BBX 5 5 0 0
BITMAP
BB40
7E40
7800
BD80
6B40
ENDCHAR
STARTCHAR uni04A1.fina
ENCODING -1
SWIDTH 639 0
DWIDTH 6 0
BBX 6 5 0 0
BITMAP
BAC0
2A90
2E40
2E60
26D0
ENDCHAR
STARTCHAR uni04A3.fina
ENCODING -1
SWIDTH 482 0
DWIDTH 4 0
BBX 4 8 0 -3
BITMAP
23
63
BE
A6
53
0B
2A
2D
ENDCHAR
STARTCHAR uni04A5.fina
ENCODING -1
SWIDTH 462 0
DWIDTH 4 0
BBX 5 6 0 0
BITMAP
0040
2340
6300
BE00
AA00
5600
ENDCHAR
STARTCHAR uni0525.fina
ENCODING -1
SWIDTH 503 0
DWIDTH 5 0
BBX 5 8 0 -3
BITMAP
2700
6F00
B700
B700
6340
0B00
1B00
1D00
ENDCHAR
STARTCHAR uni04A9.fina
ENCODING -1
SWIDTH 644 0
DWIDTH 6 0
BBX 6 5 0 0
BITMAP
2800
6680
99C0
AAA0
3FD0
ENDCHAR
STARTCHAR uni04AB.fina
ENCODING -1
SWIDTH 404 0
DWIDTH 4 0
BBX 4 8 0 -3
BITMAP
2C
69
90
A4
7D
2C
6C
74
ENDCHAR
STARTCHAR uni04AD.fina
ENCODING -1
SWIDTH 751 0
DWIDTH 7 0
BBX 7 8 0 -3
BITMAP
2774
6FB4
B770
B734
6224
0074
01A0
01E0
ENDCHAR
STARTCHAR uni04AF.fina
ENCODING -1
SWIDTH 450 0
DWIDTH 4 0
BBX 5 9 0 -4
BITMAP
5240
6300
6600
3C00
3800
3000
3400
3400
1000
ENDCHAR
STARTCHAR uni04B1.fina
ENCODING -1
SWIDTH 450 0
DWIDTH 4 0
BBX 5 9 0 -4
BITMAP
5240
6300
6600
7900
3800
BC00
3400
3400
1000
ENDCHAR
STARTCHAR uni04B3.fina
ENCODING -1
SWIDTH 580 0
DWIDTH 5 0
BBX 5 8 0 -3
BITMAP
3A80
2E80
4D00
9E40
BB80
0280
0A40
0F00
ENDCHAR
STARTCHAR uni04B5.fina
ENCODING -1
SWIDTH 468 0
DWIDTH 4 0
BBX 4 10 0 -3
BITMAP
2F
00
22
66
AA
AE
77
0A
2A
2C
ENDCHAR
STARTCHAR uni04B7.fina
ENCODING -1
SWIDTH 461 0
DWIDTH 4 0
BBX 4 9 0 -3
BITMAP
10
7D
18
30
65
7E
1D
29
38
ENDCHAR
STARTCHAR uni04B9.fina
ENCODING -1
SWIDTH 473 0
DWIDTH 4 0
BBX 4 6 1 0
BITMAP
50
FC
74
90
D9
B8
ENDCHAR
STARTCHAR uni0527.fina
ENCODING -1
SWIDTH 519 0
DWIDTH 5 0
BBX 5 13 0 -3
BITMAP
0A00
1B00
3600
3500
7800
7B00
6B00
7700
7700
6340
0B40
1B00
1D00
ENDCHAR
STARTCHAR uni04BB.fina
ENCODING -1
SWIDTH 490 0
DWIDTH 4 0
BBX 4 10 0 0
BITMAP
0A
1B
36
35
78
7B
6B
77
77
66
ENDCHAR
STARTCHAR uni0529.fina
ENCODING -1
SWIDTH 462 0
DWIDTH 4 0
BBX 5 8 -1 -3
BITMAP
08C0
18C0
2F80
2A80
2980
1800
A800
B400
ENDCHAR
STARTCHAR uni052F.fina
ENCODING -1
SWIDTH 530 0
DWIDTH 5 0
BBX 5 8 0 -3
BITMAP
0D00
1D00
3D00
6900
DB40
0740
1B00
1D00
ENDCHAR
STARTCHAR uni04BD.fina
ENCODING -1
SWIDTH 501 0
DWIDTH 5 0
BBX 5 5 0 0
BITMAP
0B00
2A40
BA00
7980
1F40
ENDCHAR
STARTCHAR uni04BF.fina
ENCODING -1
SWIDTH 501 0
DWIDTH 5 0
BBX 5 8 0 -3
BITMAP
0B00
2A40
BB00
7940
1F40
0D00
0C00
0B00
ENDCHAR
STARTCHAR uni04CF.fina
ENCODING -1
SWIDTH 222 0
DWIDTH 2 0
BBX 3 9 0 0
BITMAP
14
24
34
30
70
60
60
A0
90
ENDCHAR
STARTCHAR uni04C2.fina
ENCODING -1
SWIDTH 783 0
DWIDTH 7 0
BBX 7 8 0 0
BITMAP
0890
0B80
0000
3A78
2F98
4FC0
9BD8
B678
ENDCHAR
STARTCHAR uni04C4.fina
ENCODING -1
SWIDTH 533 0
DWIDTH 5 0
BBX 5 8 0 -3
BITMAP
2740
6E40
B800
BC00
6B40
0B00
1A00
1D00
ENDCHAR
STARTCHAR uni04C6.fina
ENCODING -1
SWIDTH 463 0
DWIDTH 4 0
BBX 4 7 0 -2
BITMAP
0D
1D
3D
6A
D7
09
08
ENDCHAR
STARTCHAR uni04C8.fina
ENCODING -1
SWIDTH 482 0
DWIDTH 4 0
BBX 4 8 0 -3
BITMAP
23
63
BE
A6
53
0B
2A
2D
ENDCHAR
STARTCHAR uni04CA.fina
ENCODING -1
SWIDTH 462 0
DWIDTH 4 0
BBX 4 7 0 -2
BITMAP
23
63
BE
AA
57
09
08
ENDCHAR
STARTCHAR uni04CC.fina
ENCODING -1
SWIDTH 422 0
DWIDTH 4 0
BBX 4 7 0 -1
BITMAP
10
7D
18
30
66
3D
08
ENDCHAR
STARTCHAR uni04CE.fina
ENCODING -1
SWIDTH 669 0
DWIDTH 6 0
BBX 6 7 0 -2
BITMAP
18D0
2ED0
3F90
6A90
D9B0
0090
0080
ENDCHAR
STARTCHAR uni04D1.fina
ENCODING -1
SWIDTH 458 0
DWIDTH 4 0
BBX 5 8 0 0
BITMAP
2240
2E00
0000
1E00
7600
A600
AA00
7A00
ENDCHAR
STARTCHAR uni04D3.fina
ENCODING -1
SWIDTH 458 0
DWIDTH 4 0
BBX 5 7 0 0
BITMAP
2640
0000
1E00
7600
A600
AA00
7A00
ENDCHAR
STARTCHAR uni04D5.fina
ENCODING -1
SWIDTH 671 0
DWIDTH 6 0
BBX 7 5 0 0
BITMAP
1EE0
7760
A790
AB64
7AE0
ENDCHAR
STARTCHAR uni04D7.fina
ENCODING -1
SWIDTH 411 0
DWIDTH 4 0
BBX 4 8 0 0
BITMAP
62
3D
00
2D
69
AC
B6
3D
ENDCHAR
STARTCHAR uni04D9.fina
ENCODING -1
SWIDTH 458 0
DWIDTH 4 0
BBX 4 5 0 0
BITMAP
7D
1A
7F
AA
7D
ENDCHAR
STARTCHAR uni04DB.fina
ENCODING -1
SWIDTH 458 0
DWIDTH 4 0
BBX 4 7 0 0
BITMAP
37
00
7D
1A
7F
AA
7D
ENDCHAR
STARTCHAR uni04DD.fina
ENCODING -1
SWIDTH 783 0
DWIDTH 7 0
BBX 7 7 0 0
BITMAP
0A90
0000
3A78
2F98
4FC0
9BD8
B678
ENDCHAR
STARTCHAR uni04DF.fina
ENCODING -1
SWIDTH 395 0
DWIDTH 4 0
BBX 5 12 -1 -5
BITMAP
0DC0
0000
0B40
0580
0240
1D00
0D00
0B00
2B00
2600
6D00
7800
ENDCHAR
STARTCHAR uni04E1.fina
ENCODING -1
SWIDTH 456 0
DWIDTH 4 0
BBX 5 10 -1 -5
BITMAP
1FC0
0780
0D00
1800
0A00
0B00
2B00
2600
6D00
7800
ENDCHAR
STARTCHAR uni04E3.fina
ENCODING -1
SWIDTH 460 0
DWIDTH 4 0
BBX 4 7 0 0
BITMAP
2F
00
22
67
AA
AE
7A
ENDCHAR
STARTCHAR uni04E5.fina
ENCODING -1
SWIDTH 460 0
DWIDTH 4 0
BBX 5 7 0 0
BITMAP
2640
0000
2200
6700
AA00
AE00
7A00
ENDCHAR
STARTCHAR uni04E7.fina
ENCODING -1
SWIDTH 453 0
DWIDTH 4 0
BBX 4 7 0 0
BITMAP
37
00
2D
66
97
AA
3C
ENDCHAR
STARTCHAR uni04E9.fina
ENCODING -1
SWIDTH 453 0
DWIDTH 4 0
BBX 4 5 0 0
BITMAP
2D
6A
BF
AA
3C
ENDCHAR
STARTCHAR uni04EB.fina
ENCODING -1
SWIDTH 453 0
DWIDTH 4 0
BBX 4 7 0 0
BITMAP
37
00
2D
6A
BF
AA
3C
ENDCHAR
STARTCHAR uni04ED.fina
ENCODING -1
SWIDTH 466 0
DWIDTH 4 0
BBX 4 7 0 0
BITMAP
27
00
3D
17
1F
9B
7D
ENDCHAR
STARTCHAR uni04EF.fina
ENCODING -1
SWIDTH 449 0
DWIDTH 4 0
BBX 4 12 0 -5
BITMAP
2F
00
23
66
AA
AE
79
1D
6C
98
E4
A0
ENDCHAR
STARTCHAR uni04F1.fina
ENCODING -1
SWIDTH 449 0
DWIDTH 4 0
BBX 5 12 0 -5
BITMAP
2640
0000
2300
6600
AA00
AE00
7900
1D00
6C00
9800
E400
A000
ENDCHAR
STARTCHAR uni04F3.fina
ENCODING -1
SWIDTH 449 0
DWIDTH 4 0
BBX 5 15 0 -5
BITMAP
0440
0E80
1A40
1600
0000
2300
6600
AA00
AE00
7900
1D00
6C00
9800
E400
A000
ENDCHAR
STARTCHAR uni04F5.fina
ENCODING -1
SWIDTH 422 0
DWIDTH 4 0
BBX 4 7 0 0
BITMAP
37
10
7D
18
30
66
3D
ENDCHAR
STARTCHAR uni04F7.fina
ENCODING -1
SWIDTH 442 0
DWIDTH 4 0
BBX 4 8 0 -3
BITMAP
7C
5D
24
A4
7D
2D
6C
74
ENDCHAR
STARTCHAR uni04F9.fina
ENCODING -1
SWIDTH 683 0
DWIDTH 6 0
BBX 6 7 0 0
BITMAP
0DC0
0000
3030
7A70
B760
6760
2D60
ENDCHAR
STARTCHAR uni04FB.fina
ENCODING -1
SWIDTH 442 0
DWIDTH 4 0
BBX 4 8 0 -3
BITMAP
7C
5D
B8
A4
7D
2D
6C
74
ENDCHAR
STARTCHAR uni04FD.fina
ENCODING -1
SWIDTH 580 0
DWIDTH 5 0
BBX 5 8 0 -3
BITMAP
3A80
2E80
4D00
9E40
BB80
0280
0A40
0F00
ENDCHAR
STARTCHAR uni04FF.fina
ENCODING -1
SWIDTH 580 0
DWIDTH 5 0
BBX 6 5 0 0
BITMAP
3A80
2E80
1F00
AE50
BB80
ENDCHAR
STARTCHAR uni0511.fina
ENCODING -1
SWIDTH 387 0
DWIDTH 3 0
BBX 4 5 0 0
BITMAP
2C
64
74
A6
78
ENDCHAR
STARTCHAR uni0513.fina
ENCODING -1
SWIDTH 530 0
DWIDTH 5 0
BBX 5 8 0 -3
BITMAP
0D00
1D00
3D00
6900
DB40
0740
1B00
1D00
ENDCHAR
STARTCHAR uni051B.fina
ENCODING -1
SWIDTH 449 0
DWIDTH 4 0
BBX 4 10 0 -4
BITMAP
01
1F
77
A6
A9
7D
0D
0C
0C
04
ENDCHAR
STARTCHAR uni051D.fina
ENCODING -1
SWIDTH 666 0
DWIDTH 6 0
BBX 7 5 0 0
BITMAP
5224
AB30
AFA0
7BC0
7740
ENDCHAR
STARTCHAR uni048D.fina
ENCODING -1
SWIDTH 517 0
DWIDTH 5 0
BBX 4 7 0 0
BITMAP
24
30
BC
7E
B7
67
2D
ENDCHAR
STARTCHAR uni048F.fina
ENCODING -1
SWIDTH 457 0
DWIDTH 4 0
BBX 5 10 -1 -5
BITMAP
1B80
1DC0
19C0
2BC0
7E00
A800
A400
A400
A000
A000
ENDCHAR
STARTCHAR uni030C.alt
ENCODING -1
SWIDTH 0 0
DWIDTH 0 0
BBX 2 2 -3 2
BITMAP
90
80
ENDCHAR
STARTCHAR uni0308.case
ENCODING -1
SWIDTH 0 0
DWIDTH 0 0
BBX 3 1 -4 6
BITMAP
DC
ENDCHAR
STARTCHAR uni0307.case
ENCODING -1
SWIDTH 0 0
DWIDTH 0 0
BBX 2 1 -4 6
BITMAP
70
ENDCHAR
STARTCHAR gravecomb.case
ENCODING -1
SWIDTH 0 0
DWIDTH 0 0
BBX 3 3 -5 6
BITMAP
40
E0
24
ENDCHAR
STARTCHAR acutecomb.case
ENCODING -1
SWIDTH 0 0
DWIDTH 0 0
BBX 3 3 -3 6
BITMAP
14
74
90
ENDCHAR
STARTCHAR uni030B.case
ENCODING -1
SWIDTH 0 0
DWIDTH 0 0
BBX 3 3 -4 6
BITMAP
14
9C
98
ENDCHAR
STARTCHAR uni0302.case
ENCODING -1
SWIDTH 0 0
DWIDTH 0 0
BBX 3 3 -4 6
BITMAP
74
A8
88
ENDCHAR
STARTCHAR uni030C.case
ENCODING -1
SWIDTH 0 0
DWIDTH 0 0
BBX 3 3 -4 6
BITMAP
44
98
70
ENDCHAR
STARTCHAR uni0306.case
ENCODING -1
SWIDTH 0 0
DWIDTH 0 0
BBX 5 2 -5 6
BITMAP
6240
3E00
ENDCHAR
STARTCHAR uni030A.case
ENCODING -1
SWIDTH 0 0
DWIDTH 0 0
BBX 3 3 -4 6
BITMAP
74
98
B4
ENDCHAR
STARTCHAR tildecomb.case
ENCODING -1
SWIDTH 0 0
DWIDTH 0 0
BBX 5 2 -5 6
BITMAP
3540
5A00
ENDCHAR
STARTCHAR uni0304.case
ENCODING -1
SWIDTH 0 0
DWIDTH 0 0
BBX 3 1 -4 6
BITMAP
F8
ENDCHAR
STARTCHAR hookabovecomb.case
ENCODING -1
SWIDTH 0 0
DWIDTH 0 0
BBX 3 3 -4 6
BITMAP
74
18
34
ENDCHAR
STARTCHAR uni030F.case
ENCODING -1
SWIDTH 0 0
DWIDTH 0 0
BBX 4 3 -5 6
BITMAP
54
69
25
ENDCHAR
STARTCHAR uni0311.case
ENCODING -1
SWIDTH 0 0
DWIDTH 0 0
BBX 5 2 -5 6
BITMAP
2E00
6740
ENDCHAR
STARTCHAR uni0312.case
ENCODING -1
SWIDTH 0 0
DWIDTH 0 0
BBX 1 2 -3 6
BITMAP
C0
80
ENDCHAR
STARTCHAR uni031B.case
ENCODING -1
SWIDTH 0 0
DWIDTH 0 0
BBX 2 3 -3 4
BITMAP
20
70
90
ENDCHAR
STARTCHAR dotbelowcomb.case
ENCODING -1
SWIDTH 0 0
DWIDTH 0 0
BBX 2 1 -4 -2
BITMAP
D0
ENDCHAR
STARTCHAR uni0324.case
ENCODING -1
SWIDTH 0 0
DWIDTH 0 0
BBX 3 1 -5 -2
BITMAP
DC
ENDCHAR
STARTCHAR uni0326.case
ENCODING -1
SWIDTH 0 0
DWIDTH 0 0
BBX 1 2 -4 -3
BITMAP
C0
80
ENDCHAR
STARTCHAR uni0327.case
ENCODING -1
SWIDTH 0 0
DWIDTH 0 0
BBX 3 3 -5 -3
BITMAP
74
18
B4
ENDCHAR
STARTCHAR uni0328.case
ENCODING -1
SWIDTH 0 0
DWIDTH 0 0
BBX 3 3 -5 -3
BITMAP
20
60
3C
ENDCHAR
STARTCHAR uni032E.case
ENCODING -1
SWIDTH 0 0
DWIDTH 0 0
BBX 5 2 -6 -3
BITMAP
6240
3E00
ENDCHAR
STARTCHAR uni0331.case
ENCODING -1
SWIDTH 0 0
DWIDTH 0 0
BBX 3 1 -5 -2
BITMAP
BC
ENDCHAR
STARTCHAR brevecombcy
ENCODING -1
SWIDTH 0 0
DWIDTH 0 0
BBX 4 2 -5 6
BITMAP
62
3D
ENDCHAR
STARTCHAR brevecombcy.case
ENCODING -1
SWIDTH 0 0
DWIDTH 0 0
BBX 4 2 -4 5
BITMAP
49
B8
ENDCHAR
STARTCHAR uni03060301
ENCODING -1
SWIDTH 0 0
DWIDTH 0 0
BBX 5 3 -5 6
BITMAP
0600
5640
3E00
ENDCHAR
STARTCHAR uni03060300
ENCODING -1
SWIDTH 0 0
DWIDTH 0 0
BBX 4 3 -5 6
BITMAP
24
55
3E
ENDCHAR
STARTCHAR uni03060309
ENCODING -1
SWIDTH 0 0
DWIDTH 0 0
BBX 5 4 -5 6
BITMAP
1D00
0D00
6240
3E00
ENDCHAR
STARTCHAR uni03060303
ENCODING -1
SWIDTH 0 0
DWIDTH 0 0
BBX 5 4 -5 6
BITMAP
2940
1600
6240
3E00
ENDCHAR
STARTCHAR uni03020301
ENCODING -1
SWIDTH 0 0
DWIDTH 0 0
BBX 4 4 -4 6
BITMAP
01
06
74
98
ENDCHAR
STARTCHAR uni03020300
ENCODING -1
SWIDTH 0 0
DWIDTH 0 0
BBX 4 4 -5 6
BITMAP
40
90
1D
26
ENDCHAR
STARTCHAR uni03020309
ENCODING -1
SWIDTH 0 0
DWIDTH 0 0
BBX 5 4 -4 5
BITMAP
0B00
0240
7B00
E800
ENDCHAR
STARTCHAR uni03020303
ENCODING -1
SWIDTH 0 0
DWIDTH 0 0
BBX 4 4 -4 6
BITMAP
A9
54
74
98
ENDCHAR
STARTCHAR uni03060301.case
ENCODING -1
SWIDTH 0 0
DWIDTH 0 0
BBX 5 3 -5 6
BITMAP
0600
5640
3E00
ENDCHAR
STARTCHAR uni03060300.case
ENCODING -1
SWIDTH 0 0
DWIDTH 0 0
BBX 4 3 -5 6
BITMAP
24
55
3E
ENDCHAR
STARTCHAR uni03060309.case
ENCODING -1
SWIDTH 0 0
DWIDTH 0 0
BBX 5 4 -5 6
BITMAP
1D00
0D00
6240
3E00
ENDCHAR
STARTCHAR uni03060303.case
ENCODING -1
SWIDTH 0 0
DWIDTH 0 0
BBX 5 4 -5 6
BITMAP
2940
1600
6240
3E00
ENDCHAR
STARTCHAR uni03020301.case
ENCODING -1
SWIDTH 0 0
DWIDTH 0 0
BBX 4 4 -4 6
BITMAP
01
06
74
98
ENDCHAR
STARTCHAR uni03020300.case
ENCODING -1
SWIDTH 0 0
DWIDTH 0 0
BBX 4 4 -5 6
BITMAP
40
90
1D
26
ENDCHAR
STARTCHAR uni03020309.case
ENCODING -1
SWIDTH 0 0
DWIDTH 0 0
BBX 5 4 -4 5
BITMAP
0B00
0240
7B00
E800
ENDCHAR
STARTCHAR uni03020303.case
ENCODING -1
SWIDTH 0 0
DWIDTH 0 0
BBX 4 4 -4 6
BITMAP
A9
54
74
98
ENDCHAR
ENDFONT
